<?xml version="1.0" encoding="utf-8"?>
<!-- Generator: Adobe Illustrator 18.1.0, SVG Export Plug-In . SVG Version: 6.00 Build 0)  -->
<!DOCTYPE svg PUBLIC "-//W3C//DTD SVG 1.1//EN" "http://www.w3.org/Graphics/SVG/1.1/DTD/svg11.dtd">
<svg version="1.1" id="Layer_1" xmlns="http://www.w3.org/2000/svg" xmlns:xlink="http://www.w3.org/1999/xlink" x="0px" y="0px"
	 viewBox="0 0 289.2 289.2" enable-background="new 0 0 289.2 289.2" xml:space="preserve">
<g>
	<path fill="#F38222" d="M144.6,289.2c-32,0-64,0-96,0C21,289.2,0,268.2,0,240.5c0-64,0-128,0-192C0,21.1,21.1,0,48.4,0
		c64.2,0,128.3,0,192.5,0c27.3,0,48.4,21.1,48.4,48.5c0,64.2,0,128.3,0,192.5c0,27-21.2,48.2-48.1,48.2
		C208.9,289.2,176.8,289.2,144.6,289.2z M141.5,232.6c13.8,0,25,0.1,36.1,0c27.4-0.3,51.4-22,54.1-49.3c1.7-17.1,0.8-34.3,0.8-51.4
		c0-5.7-3.4-8.9-9.1-9.2c-4.5-0.3-9-0.2-13.4-0.8c-6.2-0.8-8.2-2.9-9.4-9.2c-0.8-4.6-1.4-9.2-2.1-13.8c-3.2-22-27.9-43.4-50.2-43.5
		c-12.5,0-25,0-37.5,0c-29.8,0.1-54.6,25-54.7,54.9c-0.1,22.5-0.1,45,0,67.5c0.1,26.4,19.9,49.6,46,53.9
		C116.1,233.9,130.1,231.9,141.5,232.6z"/>
	<path fill="#FEFDFD" d="M141.5,232.6c-11.3-0.7-25.4,1.3-39.3-1c-26.1-4.2-45.9-27.5-46-53.9c-0.1-22.5-0.1-45,0-67.5
		c0.1-29.9,24.9-54.7,54.7-54.9c12.5,0,25,0,37.5,0c22.2,0,46.9,21.5,50.2,43.5c0.7,4.6,1.2,9.2,2.1,13.8c1.1,6.2,3.2,8.4,9.4,9.2
		c4.4,0.6,9,0.5,13.4,0.8c5.7,0.4,9.1,3.6,9.1,9.2c-0.1,17.1,0.9,34.3-0.8,51.4c-2.7,27.3-26.7,49-54.1,49.3
		C166.4,232.7,155.3,232.6,141.5,232.6z M143.6,186.6c10.2,0,20.3,0,30.5,0c7.5,0,12.4-4.2,12.5-10.7c0.1-6.4-4.7-10.7-12.3-10.7
		c-20.2,0-40.3,0-60.5,0c-7,0-12,4.4-12.1,10.5c-0.1,6.3,5,10.9,12.3,10.9C123.9,186.6,133.8,186.6,143.6,186.6z M128.6,101.2
		c-5.3,0-10.6-0.1-15.9,0c-6.2,0.1-10.8,4.8-10.9,10.6c0,5.8,4.7,10.6,10.9,10.7c10.5,0.1,20.9,0.1,31.4,0c6.1-0.1,10.7-5.1,10.5-11
		c-0.1-5.9-4.3-10.1-10.5-10.3C138.9,101.1,133.8,101.2,128.6,101.2z"/>
	<path fill="#F38222" d="M143.6,186.6c-9.8,0-19.7,0-29.5,0c-7.4,0-12.4-4.6-12.3-10.9c0.1-6.1,5-10.5,12.1-10.5
		c20.2,0,40.3,0,60.5,0c7.5,0,12.4,4.3,12.3,10.7c-0.1,6.4-5,10.6-12.5,10.7C163.9,186.6,153.8,186.6,143.6,186.6z"/>
	<path fill="#F38222" d="M128.6,101.2c5.1,0,10.3-0.1,15.4,0c6.2,0.2,10.4,4.4,10.5,10.3c0.1,5.9-4.4,10.9-10.5,11
		c-10.5,0.2-20.9,0.1-31.4,0c-6.1-0.1-10.9-5-10.9-10.7c0-5.8,4.7-10.5,10.9-10.6C118,101.1,123.3,101.2,128.6,101.2z"/>
</g>
</svg>
