<?xml version="1.0" encoding="utf-8"?>
<!-- Generator: Adobe Illustrator 18.1.0, SVG Export Plug-In . SVG Version: 6.00 Build 0)  -->
<!DOCTYPE svg PUBLIC "-//W3C//DTD SVG 1.1//EN" "http://www.w3.org/Graphics/SVG/1.1/DTD/svg11.dtd">
<svg version="1.1" id="Layer_1" xmlns="http://www.w3.org/2000/svg" xmlns:xlink="http://www.w3.org/1999/xlink" x="0px" y="0px"
	 viewBox="0 0 1930.7 1930.7" enable-background="new 0 0 1930.7 1930.7" xml:space="preserve">
<g>
	<path fill="#3C5A98" d="M1031.4,1930.2c-2,0.1-4,0.4-6,0.4c-305.7,0-611.3,0-917,0c-55,0-99.3-38-107.4-92.2
		c-0.9-5.7-1-11.6-1-17.4C0,1250.5,0,680,0,109.5C0,56.2,33.7,13.7,84.9,2.4C93.2,0.5,101.7,0,110.2,0c570.1,0,1140.3,0,1710.4,0
		c52,0,93.7,31.4,106.5,80c2.7,10,3.5,20.3,3.5,30.7c0,227.2,0,454.3,0,681.5c0,342.8,0,685.6,0,1028.5c0,31.6-10.4,58.8-33.4,80.6
		c-20.3,19.3-44.7,29.3-72.8,29.3c-162.7,0.1-325.3,0.1-488,0.1c-1.5,0-3-0.2-4.5-0.3c0,0-0.2-0.4-0.2-0.4c0-2.3,0.1-4.7,0.1-7
		c0-244.3,0-488.7,0-733c0-7.1,0-7.1,7.2-7.1c79.5,0,159,0,238.5,0c2.7,0,5.5,0.8,6-3.7c2.1-18.4,4.6-36.7,7-55
		c4.8-37.5,9.6-75,14.4-112.4c4.9-38.1,9.7-76.3,14.9-114.4c0.7-5.2-0.6-5.8-5.3-5.8c-92.5,0.1-185,0.1-277.5,0.2
		c-3.5,0-5.3-0.3-5.3-4.7c0.2-62.3,0-124.7,0.2-187c0.1-16.2,1.4-32.3,4.6-48.2c8.2-40.2,31-67.2,70.8-79.3
		c20.3-6.2,41.1-8.5,62.1-8.7c51.8-0.3,103.7-0.2,155.5-0.1c4.5,0,5.7-1,5.7-5.6c-0.2-83.2-0.1-166.3-0.1-249.5c0-0.8-0.1-1.7,0-2.5
		c0.2-2.2-0.5-3.3-3-3.5c-9.9-0.9-19.9-2.1-29.8-3c-27.7-2.4-55.5-4.2-83.3-5.4c-45.8-1.9-91.6-4-137.4-1.8
		c-40.5,1.9-80,8.9-118.3,22.3c-56.4,19.6-104.8,51.1-143.3,97.1c-45.2,54-68.6,117.2-78.9,186c-4.6,30.6-5.6,61.3-5.6,92.2
		c0,64.8,0,129.7,0,194.5c0,7,0,7-7.3,7c-79.5,0-159,0-238.5-0.1c-4.3,0-5.8,0.7-5.8,5.5c0.2,93.5,0.2,187,0,280.5
		c0,4.6,1.4,5.3,5.6,5.3c79.3-0.1,158.7-0.1,238-0.1c8,0,8,0,8,7.8c0,240.2,0,480.3,0,720.5
		C1031.2,1917.5,1031.4,1923.8,1031.4,1930.2L1031.4,1930.2z"/>
</g>
</svg>
