<?xml version="1.0" encoding="utf-8"?>
<!-- Generator: Adobe Illustrator 18.1.0, SVG Export Plug-In . SVG Version: 6.00 Build 0)  -->
<!DOCTYPE svg PUBLIC "-//W3C//DTD SVG 1.1//EN" "http://www.w3.org/Graphics/SVG/1.1/DTD/svg11.dtd">
<svg version="1.1" id="Layer_1" xmlns="http://www.w3.org/2000/svg" xmlns:xlink="http://www.w3.org/1999/xlink" x="0px" y="0px"
	 viewBox="0 0 241.5 241" enable-background="new 0 0 241.5 241" xml:space="preserve">
<g>
	<path fill="#FFFFFF" d="M1.4,223.9c-0.4-0.5-1.1-1-1.1-1.5c0-8.6-0.3-17.2,0.3-25.7c0.2-2.8-0.6-5.2-0.6-7.8
		c0.2-20.3,0.1-40.6,0.1-60.9c0.9-8.4,0.7-16.9,1-25.4c0.1-2-0.1-4,0.3-5.9c0.9-3.9,3.5-6,7-5.2c3.3,0.7,5,4,4.1,7.7
		c-0.2,0.9-0.8,1.7-1,2.7c1.1-0.7,2.1-1.6,3.4-2.1c2.5,0,2.6,2.3,3.4,3.7c4.8,9.1,11.1,16.8,19.5,22.8c8.6,6.1,18.1,7.9,28.3,5.4
		c1.1-0.3,2.3-0.5,3.4-0.5c4.8,0.8,7.2-3.5,10.8-5.2c1.9-0.9,3.1-3.5,5.9-2c2.8,1.5,4.8,3.5,4.4,7c-1.8,4.6-6.7,7.2-7.8,12.2
		c-2.5,6.5-0.5,11.8,3.6,17.1c5.2,6.7,11.7,11.9,18.3,16.8c7.8,5.8,14.7,12.4,20.7,20.1c8.1,12.2,9.7,25.9,8.9,40
		c-0.1,1.4-0.4,2.6-1.3,3.7c-7.3,0-14.7,0-22,0c-1.6-1.7-1.3-3.9-1.4-6c-0.1-4.3-1.1-8.4-3.4-12.1c-6.7-9.9-16-16.7-25.6-23.4
		c-10.5-7.3-22.2-6.9-34-6.5c-6.9,0.3-13.5,1.8-19.9,4.1c-7.1,2.9-14,6.1-19.8,11.2c-3.3,2.9-5.1,6-4.6,10.4
		C2.6,220.4,2.8,222.3,1.4,223.9z"/>
	<path fill="#236A9F" d="M124.1,197.2c-7.2-8.9-16-16.1-25.1-23c-5.5-4.2-10.5-9.1-14.7-14.8c-3.8-5.2-5.1-10.7-2.3-16.7
		c4.4-5.9,9.2-11.5,15.7-15.4c1.5-0.9,2.9-2.5,4.9-1c1,2.9-0.6,4.3-2.8,5.4c1.4,0,2.7-0.9,4-1.6c2.9-1.6,5.6-1.1,7.7,1.3
		c2.9,3.2,5.9,5.8,10.6,5.6c2.5-0.1,3.3,1.8,3.5,4c0.3,5.8,3.9,9,9,10.7c3.4,1.2,5.5,2.9,6.5,6.7c1.4,5.1,6,7.7,10.2,10.4
		c1.6,1,3.7,1.8,3.7,3.7c0.2,5.3,4.8,6.8,7.7,9.8c0.9,0.9,1.9,1.1,3.1,1.2c5.4,0.2,7.5,1.8,8.2,7.1c0.4,3.1,2.1,4.2,4.5,5.3
		c9,4,16.6,9.7,21.7,18.2c0.5,0.9,1.4,1.6,1.5,2.6c0.5,5.1,2.7,8.1,7.5,10.9c5.5,3.3,11.7,4.4,17.3,7c1.4,0.6,3.5-0.2,3.9,2.2
		c-2.5,1.3-4.7,3.4-7.8,3.2c-10.9,0.3-21.9,0.5-32.8,0.4c-1.8,0-3.7-0.5-5.4,0.5c-0.7,0-1.3,0-2,0c-4-0.8-8-0.9-12,0
		c-11.3,0-22.7,0-34,0c0.7-3.1,3.3-2.2,5.2-2.3c6.8-0.2,13.6,0,20.4-0.1c2.2,0,4.7,0.4,6.5-1.5c-0.1-1.6-1.5-1.6-2.5-2.2
		c-8.1-4.5-16-9.4-23.9-14.3c-2.6-1.6-2.6-4.4-3-7.1c-0.5-2.8,0.4-7.1-5.2-4.4c-1.7,0.8-2.9-1.4-2.5-2.8
		C132.8,200.2,129.1,198.3,124.1,197.2z"/>
	<path fill="#236A9F" d="M222.2,0c5.5,2,10.7,4.4,14.4,9.3c2.6,3.5,4.7,7.4,4.8,11.8c0.1,12.6,0,25.2-0.1,37.8
		c-2.1,4.3-0.7,8.8-1,13.3c-0.1,2.9-0.9,5.1-4.1,5.1c-11,0.2-22,0.4-33-0.1c-0.7,0-1.2-0.4-1.8-0.9c0.2-3.6,3.1-2.7,5-2.8
		c7.8-0.3,15.6-0.1,23.5-0.1c6.4,0,6.7-0.4,6.7-6.8c0.1-9,0.1-9-8.9-9c-6.3,0-12.6,0-19,0c-2.1,0-4.4,0.1-6.3-1.1
		c-1.5-4.3-0.4-8.8-0.6-13.2c-0.2-5,0-9.9-0.1-14.9c0-2,0.1-4-1.5-5.6c-4.5-3.9-9.8-2.2-14.7-1.6c-2.2,0.3-1.8,2.9-1.9,4.7
		c-0.1,8,0,15.9-0.1,23.9c0,2.3,0.4,4.7-1.8,6.4c-2.6-0.9-2-3.2-2-5c0.1-9.6-0.9-19.3,0.8-28.2c0,0.8,0.2,2.6-2.1,2.6
		c-1.4,0-2.1-1-2.3-2.3c-0.2-2.5-0.2-5-0.5-7.5c-0.2-1.6-0.7-3-2.6-3.1c-0.9-0.1-1.7,0-2.1,0.9c-0.4,0.7,0.3,1.3,0.8,1.7
		c3.4,2.4,4.7,5.5,3.4,9.5c-0.3,0.8,0.3,1.6,0.8,2.3c5.8,6.9,4.4,14,0.6,21.2c-0.2,0.4-0.5,0.9-0.8,1.2c-4.1,5-9.6,3.7-14.8,3
		c-2.4-0.3-4.5-1.1-6.5,0.8c-2.4,2.1-4.3,1.2-5.8-1.2c-1.7-2.7-0.1-3.8,2.3-4.7c1.2-0.4,3.2-0.8,2.5-2.4c-0.8-2-2.5-0.7-3.8,0
		c-5,2.7-5.4,2.8-7.8-2.1c-1.9-3.7-5.2-6.1-7.5-9.3c-1.7-2.3-2.8-4.5-2.2-7.4c0.5-2.1,2-3.5,3.9-4.1c2.5-0.8,0.4-1.7,0.3-2.6
		c-1.6-1.8-3.7-1.1-5.6-1.2c-6.6-0.2-13.2,0.4-19.8-0.5c-3.9-1.1-8-0.8-11.9-0.5c-6.4,0.5-12.5-1.3-18.6-2.5c-1.5-0.3-3.1-0.7-3.9-2
		c-4.5-6.6-11.5-7.6-18.5-8.6C51.9,3.5,45.8,2,39.4,2.2c-1.3,0-3.1-0.1-3.2-2.2C98.2,0,160.2,0,222.2,0z"/>
	<path fill="#236A9F" d="M107.4,221.7c4.1,5.9,3.9,12.6,3.8,19.3c-30.3,0-60.7,0-91,0c0-0.3-0.2-0.6-0.3-0.8
		c1.5-1.8,3.6-1.4,5.6-1.5c9.3-0.3,18.6,0.4,28-0.8c4.5-0.6,9.3,1.6,13.7-1c1.4-0.8,3.4-1,3.5-3.1c0.1-2-1.7-2.6-3.1-3.5
		c-4.6-2.8-8.2-6.6-12-10.3c-4-4-8.7-7.6-13.7-10.4c-1.3-0.7-2.8-1.2-3.6-2.6c-1.5-2.6-3.6-3.2-6.4-2.5c-1.9,0.5-3.8,0.1-4.8-1.8
		c-1.1-1.9-0.1-3.5,1.4-4.8c0.4-0.3,0.9-0.5,1.3-0.6c4.4,1.2,8.4,1.1,11.5-2.8c0.9-0.4,1.8-0.5,2.7-0.4c2.6,1.5,5.1,0.4,7.7-0.2
		c14.9-1.5,27.3,3.4,39,12.7C96.6,211.3,101.5,217.1,107.4,221.7z"/>
	<path fill="#236A9F" d="M36.2,0c0.8,1.1,2,1.2,3.2,1c7.9-1.2,15.3,2.2,23.1,2.2c4.6,0,8,4.7,13,4.2c0.3,0,1.2,1,1.1,1.4
		c-1.1,5.2,3.2,4.4,5.9,5.3c8.3,2.8,16.9,2,25.5,2c1.2,0,2.3-0.1,3.3,0.8c-1.9,2.2-4.6,1.6-7,1.6c-16.1,0.1-32.2,0-48.4,0
		c-17.5,0-33.5,4.7-47.8,14.8c-0.7,0.5-1.3,1-2.1,1.4c-1.4,0.8-2.9,2.1-4.5,1.2C0,35,0.7,33.1,0.8,31.7c0.3-4.9-0.9-9.8,0.7-14.7
		c3-7,7.4-12.7,14.8-15.5c0.4-0.2,0.6-1,1-1.6C23.5,0,29.9,0,36.2,0z"/>
	<path fill="#236A9F" d="M124.1,197.2c2.8-0.8,5.4,1.6,8.4,0.3c0.8-0.4,1.9,1.3,1,2.6c-0.9,1.3-1.5,2.6-1.3,4.2
		c0.2,1.4-0.8,3.3,0.8,4.1c1.7,0.8,1.9-1.3,2.8-2.2c1.3-1.3,2.4-0.9,3.1,0.6c0.5,1.2,1.2,2.6,0.9,3.8c-1.4,7.1,4.7,9.6,8.3,13.6
		c0.6,0.6,1.8,0.9,2.7,0.8c3.2-0.3,5.1,1.1,6.9,3.7c2.1,3,5.8,4.2,9.3,5.3c1.9,0.6,3.8,1.2,3.9,3.2c0.2,2.8-2.8,2.3-4.1,2.4
		c-8.3,0.4-16.6,0.3-24.9,0.5c-1.9,0-4-0.8-5.7,1c-1,0-2,0-3,0c0.3-8.8,0.4-17.5-1.6-26.1C130.2,208.5,127.4,202.8,124.1,197.2z"/>
	<path fill="#1E6192" d="M184.2,241c1.5-1.6,3.4-0.9,5.2-1c7.7-0.4,15.5,0.6,23.3-0.8c3.1-0.6,6.5,0.5,9.8,0.9
		c-0.1,0.3-0.2,0.6-0.2,0.9C209.5,241,196.9,241,184.2,241z"/>
	<path fill="#1E6192" d="M170.2,241c4-1.6,8-1.6,12,0C178.2,241,174.2,241,170.2,241z"/>
	<path fill="#236A9F" d="M230.2,236.8c-6.2-0.1-11.1-5-17.3-4.9c-1.3,0-2.1-0.9-2.9-1.8c-0.5-0.6-0.9-1.9-1.4-2
		c-7-0.6-6.2-6.4-8.3-11c-4.3-9.3-12.4-15.6-21.7-19.9c-3.4-1.5-6.9-2-5.8-7.4c0.7-3.2-3.9-5.9-7.1-4.8c-0.6,0.2-1.2,0.6-1.8,0.6
		c-1.2-0.1-9.6-9.6-9.6-10.9c0-1.9-0.7-3.3-2.3-4.2c-6.2-3.3-12.1-6.6-13-14.6c-0.2-2-2.5-2-4-2.5c-6.2-2.1-11-5.4-10.8-12.9
		c0.1-2.4-1.6-2.9-3.3-2.4c-4,1.1-6.7-1.5-8.5-3.8c-3-3.9-5.6-5.3-9.8-2c-0.9,0.7-2.1,0.9-3.7,0.5c0.7-2.6,4.2-3.7,3.4-6.7
		c0.1-0.2,0.2-0.4,0.2-0.6c2-2.5,4.5-0.6,7.3-0.8c-2.1-2.9-2.7-5.6-0.4-8.2c1.7-3.2,3.3-6.5,5.4-9.5c1.5-2.1,2.2-4.4,1.9-7
		c4-12.7,4.5-25.5,0.8-38.4c-0.9-3-2.9-5.7-2.5-9c3.8-1.5,7.4-0.2,7.5,3.1c0.1,4.8,3.5,9.1,1.5,14.2c5.7-1.7,5.8-1.7,6.7,3.6
		c0.4,2.7,1.9,4.5,3.8,6.2c4.3,4,8.8,7.5,11.8,13.2c2,3.9,7.2,6.5,11.3,9.4c1.3,1,3.4,1.5,3.8,3.1c1.4,5,5.8,6.7,9.7,8.5
		c3.6,1.7,5.4,4.3,6.2,7.9c0.7,3.2,2,5.2,5.5,5.2c2.4,0,3.9,1.5,5,3.6c2.6,4.9,6.3,8.5,11,11.8c5.4,3.7,11.1,8,13.1,15.1
		c0.3,1.2,1,2.2,2.1,2.7c5.5,2.4,8.7,7.1,12.1,11.6c1.6,2.2,3.7,3.9,5.9,5.4c3.2,2.3,5.1,1.5,5.1-2.4c0.1-4.4,0.9-8.6,1.3-12.9
		c0.2-2,0.2-4.5,3.2-4.7c0.1,20.8,0.4,41.6,0,62.3C241.2,226.9,237.4,233.2,230.2,236.8z"/>
	<path fill="#23699F" d="M241.3,157c-3.4,5-2.2,10.8-3.1,16.2c-0.3,2.3,1.2,5.3-2,6.6c-2.8,1.1-4.4-1.2-6.5-2.6
		c-3.2-2.1-5.1-5.1-7.4-8c-2.6-3.3-5-6.6-9.3-7.9c-1.1-0.3-2.3-0.9-2.6-2.2c-2.4-9.2-9.3-14-17-18.5c-2.8-1.7-5-5.2-6.4-8.4
		c-1.4-3.2-3-4.9-6.6-4.4c-2.4,0.4-4.1-1-4.1-3.2c-0.2-7.8-6-10.1-11.7-12.7c-0.7-0.3-2.2-0.5-2.2-0.9c-0.3-6.7-7.4-7.3-10.3-11.6
		c-0.7-1-1.8-2.2-3-2.5c-3.9-1.1-5.2-3.7-6.2-7.4c-0.9-3.7-5-5-7.5-7.4c-3.4-3.1-7.2-5.5-6.3-10.9c0.1-0.8,0-1.8-1-2
		c-0.5-0.1-1.2,0.5-1.6,0.9c-0.8,1-1.2,2.6-3,1.6c-1.8-1-1.4-2.4-0.9-3.9c0.9-2.9,1-5.5-1.5-7.8c-0.4-0.4-0.8-1.3-0.6-1.7
		c3-6.1-2.4-5.4-5.3-6.6c-4.2-5.5-10-10-12.5-16.8c1.3-2.5,3.7-2.7,6-2.5c7.7,0.6,14.8-0.4,20.7-6c0.9-0.9,2.3-1.3,3.7-0.8
		c-0.2,2.7,0.6,4.9,2.4,7.2c2.8,3.5,6.8,6.1,8.3,10.8c0.6,1.9,2.1,3.4,4.2,0.8c0.9-1.1,2.3-1.9,3.7-2.4c2.1-0.8,2.9,0.8,3.7,2.3
		c1,1.8-0.3,2.4-1.5,2.9c-1.6,0.7-3.3,1.3-5.2,2c1.3,3,2.2,5.9,5.9,1.8c1.2-1.3,3.2-2,5-0.7c3.7,2.7,7.7,0.1,11.6,0.9
		c1.1,0.2,2.6-1.7,4-2.7c0.6,0.3,1.2,0.4,1.8,0.6c-0.6-0.3-1.3-0.3-1.8-0.6c2.6-4.4,3.4-9.1,3.1-14.2c-0.2-2.8-0.1-5.3-3.3-6.5
		c-2.2-0.9-2.4-3.1-1.4-4.6c2.7-4,0-5.8-2.8-7.3c-1.6-0.9-3.1-1.4-2.3-3.6c1-2.5,3.3-1.8,5.2-1.9c1.7-0.1,3.5-0.1,3.5,2.4
		c0,2.6,0.1,5.3,0.1,7.9c0,1.2-0.6,3.1,1.1,3.3c2.4,0.3,1.6-1.9,1.8-3.2c0.1-0.8,0.1-1.5,1-2.3c0,12.2,0,24.4,0,36.6
		c-0.4,0.5-0.9,0.8-1.5,0.8c-10.9-0.1-21.9-0.3-32.8,0.1c-0.5,0.2-1,0.4-1.4,0.5c-0.7,0.3-1.3,0.6-1.8,1.1
		c-2.6,5.7-0.9,11.6-0.2,17.3c0.2,2,3.1,2,5,2.4c8.6-0.6,17.2-0.4,25.8-0.4c2.3,0,4.7-0.3,6.5,1.7c0.6,1,0.8,2.2,0.9,3.3
		c0.2,11.8-0.2,23.6,0.5,35.6c4.2-1.1,8.9,0.4,13-2.2c6.8-0.9,6.8-0.9,6.8-7.8c0-7.8-0.1-15.6,0-23.4c0.1-6,1.1-7.1,6.9-7.2
		c9-0.1,17.9,0,26.9,0c2,0,4,0,5.6,1.5c0.1,22.4,0.2,44.7,0.3,67.1C241.5,149.7,241.3,153.3,241.3,157z"/>
	<path fill="#236A9F" d="M241.2,79c-11.1,0-22.2,0.1-33.3-0.1c-3.8-0.1-4.8,1.2-4.7,4.9c0.2,9,0.1,17.9,0.1,26.9
		c0,6.3,0,6.3-6.6,6.4c-0.8,0-1.7,0-2.5,0c-2.2,1.4-4.7,1-7.1,0.9c-2.2-0.1-3.7-1.2-3.2-3.8c2.2-2.2,5-1.4,7.6-1.6
		c2.8-0.2,5.7,0.6,8.2-1.3c1.4-1.3,1.2-3.1,1.2-4.7c0-9.7,0.1-19.3-0.1-29c0-0.6,0.3-1.1,0.8-1.5c11.2,0,22.5,0,33.7,0.2
		c3.4,0.1,4.3-1.4,4.1-4.4c-0.2-3-0.1-6,0-8.9c0-1.6-0.5-3.5,2-3.8C241.7,65.6,241.6,72.3,241.2,79z"/>
	<path fill="#FFFFFF" d="M103.1,36.2c4.7,4.8,9.2,9.7,12.2,15.8c5.2,12.6,7.9,25.5,5,39.1c-0.7,3.4-1.9,6.7-2.9,10
		c-1.2,6.1-4.8,11-8.7,15.3c-4.8,5.4-10.6,9.9-16.4,14.4c-0.5,0.4-1.2,0.5-1.9,0.4c-1.1-2-1.2-4.4-3.9-5.6c-2.2-1-2.6-0.5-4.6,0.7
		c-3.7,2.2-6.4,7-11.8,5.9c0.2-1.5,1.2-2.3,2.3-3.1c14.6-10.6,17.9-25.8,17.1-42.5c-0.3-6.4-1.7-12.9-4.2-19
		c-5.1-13.4-12.8-24.6-25.5-32C43.6,26,27.2,29.9,16.9,46c-8,14.9-7.9,30.4-3.3,46.2c0.8,2.7,2.1,5.3,1.6,8.2c-1.3,2-3.7,3-4.7,5.8
		c-2.7-3.6,0.7-5.5,1.3-7.9c0.8-3.3-1.1-5.2-3.3-5.6c-1.9-0.4-5.2-0.4-5.4,3.3c-0.1,1.6-0.7,3.2-0.8,4.9c-0.4,8.2-0.7,16.4-1,24.5
		c0,1-0.1,2-1,2.7c0-25.2-0.2-50.5,0.1-75.7c0.1-10.1-0.7-20.1-0.1-30.2c0.1-1.7-0.8-3.7,1.3-5C0.7,23.2,0.8,29.3,1,35.5
		c1.7,0.4,2.5-0.9,3.5-1.6C19.4,22.7,36.2,17.1,54.8,17c18.8-0.1,37.6-0.1,56.4-0.2c9.2,0,18.5,0,28.5,0c-1.4,1.6-2.1,2.3-2.7,3
		c-6.4,6.2-12.6,12.7-22.5,12.5c-4.9-0.1-9.9,0-15,0C101,33.5,102.7,34.3,103.1,36.2z"/>
	<path fill="#236A9F" d="M29.2,198c-0.5,1.5-2.8,2.5-1.5,4.3c1.2,1.8,3.1,1.4,4.9,0.7c1.3-0.4,3.2-1.7,4.1,0
		c2.8,5.4,8.6,7.7,13,10.5c7.5,4.7,11.2,13.8,20.2,16.3c2.1,0.6,2.5,2.6,2.7,4.4c0.2,2.1-1.6,2.4-3.1,3.2
		c-4.9,2.6-10.2,1.4-15.3,1.9c-11.4,1-22.9,0.1-34.3,0.9c-9.6-1.5-14.7-8.1-18.4-16.3c-2.9-10.2,2.3-16.3,10.5-21
		c4.6-2.6,9.1-5.5,14.3-6.9C27.3,196.6,28.9,196.3,29.2,198z"/>
	<path fill="#236A9F" d="M87.7,70.2c8.3,21.4,2.1,42.4-15.1,57.9c-2.1,1.9-4.2,3.1-7,3.6c-17.3,3-30.1-1.6-42-17.4
		c-3-4-5.2-8.6-7.8-12.9c-0.4-0.7-0.8-1.5-1.1-2.2c-6-14.9-7.6-30.1-2.7-45.8c0.9-3,1.9-6,4.1-8.4c2.8-1.8,4.5-4.8,7.1-6.8
		c11.2-8.6,23-8.3,35.2-2.7c12.8,5.8,20.4,16.5,26.2,28.8c0.3,0.6,0.3,1.5,0.7,2C86.3,67.5,87.2,68.8,87.7,70.2z"/>
	<path fill="#236A9F" d="M50.3,147c-4.6,13.5-1.2,25.1,9.9,35.9c-21.1-0.6-40.5,0.5-59,9.4c0-20.3,0-39.8,0-59.4
		c1.9-1.5,3.3-0.3,4.9,0.8c10.7,7.6,22.8,10.5,35.7,10.9C44.7,144.7,48.2,143.6,50.3,147z"/>
	<path fill="#236A9F" d="M107.4,221.7c-2.5,1.4-3-1.2-4-2.2C89,204.8,73.5,192.8,51.2,195c-0.7-0.7-1.7-0.9-2.5-1.4
		c-0.6-0.4-1.3-0.9-1.6-1.6c0.2-0.2,0.4-0.7,0.6-0.7c11.8,0.6,23.7-0.7,34.1,7.3c7.5,5.7,15.4,11,21.8,18.1
		C105.1,218.2,106.4,219.8,107.4,221.7z"/>
	<path fill="#236A9F" d="M50.3,147c-2.3-1.4-4.8-1-7.3-1c-14-0.3-27.4-2.7-38.6-12.2c-1-0.8-2.1-0.8-3.3-0.8
		c-0.1-0.8-0.2-1.6-0.2-2.5c0-0.4,0.3-0.9,0.5-1.7c14.9,11.6,31.9,15.1,50.1,14.1C52.2,144.8,51.2,145.9,50.3,147z"/>
	<path fill="#236A9F" d="M90.5,131.1c5-4.2,10-8.3,14.8-12.7c5.3-4.9,8.9-11.1,12.1-17.4c1.8,1.9,0.1,3.5-0.7,4.9
		c-2,3.7-4.3,7.4-6.5,11c-2.9,2.8-4.8,6.5-8,9.1c0,0,0,0,0,0c-6.5,3.7-12.4,8.1-16.9,14.2c-0.7,1-1.2,3-3.3,2.5
		C83.1,137.6,87.6,134.9,90.5,131.1z"/>
	<path fill="#236A9F" d="M47.1,191.9c0.9,0.1,1.7,0.2,2.1,1.1c-1.3,1.7-3.5,0.9-5,2c-1,0-2,0-3,0c-3.5,1.5-7.7,0.5-11,3
		c-0.3,0-0.7,0-1,0c-1-0.7-2-1.3-3-2C32.9,193.3,39.8,191.4,47.1,191.9z"/>
	<path fill="#F8F6F5" d="M201.5,76c-0.1,0.3-0.2,0.7-0.3,1c0.7,12,0.9,24-0.1,36c-5.6,1.7-11.3-0.1-16.9,1c-3.7,0.8-2.9-2.1-2.9-3.9
		c-0.2-9.9-0.5-19.8-0.5-29.7c-0.1-3.3-2.6-2.8-4.7-2.8c-9.6-0.1-19.3,0.2-28.9-0.1c-1.3-0.2-2.5-0.4-3.3-1.5
		c-0.9-6.6-2.4-13.3,0.7-19.8c0.3,0.2,0.5,0.1,0.7-0.1c11.7-0.8,23.3-0.8,35,0c0.3-0.1,0.7-0.2,1-0.3c1.3-10,0.3-20.1,0.6-30.2
		c0.2-7.9-0.4-6.5,6.7-6.6c3.1-0.1,6.3,0.2,9.4-0.1c2.5-0.2,3.2,1.1,3.3,3.1c1.2,1.9,0.9,4.1,1,6.3c0.1,9.2-0.1,18.5,0.1,27.7
		c10.5,0.1,20.9,0.2,31.4,0.1c3.6-0.1,5.3,0.7,4.7,4.7c-0.6,4.7,2,10.9-1.2,13.8c-2.9,2.7-8.9,0.5-13.5,0.8
		C216.3,75.8,208.9,74.7,201.5,76z"/>
	<path fill="#236A9F" d="M103.1,36.2c-2.4-1.5-4.9-3.1-8.3-5.2c7.5,0,13.9-0.2,20.3,0.1c4.2,0.2,7.6-0.9,10.9-3.5
		c3.5-2.8,7.3-5.1,11-7.6c1,0.7,2.6,1,0.6,2.6c-1.5,1.1-3.5,1.6-4.4,3.5c-0.6,0.3-1.3,0.5-1.7,1c-6.6,6.1-14.4,8.4-23.3,7.2
		C106.2,33.8,104.1,33.8,103.1,36.2z"/>
	<path fill="#236A9F" d="M202.3,56c-1.4-0.2-1.3-1.3-1.3-2.2c0.1-10.6,0.1-21.2,0.2-31.8c1,0.4,1.8,1.2,1.8,2.2
		C202.9,34.8,204.2,45.5,202.3,56z"/>
	<path fill="#236A9F" d="M30.2,198c2.7-4.8,7-3.3,11-3C37.5,200.5,36.8,200.7,30.2,198z"/>
	<path fill="#236A9F" d="M44.2,195c0.7-3.2,3.3-1.5,5-2c1,0.4,1.6,1,2,2C48.9,195.7,46.5,197.9,44.2,195z"/>
	<path fill="#236A9F" d="M102.2,126c1.8-3.8,4.3-6.9,8-9.1c-1.6,2.3-1.6,4.5,0.4,6.7c0.6,0.6,1.6,1.4,0.7,2.5c-0.8,1-1.8,0.5-2.6,0
		C106.5,124.9,104.4,124.6,102.2,126z"/>
	<path fill="#236A9F" d="M147.2,75.9c10.4-0.1,20.9-0.1,31.3-0.3c3.8-0.1,3.5,1.9,2.8,4.4c-0.4,0.5-0.7,0.5-1.1,0
		c-2.9-1.9-6.1-0.9-9.2-0.9c-7.3,0.1-14.6-1-21.8,0.8c-0.8,0.2-1.6-0.2-2.2-0.9C145.5,78,145.9,76.9,147.2,75.9z"/>
	<path fill="#236A9F" d="M180.2,79.9c0.4,0,0.7,0,1.1,0c0.2,9.8,0.3,19.6,0.5,29.3c0,1.9-0.5,4.2,2.4,4.6c0.2,2.6,1.9,3.1,4.1,3.1
		c2,0,3.9,0,5.9,0c-0.6,1.1-1.4,1.8-2.7,1.9c-4.2,0.2-8.5-0.7-12.8,1.4c3.7-3.4,1.5-7.1,1.5-10.5C180.2,99.9,180.2,89.9,180.2,79.9z
		"/>
	<path fill="#236A9F" d="M147.2,75.9c-0.6,1-0.6,2.1,0,3.1c-4.3-0.4-5.9-2.4-5.5-7c0.4-5-2.1-10.3,1.4-15c1.4,4.8,0.2,9.7,0.7,14.5
		c0.1,1.5-1,3.3,0.9,4.4C145.5,75.9,146.3,75.9,147.2,75.9z"/>
	<path fill="#236A9F" d="M180.2,56c-11.7,0-23.3,0-35,0c1.1-1.4,2.7-1,4.1-1c8.9,0,17.8,0,26.7,0C177.5,55,179.1,54.6,180.2,56z"/>
	<path fill="#236A9F" d="M175.7,114.5c-0.6-0.5-1-0.7-1-0.9c-0.5-2.3-1.1-4.7,0.4-6.9c0.1-0.1,1.1,0.1,1.2,0.3
		C177.9,109.4,177.5,111.9,175.7,114.5z"/>
	<path fill="#236A9F" d="M144.7,75.9c-2.1-0.8-1.4-2.7-1.5-4.2c-0.1-4.9-0.1-9.8-0.1-14.6c0.5-0.3,0.9-0.7,1.4-1
		C143.5,62.7,143.2,69.3,144.7,75.9z"/>
	<path fill="#236A9F" d="M175.2,49.1c2-1.1,3.6-1.5,4.6,0.5c0.4,0.8-0.1,1.7-0.9,2C176.7,52.1,176.2,50.2,175.2,49.1z"/>
	<path fill="#236A9F" d="M201.1,113c0-12,0.1-24,0.1-36c0.3,0.7,0.9,1.4,0.9,2.2c0.1,10.4,0.1,20.8,0.1,31.2
		C202.2,111.4,202.1,112.4,201.1,113z"/>
	<path fill="#236A9F" d="M86.3,66.9c-0.3,0.3-0.4,2.3-1.1,0.5c-2.9-7.3-7-14-12.3-19.7C63,36.8,48.9,29.5,32.3,34.3
		c-5.9,1.7-10.6,6.1-14.6,10.9C17,46.1,16.5,47,16.2,45c8.8-15.3,26.3-20.3,42.2-11.8C72.2,40.6,81.2,52.2,86.3,66.9z"/>
	<path fill="#FFFFFF" d="M5.3,83.5c0.8,2.7,2.5,4.1,1.2,5.9c-0.7,0.9-1.9,0.5-2.5-0.4C2.5,87.2,3.9,85.8,5.3,83.5z"/>
	<path fill="#FFFFFF" d="M93.9,121.5c-0.1,1.2-0.4,1.9-1.1,1.8c-1.5-0.2-3.3-0.1-4.1-1.9c-0.3-0.6,0.2-1.4,1-1.2
		C91.1,120.5,92.6,121.1,93.9,121.5z"/>
	<rect x="143.8" y="56" fill="#FFFFFF" width="95.4" height="20.3"/>
	<polygon fill="#FFFFFF" points="76.3,17.1 75.6,31.5 122.9,31.3 141.1,16.9 	"/>
	<rect x="181.3" y="18.4" fill="#FFFFFF" width="20.3" height="95.4"/>
	
		<ellipse transform="matrix(-0.9341 0.357 -0.357 -0.9341 124.1628 139.4702)" fill="#236A9F" cx="49.2" cy="81.2" rx="41.9" ry="54"/>
</g>
<ellipse transform="matrix(-0.9888 0.1495 -0.1495 -0.9888 152.4993 309.9865)" fill="#FFFFFF" cx="64.6" cy="160.7" rx="16" ry="25.6"/>
<path fill="#FFFFFF" d="M117.3,79.6c0,32.9-52.5,57.2-47.8,57.4c22.2,1.1,53.6-25.6,53.6-58.5S93.5,19.3,58.3,19
	C22.6,18.7,117.3,46.7,117.3,79.6z"/>
<ellipse fill="#236A9F" cx="106" cy="148.9" rx="25.4" ry="22.1"/>
<ellipse fill="#236A9F" cx="49.4" cy="218.8" rx="48.4" ry="28.4"/>
</svg>
