<?xml version="1.0" encoding="utf-8"?>
<!-- Generator: Adobe Illustrator 18.1.0, SVG Export Plug-In . SVG Version: 6.00 Build 0)  -->
<!DOCTYPE svg PUBLIC "-//W3C//DTD SVG 1.1//EN" "http://www.w3.org/Graphics/SVG/1.1/DTD/svg11.dtd">
<svg version="1.1" id="Layer_1" xmlns="http://www.w3.org/2000/svg" xmlns:xlink="http://www.w3.org/1999/xlink" x="0px" y="0px"
	 viewBox="0 0 532.9 530.3" enable-background="new 0 0 532.9 530.3" xml:space="preserve">
<g>
	<path fill="#007AB5" d="M0,499.5C0,343.3,0,187,0,30.8c1.2-4.4,1-9.2,3.9-13.1c6.4-8.4,13.2-16.1,24.7-17c0.7-0.1,1.5-0.1,2.1-0.6
		C187,0,343.3,0,499.5,0c5.7,1.2,11.5,1.7,16.4,5.7c10.5,8.6,17,18.8,17,33c-0.1,151-0.1,302,0,452.9c0,16.3-8.1,27.3-21.1,35.6
		c-3.7,2.4-8.2,1.8-12.2,3.1c-156.3,0-312.5,0-468.8,0c-4.1-1.4-8.6-1.1-12.4-3.7C8.6,520,0.9,512.1,0,499.5z"/>
	<path fill="#FEFEFE" d="M30.8,0c-0.2,1.1-1.2,1.1-2,1.3C14.6,5.6,5.2,14.7,1.1,29C0.9,29.7,1,30.5,0,30.8c0-9.6,0-19.3,0-28.9
		C0,0.3,0.3,0,1.9,0C11.5,0.1,21.2,0,30.8,0z"/>
	<path fill="#FEFEFE" d="M0,499.5c1.1,0.3,1,1.4,1.2,2.1c4.1,14,13.3,22.9,27.2,27.2c0.9,0.3,2.1,0.1,2.4,1.4c-9.6,0-19.3,0-28.9,0
		c-1.6,0-1.9-0.3-1.9-1.9C0.1,518.8,0,509.2,0,499.5z"/>
	<path fill="#FEFEFE" d="M374.5,452.2c-1.3-1.2-0.8-2.8-0.8-4.3c0-42.6,0-85.2,0-127.8c0-10.6-0.7-21.2-3.8-31.5
		c-5.1-17-16.1-25.7-33.9-26.7c-5.1-0.3-10.3,0.1-15.3,1c-16.8,3.3-26.5,13.9-31.2,29.9c-3.5,12.1-3.9,24.6-3.9,37.1
		c0,39.4,0,78.7,0,118.1c0,1.4,0.7,3-0.9,4.2c-0.7,0.8-1.6,0.5-2.5,0.5c-24,0-47.9,0-71.9,0c-0.8,0-1.8,0.3-2.5-0.5
		c-1.5-0.8-1-2.2-1-3.3c0-82.2,0-164.5-0.1-246.7c0-2.5,0.5-3.4,3.3-3.4c23.1,0.1,46.2,0.1,69.4,0c2.5,0,3.2,0.7,3.1,3.2
		c-0.1,10.3-0.1,20.7-0.1,31c1.1,0.4,1.3-0.3,1.6-0.8c15.4-25.2,38.6-37.3,67.4-39.2c18.4-1.3,36.5,0.7,53.6,8.3
		c21.6,9.6,33.7,27,40.3,49c5,16.8,6.9,34,6.9,51.5c0.2,49,0.2,98,0.2,147c0,1.2,0.3,2.5-0.6,3.6c-0.8,0.9-1.9,0.5-2.8,0.5
		c-23.9,0-47.9,0-71.8,0C376.4,452.7,375.4,453,374.5,452.2z"/>
	<path fill="#FEFEFE" d="M79.7,452.2c-1.5-0.7-1-2.1-1-3.3c0-82.3,0-164.6-0.1-247c0-2.8,1-3.2,3.5-3.2c24,0.1,48,0.1,72,0
		c3,0,3.7,0.8,3.7,3.7c-0.1,28.2-0.1,56.5-0.1,84.7c0,53.6,0,107.2,0,160.8c0,1.4-0.1,2.7-0.2,4.1c-0.5,1.1-1.5,0.6-2.3,0.7
		c-24.3,0-48.6,0-72.9,0C81.4,452.7,80.5,452.9,79.7,452.2z"/>
	<path fill="#FEFEFE" d="M72.5,118.7c0-25.4,20.4-45.8,45.7-45.8c25.1,0,45.6,20.4,45.7,45.5c0.1,25.3-20.4,45.9-45.6,45.9
		C92.8,164.3,72.5,144.1,72.5,118.7z"/>
	<path fill="#0073B1" d="M77.5,450.1c0-83.3,0-166.6,0-249.9c0.1,0,0.2,0,0.4,0c0,83.3,0,166.5,0,249.8
		C77.7,450,77.6,450.1,77.5,450.1z"/>
	<path fill="#0070AF" d="M374.5,452.2c10.2-0.1,20.5-0.2,30.7-0.2c15.6,0,31.2,0.1,46.8,0.2c-0.5,1.7-1.9,0.9-2.8,0.9
		c-24,0.1-48,0.1-71.9,0C376.4,453,375,453.8,374.5,452.2z"/>
	<path fill="#0075B1" d="M80.3,197.5c25.3,0,50.6,0,75.8,0c0,0.1,0,0.2,0,0.4c-25.3,0-50.6,0-75.9,0
		C80.3,197.7,80.3,197.6,80.3,197.5z"/>
	<path fill="#0070AF" d="M79.7,452.2c5.6-0.1,11.2-0.2,16.8-0.2c20.3,0,40.6,0,60.9,0c-1,1.2-2.5,1-3.8,1c-23.7,0-47.4,0-71.1,0
		C81.6,453,80.3,453.8,79.7,452.2z"/>
	<path fill="#0070AF" d="M208,452.2c6.6-0.1,13.2-0.2,19.8-0.2c19,0,38.1,0.1,57.1,0.2c-0.5,1.6-1.9,0.8-2.8,0.8
		c-23.7,0.1-47.5,0.1-71.2,0C209.9,453,208.5,453.8,208,452.2z"/>
	<path fill="#0075B1" d="M208.5,197.5c24.3,0,48.6,0,72.9,0c0,0.1,0,0.2,0,0.4c-24.3,0-48.5,0-72.8,0
		C208.6,197.7,208.5,197.6,208.5,197.5z"/>
</g>
</svg>
