<?xml version="1.0" encoding="utf-8"?>
<!-- Generator: Adobe Illustrator 18.1.0, SVG Export Plug-In . SVG Version: 6.00 Build 0)  -->
<!DOCTYPE svg PUBLIC "-//W3C//DTD SVG 1.1//EN" "http://www.w3.org/Graphics/SVG/1.1/DTD/svg11.dtd">
<svg version="1.1" id="Layer_1" xmlns="http://www.w3.org/2000/svg" xmlns:xlink="http://www.w3.org/1999/xlink" x="0px" y="0px"
	 viewBox="0 0 635.6 516.3" enable-background="new 0 0 635.6 516.3" xml:space="preserve">
<g>
	<path fill="#00ABEC" d="M432.7,0.3c4.9,0,9.7,0,14.6,0c0.3,0.4,0.8,0.3,1.2,0.3c4.2,0.2,8.3,0.7,12.4,1.4
		c27.5,4.6,51.3,16.7,71.1,36.4c2.4,2.4,4.4,2.9,7.7,2.2c27-6,52.5-15.8,76.5-29.8c0.4-0.2,0.8-0.6,1.6-0.6
		c-10.3,30.6-29.1,54.2-56.1,71.4C587,78.7,611.3,72,634.7,62c-0.2,0.6-0.6,1.1-0.9,1.6c-17,24.9-37.6,46.2-61.9,64
		c-1.1,0.8-1.5,1.6-1.4,3c0.8,19.4,0,38.7-2.4,58c-2.3,18.7-5.9,37-11,55.1c-14.5,51.7-38.3,98.7-72.2,140.4
		C443,435.5,391.1,472.7,328.5,495c-30,10.7-60.9,17-92.6,19.8c-17.9,1.6-35.7,1.5-53.6,1c-19.7-0.5-39.2-3.3-58.5-7.4
		c-40.2-8.4-77.8-23.3-113.1-44.2c-3.3-2-6.5-4-9.8-6c71.1,6.9,135-10.8,191.9-54c-0.6-0.7-1.1-0.5-1.5-0.5
		c-5.3-0.1-10.6-0.6-15.8-1.4c-24.5-3.9-46.2-13.9-65-30.2c-18-15.5-30.7-34.6-38.4-57.1c-0.6-1.8-0.6-1.8,1.3-1.4
		c4.5,0.8,9,1.4,13.5,1.7c11.7,0.9,23.4,0.1,34.9-2.2c2.7-0.5,5.4-1,8.2-2c-0.3-0.1-0.4-0.2-0.5-0.2c-30.2-6.5-55.2-21.7-74.6-45.7
		c-19.2-23.8-28.8-51.2-28.9-81.8c0-0.9-0.2-1.8,1.3-1c15.2,8.2,31.4,13.2,48.6,15c2.8,0.3,5.6,0.6,8.8,0.5
		c-28.1-19.7-46.6-45.7-54.2-79C22.7,85.6,27.7,54,44.5,24.1c2,2.3,3.8,4.5,5.6,6.7c1.9,2.2,3.8,4.4,5.8,6.6
		c43.4,48.1,95.6,82.8,156.8,103.8c21.4,7.4,43.4,12.6,65.9,15.8c10.8,1.5,21.6,2.6,32.5,3.2c2,0.1,2,0.2,1.6-1.8
		c-3.8-17.4-4.2-34.9-0.6-52.3c8-39.3,29.6-69,64.2-89.1c15-8.7,31.4-13.8,48.6-15.8C427.5,0.9,430.2,0.9,432.7,0.3z M561.2,81.8
		L561.2,81.8L561.2,81.8L561.2,81.8z"/>
	<path fill="#FEFEFE" d="M432.7,0.3c-2.6,0.6-5.2,0.6-7.8,0.9c-17.3,2-33.6,7.1-48.6,15.8c-34.6,20.1-56.2,49.8-64.2,89.1
		c-3.5,17.4-3.2,34.9,0.6,52.3c0.4,1.9,0.4,1.9-1.6,1.8c-10.9-0.6-21.7-1.7-32.5-3.2c-22.4-3.2-44.4-8.4-65.9-15.8
		c-61.3-21-113.5-55.7-156.8-103.8C54,35.2,52,33,50.1,30.8c-1.9-2.2-3.7-4.4-5.6-6.7C27.7,54,22.7,85.6,30.3,118.8
		c7.6,33.2,26.1,59.3,54.2,79c-3.1,0.2-5.9-0.2-8.8-0.5c-17.2-1.8-33.4-6.8-48.6-15c-1.5-0.8-1.3,0.1-1.3,1
		c0.2,30.6,9.7,58,28.9,81.8c19.4,24,44.4,39.2,74.6,45.7c0.1,0,0.2,0.1,0.5,0.2c-2.8,1-5.5,1.5-8.2,2c-11.5,2.3-23.2,3.1-34.9,2.2
		c-4.5-0.3-9-0.9-13.5-1.7c-1.8-0.3-1.9-0.3-1.3,1.4c7.7,22.5,20.5,41.5,38.4,57.1c18.8,16.2,40.5,26.2,65,30.2
		c5.2,0.8,10.5,1.3,15.8,1.4c0.4,0,1-0.1,1.5,0.5C135.9,447.3,72,465,0.9,458.1c3.3,2,6.5,4.1,9.8,6c35.3,21,73,35.8,113.1,44.2
		c19.3,4.1,38.8,6.9,58.5,7.4c17.9,0.5,35.7,0.6,53.6-1c31.7-2.8,62.6-9.1,92.6-19.8c62.5-22.2,114.5-59.5,156.3-110.9
		c33.9-41.7,57.7-88.7,72.2-140.4c5.1-18.1,8.7-36.5,11-55.1c2.4-19.3,3.1-38.6,2.4-58c-0.1-1.4,0.3-2.2,1.4-3
		c24.3-17.8,44.9-39.1,61.9-64c0.3-0.5,0.6-1,0.9-1.6c-23.4,10-47.7,16.7-73.1,19.6c27-17.2,45.9-40.8,56.1-71.4
		c-0.8,0-1.2,0.3-1.6,0.6c-23.9,13.9-49.4,23.8-76.5,29.8c-3.2,0.7-5.2,0.2-7.7-2.2C512.2,18.7,488.5,6.6,461,2
		c-4.1-0.7-8.3-1.2-12.4-1.4c-0.4,0-0.9,0.1-1.2-0.3c62.3,0,124.6,0,186.8,0c1.2,0,1.5,0.3,1.5,1.5c0,171,0,342,0,513.1
		c0,1.2-0.3,1.5-1.5,1.5c-210.8,0-421.6,0-632.4,0c-1.2,0-1.5-0.3-1.5-1.5c0-171,0-342,0-513.1c0-1.2,0.3-1.5,1.5-1.5
		C145.4,0.3,289.1,0.3,432.7,0.3z"/>
	<polygon fill="#FEFEFE" points="561.2,81.8 561.1,81.7 561.2,81.7 	"/>
</g>
</svg>
