<?xml version="1.0" encoding="utf-8"?>
<!-- Generator: Adobe Illustrator 18.1.0, SVG Export Plug-In . SVG Version: 6.00 Build 0)  -->
<!DOCTYPE svg PUBLIC "-//W3C//DTD SVG 1.1//EN" "http://www.w3.org/Graphics/SVG/1.1/DTD/svg11.dtd">
<svg version="1.1" id="Layer_1" xmlns="http://www.w3.org/2000/svg" xmlns:xlink="http://www.w3.org/1999/xlink" x="0px" y="0px"
	 viewBox="0 0 614.7 257.4" enable-background="new 0 0 614.7 257.4" xml:space="preserve">
<g>
	<path fill="#8E8E8E" d="M206.1,208.2c-0.2-0.2-0.3-0.4-0.5-0.5c-0.3-3.9-0.3-7.9,0-11.8c1.7,0.2,1.3,1.6,1.4,2.5
		c0.2,2,0.1,4.1,0.1,6.1c0,1.5,0.7,2.2,2.2,2.2c5.5,0,10.9,0,16.4,0c1.6,0,2.3-0.8,2.3-2.4c0-0.8,0-1.5,0-2.3c0-37.2,0-74.5,0-111.7
		c0-5.2,0-5.2-5.2-5.2c-4.2,0-8.3,0-12.5,0c-2.7,0-3,0.4-3.1,3.1c-0.1,2.2,0,4.4,0,6.6c0,26.4,0,52.8,0,79.2c0,6.2-6.8,14.7-12.9,16
		c-3.6,0.8-6.7-1.2-7.4-4.8c-0.2-1-0.2-2-0.2-3.1c0-31.4,0-62.9,0-94.3c0-0.8,0-1.5,0.1-2.3c0.1-0.5,0.3-1,0.7-1.3
		c1.1,0.7,0.6,1.9,0.6,2.8c0,31.6,0,63.2,0,94.8c0,1.6,0.2,3,0.9,4.4c1,2.1,2.7,2.7,4.8,2.2c5.8-1.4,8.6-6.3,11.9-10.6
		c0.4-0.6,0.2-1.7,0.2-2.5c0-29.4,0-58.8,0-88.1c0-3.4,0-3.4,3.3-3.4c6,0,11.9,0.1,17.9,0c1.9,0,2.7,0.5,2.7,2.6
		c0,39.8,0,79.5,0,119.3c0,0.8,0.2,1.7-0.6,2.4C221.3,208.4,213.7,208.5,206.1,208.2z"/>
	<path fill="#E39EA1" d="M509.3,256.1c-6.6,0.2-13.2,0.3-19.9,0.5c-35.8,1.3-71.6,0.6-107.4,0.4c-12-0.1-23.9-0.6-35.9-1
		c-11-0.3-22.1-0.9-33.1-1.5c-5.1-0.3-10.3-0.5-15.4-1.9c-0.1-0.4-0.1-0.6,0.3-0.8c1-0.5,2.2-0.5,3.2-0.4c13.4,1.8,26.9,2,40.5,2.6
		c12.3,0.6,24.7,0.6,37,1c10,0.3,20.1,0.9,30.1,0.9c16.1,0,32.2,0,48.3,0c15.9,0.1,31.8-1.4,47.7-1c1.4,0,2.9-0.2,4.3,0.5
		C509.4,255.5,509.5,255.7,509.3,256.1z"/>
	<path fill="#6B6B6B" d="M57,137c-0.1,0.1-0.1,0.3-0.1,0.4c-0.4,1,0,2.3-1,3.1l0,0c-0.4,0.9-0.2,1.8-0.2,2.8c0,20.7,0,41.3,0,62
		c0,0.9,0.4,1.9-0.3,2.7c-7.7,0.5-15.5,0.1-23.2,0.2c-1.1,0-1.5-0.6-1.5-1.6c0-0.7,0-1.4,0-2c0-18.6-0.2-37.1,0.1-55.7
		c0.1-5.9-1.2-11.4-3-16.9c-0.6-1.8-1.2-3.5-1.8-5.3c-0.4-0.9-0.5-1.8,0-2.6c0.3-0.1,0.6,0,0.8,0.3c2.6,7.2,5.6,14.2,5.6,22.1
		c-0.1,18.6,0,37.3,0,55.9c0,4.3,0,4.3,4.4,4.3c4.7,0,9.4,0,14,0c3.3,0,3.4-0.2,3.4-3.5c0-19.9-0.1-39.8,0.1-59.7
		c0-5.2,1.8-10.1,4.3-14.7c0.7-0.2,0.7,0.3,0.7,0.7c0.3,1.8-1,3.2-1.3,4.9l0,0C57.6,135.3,57.6,136.3,57,137z"/>
	<path fill="#F6C4C3" d="M346.3,2.1c0.9-1.1,2.1-1,3.3-1c16.2,0,32.3-0.2,48.4-0.7c19.9-0.5,39.8-0.5,59.7-0.2
		c11.5,0.1,23.1-0.1,34.6,0.5c6.5,0.3,13.1,0.2,19.6,0.4c1.3,0,2.5,0.2,3.6,1c-0.8,0.9-1.8,0.8-2.8,0.8c-6.8,0-13.5-0.4-20.3-0.9
		c-3.7-0.3-7.5-0.1-11.2-0.1c-6.5,0-12.9,0-19.4,0c-25.9,0-51.8-0.2-77.7,0.1c-8.3,0.1-16.7,0.1-25,0.5c-3.3,0.2-6.6,0.4-9.9,0.4
		C348.2,2.8,347.1,2.9,346.3,2.1z"/>
	<path fill="#F5CBCA" d="M607.6,42.4c2.3,7.3,3.5,14.7,4.1,22.3c0.4,5.3,0.4,10.7,1.1,15.9c1.1,7.8,1,15.7,1.3,23.5
		c0.6,12.3,0.6,24.6,0.4,37c-0.1,10.6-0.2,21.2-1.1,31.8c-0.8,9.1-1.1,18.2-2.4,27.3c-0.1,0.9-0.3,1.7-1,2.3c-1-0.9-0.7-2-0.6-3
		c0.8-2.7,0.9-5.5,0.8-8.4c-0.2-4,1.3-7.9,1-11.9c0.7-7.1,0.5-14.2,1.5-21.3c0.1-0.9,0.1-1.9,0.1-2.8c0-17.5,0.2-34.9-0.1-52.4
		c-0.1-7-1-14.1-1.3-21.1c-0.2-5.2-1-10.3-1.2-15.5c-0.2-3.6-0.9-7.2-1.2-10.9c-0.1-0.3-0.1-0.6-0.2-0.9c-0.1-2.7-1-5.3-1.6-7.9
		c-0.3-1.2-0.7-2.3-0.3-3.5C607.2,42.7,607.3,42.5,607.6,42.4z"/>
	<path fill="#E9615D" d="M346.3,2.1c17.9-0.3,35.8-1.1,53.8-1c20.6,0,41.2,0,61.8,0.1c0.1,0.4,0,0.6-0.3,0.8
		c-1.4,0.7-2.8,0.5-4.3,0.5c-22.9,0-45.8-0.2-68.7,0.1c-15.5,0.2-31,0.4-46.4,1.2c-11.6,0.6-23.3,0.8-34.9,2
		c-6.6,0.7-13.2,0.8-19.6,2.7c-2.4,0.7-4.7,1.4-6.9,2.6c-0.8,0.5-1.7,0.9-2.7,0.7c-0.5-0.2-1.2-0.4-0.4-1.1c0.8-0.7,1.8-1,2.8-1.3
		c2.4-1.7,5.3-2.1,8-2.9c2.5-0.8,5.1-1.4,7.7-1.5c6-0.2,11.8-1.2,17.8-1.4C324.7,3.1,335.5,2.1,346.3,2.1z"/>
	<path fill="#323232" d="M187.2,84.5c0,0.3,0,0.6,0,1c-3.7,0.6-7.5,0.1-11.2,0.3c-2.6,0.1-5.3,0-7.9,0c-1.7,0-2.6,0.6-2.5,2.4
		c0,0.6,0,1.2,0,1.8c0,31.8,0,63.7,0,95.5c0,4.7,0.6,9.3,2.3,13.7c2.6,6.6,7.2,9.5,14.3,9.2c1.1,0,2.2-0.4,3.3,0.1
		c-0.2,1.3-0.6,1.6-2.4,1.7c-3.5,0.2-7-0.3-10.1-2c-6.5-3.7-7.6-10.2-8.6-16.7c-0.3-1.6-0.2-3.2-0.2-4.8c0-33,0-66.1,0-99.1
		c0-1-0.5-2.2,0.6-3.1C172.3,84.1,179.8,83.9,187.2,84.5L187.2,84.5z"/>
	<path fill="#EEB8B8" d="M250.7,199.4c-1.4-9.1-1.7-18.3-2.5-27.4c-0.3-3.8-0.4-7.6-0.6-11.4c-0.4-0.6-0.2-1.3-0.2-2c0-20,0-40,0-60
		c0-0.7-0.1-1.4,0.2-2l0,0c0.8-2-0.2-4.1,0.5-6.1l0,0c0.2,0,0.3-0.1,0.5-0.1c0.3,0.2,0.4,0.5,0.6,0.8c0.2,5,0.5,10-0.2,15
		c-0.2,1-0.1,2-0.1,3.1c0,13.1-0.2,26.2,0.1,39.2c0.2,6.7,0.3,13.4,0.4,20.1c0,0.7,0.2,1.3,0.3,2c0.2,5.5,1.3,10.9,1.2,16.4
		c-0.2,2.6,0.3,5.2,0.8,7.7c0.3,1.5,0.5,3-0.1,4.5C251.3,199.5,251.1,199.5,250.7,199.4z"/>
	<path fill="#C5C5C5" d="M134.1,89c3.6,1.7,5.9,4.8,7.8,8c3.6,6.1,5.5,12.9,5.6,20c0,20.7,0.1,41.3-0.1,62c0,3.7-0.7,7.4-2.5,10.7
		c-1.4-1.7,0.5-3.2,0.3-4.9c0.3-3,1.4-6,1-9.1c0-18.9,0.1-37.7-0.1-56.6c-0.1-7.6-1.9-14.8-5.7-21.5c-1.5-2.7-3.8-4.8-5.9-7
		C134.1,90.2,133.9,89.7,134.1,89z"/>
	<path fill="#5F5F5F" d="M84.5,191.7c-2.5-4.3-3.4-9.1-3.5-13.9c-0.3-17.2-0.2-34.3-0.2-51.5c0-5.7-0.2-11.4,1.1-17
		c0.4-1.6,0.8-3.1,1.4-4.6c0.1,0.1,0.2,0.2,0.3,0.3c0.7,2.4-0.9,4.6-0.7,7c-0.4,2-1,3.9-0.7,6c0,18,0,35.9,0,53.9
		c0,5.7,0.9,11.3,2.5,16.8c0.3,0.9,0.7,1.8,0.4,2.7C85.1,191.8,84.9,191.9,84.5,191.7z"/>
	<path fill="#EC7A76" d="M562.6,4.6c8.4,0.5,16.3,2.7,23.5,7.2c0.2,0.3,0.1,0.6-0.2,0.7c-1,0.3-1.8-0.2-2.7-0.6
		c-8.3-4.2-17.2-6.1-26.5-6.1c-4.7,0-9.3-0.8-14-1.1c-5.7-0.3-11.4-0.3-17-0.9c-1.1-0.1-2.2,0.1-3-0.9c0-0.4,0.2-0.6,0.5-0.6
		C536.3,2.6,549.5,3.1,562.6,4.6z"/>
	<path fill="#A5A5A5" d="M50.1,78.6c0.4-4.1,1.9-7.9,2.8-11.8c1-4.2,2.2-8.3,3.3-12.4c0.9-3.5,1.8-7,2.7-10.5
		c0.3-1.1,1.1-1.5,2.1-1.5c8,0,16,0,24,0c0.4,0,0.8,0.2,1,0.6c-0.2,0.2-0.5,0.4-0.7,0.5c-4.6,0.5-9.2,0.1-13.8,0.2
		c-2.5,0.1-4.9,0.1-7.4,0c-2.4-0.1-3.6,0.8-4.2,3.1c-2.5,9.7-5.2,19.4-7.6,29.1c-0.2,0.8-0.4,1.6-0.9,2.4c-0.2,0.2-0.4,0.4-0.6,0.6
		C50.6,79,50.3,78.9,50.1,78.6z"/>
	<path fill="#EC7A76" d="M461.9,1.5c0-0.1,0-0.3,0-0.4c10,0,20.1-0.2,30.1,0.1c7.9,0.2,15.7,1,23.6,0.8c2.4,0,4.7,0.1,7.1,0.1
		l0.2,0.1l-0.1,0.2c-0.1,0.1-0.1,0.1-0.2,0.2c-1,0.9-2.2,0.7-3.4,0.7c-12.1,0.3-24.1-0.1-36.2-0.6c-5.9-0.3-11.7-0.3-17.6-0.4
		C464.2,2.4,462.9,2.6,461.9,1.5z"/>
	<path fill="#ECBFC1" d="M584,247.4c-5,2.6-10.3,4.5-16,5.2c-11.7,1.5-23.4,2.5-35.1,2.4c-0.1-0.3-0.1-0.6,0.2-0.8
		c2.5-0.8,5-0.7,7.5-0.9c9-0.9,18.1-0.9,27.1-2.2c1.9-0.3,3.6-0.8,5.5-1.2c2.9-0.5,5.7-1.5,8.3-2.7c0.8-0.3,1.5-0.9,2.4-0.5
		C584.2,246.9,584.2,247.2,584,247.4z"/>
	<path fill="#F5C2C0" d="M280.4,9.3c-1,0.7-2.1,1.3-3.1,2c-0.1,0.7-0.7,1.2-1.3,1.5c-11.3,6.7-17,17.2-20.5,29.4
		c-0.3,1.1-0.5,2.2-1.5,2.9c-0.2,0.1-0.5,0.1-0.7,0c0-3.4,1.7-6.3,2.8-9.4c2.1-5.9,4.9-11.5,9.3-16c3.7-3.8,7.7-7.3,12.6-9.7
		C278.8,9.5,279.5,9.1,280.4,9.3z"/>
	<path fill="#565656" d="M134.1,89c0.2,0.3,0.3,0.7,0.5,1c-1.2,0.7-2.1-0.2-3-0.7c-11.5-6.4-23-6.3-34.7-0.5c-0.8,0.4-1.6,0.9-2.6,1
		c-0.3,0-0.5-0.2-0.7-0.4c4-3.8,9.1-5.3,14.3-6c4.8-0.7,9.7-0.7,14.5,0.5c2,0.2,3.8,0.9,5.6,1.6l0,0c0.7,0.3,1.5,0.4,2.1,1l0,0
		C131.6,87,132.8,88.1,134.1,89L134.1,89z"/>
	<path fill="#CACACA" d="M55.3,208c0-1,0.1-2,0.1-3.1c0-20.5,0-41,0-61.5c0-1-0.4-2,0.4-2.9c0,21.8,0,43.6,0,65.4
		C55.9,206.7,56.2,207.6,55.3,208z"/>
	<path fill="#F4C8C7" d="M247.6,96.6c0,21.3,0,42.6,0,64c-0.7-0.8-0.5-1.8-0.5-2.7c0-19.5,0-39.1,0-58.6
		C247.1,98.4,246.8,97.4,247.6,96.6z"/>
	<path fill="#F0AEAD" d="M253.3,45c0.2,0,0.3,0,0.5,0c0.8,0.9,0.7,1.9,0.4,2.8c-1,3.3-1.3,6.7-2,10.1c-0.7,10.5-2.3,20.9-2.5,31.4
		c0,0.3-0.1,0.6-0.3,0.9c-0.2,0.3-0.5,0.4-0.8,0.3l-0.2-0.1c-0.2-3.2-0.3-6.5,0.1-9.7c0-0.3,0-0.6,0.1-1c0.7-2.4-0.3-4.9,0.9-7.2
		c0-2,0.1-4,0.1-6.1c0.3-2.1,0.6-4.1,0.9-6.2C250.6,55,252.1,50.1,253.3,45z"/>
	<path fill="#F6C4C2" d="M586,12.3c0-0.2,0-0.4,0-0.6c2.9,0.7,4.8,3,7,4.8c5.9,4.8,9.4,11.4,12.2,18.4c1,2.4,1.6,4.9,2.4,7.4
		c-0.1,0.3-0.1,0.5-0.2,0.8c-1.3-0.3-1.1-1.7-1.7-2.5c-0.1-0.2-0.2-0.4-0.2-0.7c-0.7-2.3-1.3-4.6-2.4-6.6
		c-3.4-8.1-8.6-14.6-15.8-19.6C586.7,13.5,585.9,13.2,586,12.3z"/>
	<path fill="#878787" d="M1.2,46.6c-1.3-0.8-1.4-2.2-1-3.4c0.4-1.2,1.8-0.7,2.7-0.7c7,0,14,0,20.9-0.1c2.2,0,3.2,0.8,3.5,3
		c0.5,3.5,2.2,6.8,2.6,10.3c0.2,0.4,0.2,0.7,0,1.1c-0.2,0.1-0.5,0.1-0.7,0c-0.2-0.2-0.3-0.4-0.4-0.7c-0.4-1.8-1.1-3.6-1.5-5.5
		c-1.3-2.1-0.6-4.9-2.6-6.7c-1.5-0.6-3-0.3-4.5-0.3c-4.8,0-9.5,0.1-14.3-0.1C3.5,43.6,1.5,43.6,1.2,46.6z"/>
	<path fill="#BCBCBC" d="M29.8,56.9c0.1-0.4,0.1-0.8,0.2-1.2c1.7,2.2,1.6,4.9,2.4,7.4c1.4,4,2.4,8.2,3.3,12.4c0.9,4.3,3,8.4,3,13
		c-0.3,0.2-0.5,0.1-0.7-0.1c-1.7-3-2-6.4-3-9.6c-1-4.3-1.9-8.6-3.4-12.8c-0.4-2.3-1.2-4.4-1.6-6.7C29.7,58.5,29.2,57.7,29.8,56.9z"
		/>
	<path fill="#444444" d="M12.4,81.9c-2-5-3.4-10.3-5-15.5C6,62,4.6,57.5,3.2,53.1c-0.3-0.8-0.7-1.5-0.5-2.4c0.2-0.2,0.5-0.2,0.8-0.1
		C5,52.3,5,54.5,5.7,56.5c2.4,7.6,4.9,15.1,7.4,22.6c0.3,0.9,0.6,1.8,0,2.7C12.9,82,12.7,82,12.4,81.9z"/>
	<path fill="#F5BBB9" d="M522.8,2.5c-0.1-0.1-0.1-0.2-0.1-0.3c7-0.2,14,0,21.1,0.9c4.3,0.5,8.6,0.1,13,0.6c2,0.2,4.1,0,5.9,1
		c-6.3,0-12.5-1.1-18.7-1.1C536.8,3.5,529.8,2.8,522.8,2.5z"/>
	<path fill="#A4A4A4" d="M127,208.1c-2.6,1.9-5.6,2.2-8.6,2.6c-7.4,0.9-14.4-0.6-21-3.9c-0.4-0.2-0.7-0.5-1-0.8
		c-0.5-0.3-1.1-0.6-0.3-1.2c1.1-0.3,2,0.4,2.8,0.9c5.2,2.6,10.6,3.8,16.4,3.8c2.1,0,4-0.9,6-1c1.1,0,2.1-0.1,3.1-0.5
		C125.3,207.5,126.2,207.3,127,208.1z"/>
	<path fill="#CB4C4F" d="M599,233.8c-0.1,0.1-0.1,0.3-0.2,0.4c-1.4,2.2-3.2,4-5.1,5.8c-0.6,0.5-1.1,1.4-2.1,1
		c-0.2-0.2-0.3-0.4-0.3-0.7c0.6-2.2,2.6-3.3,4.1-4.7c4.1-4.5,6.3-9.9,8.4-15.5c0.5-1.2,0.4-2.9,2.2-3.4c0.2,0.3,0.2,0.7,0.2,1.1
		c-0.6,3.8-2.4,7.1-4,10.5C601.3,230.2,600.5,232.2,599,233.8z"/>
	<path fill="#CECECE" d="M72.9,86.5c-0.4,3.7-2.1,7.1-3,10.7c-1.3,4.9-3.2,9.5-4.4,14.4c-0.2,1-0.9,2-1.3,3
		c-0.2-0.1-0.4-0.3-0.5-0.6c0-2.8,1.3-5.2,1.9-7.8c0.1-0.3,0.1-0.5,0.2-0.7c1.8-5.1,3.2-10.4,4.9-15.5c0.4-1.2,0.7-2.5,1.5-3.5
		C72.5,86.3,72.7,86.3,72.9,86.5z"/>
	<path fill="#2C2C2C" d="M3.2,50.7c-0.2,0-0.4,0-0.6,0C2,49.4,1.4,48,1.2,46.6C1,42.9,1,42.9,5,42.9c6,0,12.1,0,18.1,0
		c0.9,0,1.9-0.4,2.6,0.5c-1,0.9-2.2,0.7-3.4,0.7c-5.8,0-11.5,0-17.3,0c-2.6,0-2.8,0.4-1.9,2.9C3.5,48.3,4.3,49.4,3.2,50.7z"/>
	<path fill="#DBDBDB" d="M20.6,110c-1.9-3.3-2.4-7.1-3.5-10.6c-1-3.2-2.7-6.3-2.5-9.9c1.6,0.4,1.5,1.9,1.8,3
		c0.6,1.8,1.2,3.7,1.7,5.6c0.8,2,1.2,4.2,2,6.3c0.3,1.6,1.1,3,1.1,4.6C21.1,109.4,20.9,109.8,20.6,110z"/>
	<path fill="#D25A5C" d="M263.5,235.2c-2-2.7-3.6-5.7-5.1-8.7c-0.8-2.1-2.3-4-2.2-6.5c1.9-0.5,1.7,1.2,2.1,2.1c1.9,4.5,3.7,9,7,12.7
		c0.5,0.7,1.3,1.3,0.9,2.3C264.6,237.4,264.3,236,263.5,235.2z"/>
	<path fill="#E39EA1" d="M532.9,254.6c0,0.2,0,0.4,0,0.5c-0.2,0-0.3,0.1-0.5,0.1c-7.5,0.7-15,1-22.5,0.5c0.1-1.4,1.2-1.3,2-1.3
		c6.1-0.2,12.2-0.9,18.3-0.6C531.2,253.9,532.1,253.8,532.9,254.6z"/>
	<path fill="#EDC0C1" d="M591.7,240.8c2.4-0.9,3.7-3.2,5.5-4.9c0.6-0.6,0.9-1.4,1.7-1.7c-0.2,1.6-1.4,2.5-2.4,3.6
		c-3.7,3.8-7.8,7.2-12.5,9.7c0-0.2,0-0.4,0-0.6c0-1.7,1.9-1.5,2.6-2.5c0.2-0.1,0.4-0.3,0.6-0.4c1.1-0.7,2.4-1.3,3.1-2.5
		C590.6,241,591,240.5,591.7,240.8z"/>
	<path fill="#DB787A" d="M606.1,217.9c0-0.4-0.1-0.7-0.1-1.1c-0.2-2.8,0.8-5.5,1.6-8.1c0.8-3,1-6,1.7-9c0.1-0.2,0.4-0.4,0.6-0.4
		c0.1,0.1,0.2,0.2,0.3,0.2c0,1,0,2-0.1,3c-0.6,5.2-2.1,10.3-3.6,15.3C606.4,218,606.2,218,606.1,217.9z"/>
	<path fill="#989898" d="M173,208.1c3.2,1.1,6.4,1.8,9.8,1.5c1.1-0.1,2.2-0.2,3.2-0.7c0.8-0.8,1.9-0.9,2.9-1.2c0.4,0,0.7,0.1,1,0.3
		c0.2,0.2,0.2,0.4,0,0.7l0,0c-0.6,0.5-1.4,0.7-2.1,0.9c-4,1.1-8,1.6-12,0.1C174.7,209.3,173.7,209,173,208.1z"/>
	<path fill="#B4B4B4" d="M205.7,195.9c0,3.9,0,7.8,0,11.8c-0.9-3.4,0-6.9-0.6-10.7c-2.4,2.1-4.1,4.5-6.6,6c-0.2-0.3-0.3-0.7-0.1-1.1
		c1.6-2.2,3.7-3.9,5.6-5.8c0.4-0.4,0.9-1.1,1.7-0.5c0,0,0.1,0.1,0.1,0.2C205.8,195.7,205.7,195.8,205.7,195.9z"/>
	<path fill="#6F6F6F" d="M85.5,43.1c0.2,0,0.4,0,0.6-0.1c-0.3,3.7-1.9,7.1-3,10.6c-0.5,1.6-0.3,3.6-1.9,4.8
		c-0.3-0.1-0.4-0.3-0.5-0.6c0.3-3.3,1.6-6.4,2.7-9.5C83.9,46.6,83.8,44.4,85.5,43.1z"/>
	<path fill="#505050" d="M17.5,98.3c-1-2.9-2-5.9-3-8.8c-0.7-2.6-1.8-5-2.1-7.6c0.2,0,0.4,0,0.5,0c2.4,3.2,3,7.1,4.2,10.7
		c0.5,1.6,1.5,3.3,0.9,5.1C17.9,97.9,17.8,98.2,17.5,98.3z"/>
	<path fill="#E8B2B3" d="M297.7,252.1c0,0.2,0,0.3,0,0.5c-5.8-0.1-11.2-1.8-16.5-3.9c0.1-0.1,0.1-0.2,0.2-0.3
		c1.7-0.9,3.1,0.6,4.6,0.7c0.2,0.1,0.5,0.1,0.7,0.2c1,0.4,2.1,0.7,3.2,0.7C292.6,250.6,295.4,250.3,297.7,252.1z"/>
	<path fill="#EBBBBC" d="M606.1,217.9c0.1,0,0.3-0.1,0.4-0.1c-0.3,4.1-2.4,7.5-4.1,11c-0.9,1.8-1.3,3.9-3.3,4.9
		C601.8,228.6,604.5,223.5,606.1,217.9z"/>
	<path fill="#ECBFC1" d="M509.8,255.6c7.5,0.5,15.1-0.4,22.6-0.4c-2.6,1-5.3,0.6-8,0.8c-5,0.4-10,0.1-15.1,0.1c0-0.2,0-0.3,0-0.5
		C509.5,255.5,509.6,255.5,509.8,255.6z"/>
	<path fill="#D1D1D1" d="M95.8,204.9c0.2,0.3,0.3,0.7,0.5,1c-4.1-2.3-7.7-5.2-9.7-9.7c0.5-0.1,0.9,0.1,1.3,0.4c2.2,2.5,4.5,5,7.2,7
		C95.6,203.9,96,204.4,95.8,204.9z"/>
	<path fill="#EFC6C6" d="M256.3,219.9c0.1,2.4,1.9,4.3,2.1,6.6c-2.2-2.3-2.6-5.4-3.6-8.2c-0.8-2.2-1.8-4.5-1.6-7.1
		c0.1-0.1,0.2-0.1,0.3-0.2c1.6,1.6,1.5,3.8,2.2,5.8c0.2,0.9,0.7,1.7,0.7,2.7C256.3,219.6,256.3,219.8,256.3,219.9z"/>
	<path fill="#B4B4B4" d="M206.1,208.2c7.6,0,15.1,0,22.7,0c-1.6,0.7-3.3,0.3-5,0.3c-5,0.1-10,0-15,0
		C207.9,208.6,207,208.8,206.1,208.2z"/>
	<path fill="#8E8E8E" d="M187.2,84.5c-7.5,0-15-0.1-22.4-0.1c1.1-0.8,2.3-0.4,3.5-0.4c5.5,0,11.1,0,16.6,0
		C185.7,84,186.6,83.6,187.2,84.5z"/>
	<path fill="#C2C2C2" d="M43.7,102.3c1.2-5,2-10.1,3.9-14.9c0.4,0.2,0.6,0.6,0.7,1c-1,4.7-1.6,9.4-3.8,13.8
		C44.3,102.4,44,102.4,43.7,102.3z"/>
	<path fill="#595959" d="M142.4,194.3c-1.8,4.2-4.9,7.3-8.7,9.8c-0.2-0.2-0.3-0.4-0.3-0.6c0.3-1.2,1.3-1.7,2.1-2.4
		c2.4-2,3.9-4.9,6.2-6.9C142,194.1,142.2,194.2,142.4,194.3z"/>
	<path fill="#D1D1D1" d="M25.7,124.3c0,0.8,0.1,1.7,0.1,2.5c-1.9-4.1-3-8.4-4.1-12.8c0.3-0.1,0.5-0.1,0.8,0
		C24.4,117.2,25.5,120.6,25.7,124.3z"/>
	<path fill="#494949" d="M83.4,104.8c1.1-4.3,3-8.2,6.2-11.3c0.2,0.2,0.3,0.4,0.4,0.6c-1.5,3.4-3.8,6.5-5.1,10
		c-0.2,0.4-0.6,0.8-1.2,0.8C83.6,104.8,83.5,104.8,83.4,104.8z"/>
	<path fill="#424242" d="M133.6,203.4c0,0.2,0.1,0.5,0.1,0.7c-2,1.8-4.4,2.8-6.7,4c-2-0.3-3.6,1.6-5.6,1.1c-0.2-0.7,0.4-0.9,0.8-1.1
		c3.6-1.1,7.1-2.7,10.4-4.6C132.9,203.3,133.2,203.3,133.6,203.4z"/>
	<path fill="#535353" d="M198.6,202c0,0.3-0.1,0.6-0.1,0.9c-1.9,1.4-3.7,2.7-5.6,4.1c-1.1,0.2-1.7,1.6-3,1.2c-0.4,0-0.7-0.1-1.1-0.1
		c0-0.2-0.1-0.4,0-0.5c2.9-1.9,5.8-3.8,8.7-5.7C197.9,201.7,198.2,201.8,198.6,202z"/>
	<path fill="#EFC6C6" d="M250.7,199.4c0.1,0,0.3,0,0.4,0c1.5,3.7,2.6,7.6,2.2,11.7c-0.1,0.1-0.2,0.1-0.2,0.2
		C251.9,207.4,250.4,203.6,250.7,199.4z"/>
	<path fill="#9B9B9B" d="M81,60.4c-1,3.4-2.1,6.8-3.1,10.2c-0.1,0.1-0.2,0.1-0.4,0.2c-0.2-0.1-0.4-0.3-0.5-0.6
		c0.1-3.2,1.3-6,2.4-8.9C79.9,60.8,80.1,60.1,81,60.4z"/>
	<path fill="#E8B2B3" d="M274.1,244.9c-2.4-1-4.3-2.8-6.1-4.6c0.2-0.2,0.4-0.3,0.7-0.3c2.6,1.2,5.2,2.3,6.5,5
		C274.8,245.2,274.5,245.2,274.1,244.9z"/>
	<path fill="#A5A5A5" d="M47.8,88.6c-0.1-0.4-0.1-0.8-0.2-1.2c0.7-2.9,1.2-5.9,2.5-8.7c0.1,0.1,0.2,0.2,0.3,0.2
		c0.9,1.3,0.1,2.5-0.2,3.8c-0.4,1.7-0.8,3.4-1.3,5c-0.1,0.2-0.2,0.5-0.3,0.7C48.3,88.6,48.1,88.7,47.8,88.6z"/>
	<path fill="#606060" d="M38.1,88.4c0.2,0,0.3,0,0.5,0c0,0,0,0,0,0c0.5,1,0.6,2.1,1,3.1c0,0.2,0,0.3,0.1,0.5
		c0.3,1.9,1.6,3.5,1.2,5.6c0,0.3-0.1,0.5-0.4,0.7C38.4,95.3,37.2,92.1,38.1,88.4z"/>
	<path fill="#A9A9A9" d="M64,113.9c0.1,0.2,0.1,0.5,0.2,0.7c-0.6,2.6-1.5,5.2-2.5,7.7c-0.3-0.1-0.4-0.3-0.5-0.5
		c-0.2-2.4,1.1-4.4,1.3-6.7c0.1-0.4,0.2-0.8,0.5-1.1C63.3,113.7,63.6,113.7,64,113.9z"/>
	<path fill="#6B6B6B" d="M145.8,185.1c0.3,1.7-1.3,3-0.9,4.6c-0.5,1-1,2.1-1.5,3.1c-0.5-0.4-0.6-0.9-0.6-1.5
		c0.6-2.2,0.9-4.4,2.3-6.3C145.3,184.9,145.6,184.9,145.8,185.1z"/>
	<path fill="#A9A9A9" d="M59.1,129.9c-0.1-0.4-0.1-0.7-0.2-1.1c-0.6-2.5,0.7-4.5,1.8-6.5c0.2-0.2,0.4-0.3,0.7-0.2
		c0.1,0.1,0.2,0.2,0.3,0.2c-0.7,2.5-1.5,5-2.2,7.5C59.4,130.1,59.3,130.1,59.1,129.9z"/>
	<path fill="#CECECE" d="M75.3,79.2c-0.4,2.6-0.9,5.1-2.3,7.3c-0.1-0.1-0.2-0.1-0.3-0.2c-0.3-2.6,0.3-5,1.8-7.1
		C74.7,79.1,75,79.1,75.3,79.2z"/>
	<path fill="#9B9B9B" d="M75.3,79.2c-0.1,0-0.3,0.1-0.4,0.1c-0.6-0.5-0.6-1.2-0.6-1.9c0.5-1.6,0.8-3.2,1.4-4.8
		c0.3-0.8,0.5-1.8,1.6-2.1c0.1,0.1,0.2,0.2,0.3,0.2c0,0.8,0.3,1.6-0.2,2.4l0,0c-0.5,0.6-0.7,1.3-0.9,2.1c0,0.3-0.1,0.6-0.1,1
		c-0.3,0.7-0.5,1.4-0.9,2.1C75.4,78.6,75.3,78.9,75.3,79.2z"/>
	<path fill="#E9B2B3" d="M268.7,240.3c-0.2,0-0.4,0-0.7,0c-1.6-1.6-3.7-2.8-4.5-5.1c0.8,0.7,1.7,1.4,2.5,2.1
		C267.4,237.8,268.5,238.6,268.7,240.3z"/>
	<path fill="#414141" d="M89.7,94.2c0-0.3-0.1-0.5-0.1-0.8c1.1-1.6,2.4-2.9,4-4c0.3,0.1,0.5,0.1,0.8,0.2
		C93.5,91.8,92,93.4,89.7,94.2z"/>
	<path fill="#F4C8C7" d="M248.6,80.8c0,3.2,0,6.5-0.1,9.7c-0.1,0-0.3,0.1-0.4,0.1C248.4,87.3,247.7,84,248.6,80.8z"/>
	<path fill="#656565" d="M87.6,196.8c-0.3-0.2-0.6-0.4-1-0.6c-0.7-1.5-2.1-2.7-2.1-4.5c0.2,0,0.3,0,0.5,0
		C86.6,193.1,88.1,194.5,87.6,196.8z"/>
	<path fill="#F4C8C7" d="M249.6,72.5c-0.6,2.4,0,4.9-0.9,7.2C248.8,77.4,248,74.8,249.6,72.5z"/>
	<path fill="#E8B2B3" d="M274.1,244.9c0.4,0,0.7,0,1.1,0c1-0.4,1.8,0.3,2.6,0.7c0.6,0.4,1.2,0.8,1.6,1.4c0.1,0.2,0,0.4-0.2,0.6
		C277.3,247.1,275.7,246.1,274.1,244.9z"/>
	<path fill="#B8B8B8" d="M22.2,114c-0.2,0-0.3,0-0.5,0c-0.3-1.3-1.2-2.5-1.2-4c0-0.4,0.1-0.8,0.1-1.1
		C22.4,110.2,23.1,111.9,22.2,114z"/>
	<path fill="#7C7C7C" d="M40.5,98.3c0.1-0.2,0.1-0.5,0.2-0.7l0.2-0.1l0.1,0.2l0,0c0.6,1,0.7,2.1,1,3.1c0,0.3,0.1,0.6,0.1,1
		c0.2,0.5,0.3,1,0,1.5c-0.3,0.2-0.5,0.2-0.7,0C40.8,101.6,39.7,100.1,40.5,98.3z"/>
	<path fill="#C5C5C5" d="M128,85.5c-2-0.1-3.7-1.1-5.6-1.6C124.5,83.6,126.3,84.2,128,85.5z"/>
	<path fill="#F4C8C7" d="M250.6,60.3c0.2,2.1-0.3,4.2-0.9,6.2C249.6,64.4,249.8,62.3,250.6,60.3z"/>
	<path fill="#BCBCBC" d="M41.1,97.7c-0.1,0-0.3,0-0.4-0.1c0.2-1.9-1.4-3.5-1.1-5.5C40.7,93.8,41.3,95.6,41.1,97.7z"/>
	<path fill="#F4C8C7" d="M248.1,90.5c-0.3,2,0.6,4.2-0.5,6.1C247.9,94.6,247.1,92.5,248.1,90.5z"/>
	<path fill="#C5C5C5" d="M134.1,89c-1.6-0.5-2.8-1.6-4.1-2.5C131.9,86.5,133.2,87.5,134.1,89z"/>
	<path fill="#CACACA" d="M59.1,129.9c0.1,0,0.2-0.1,0.4-0.1c0.2,1.8-0.7,3.2-1.5,4.6C57.6,132.8,58.9,131.5,59.1,129.9z"/>
	<path fill="#424242" d="M143.3,191.2c0,0.6,0.1,1.1,0.1,1.7c-0.1,0.7-0.5,1.1-1,1.5c-0.2,0-0.4,0-0.6,0
		C141.3,192.8,141.9,191.8,143.3,191.2z"/>
	<path fill="#BCBCBC" d="M42.1,103.3c0-0.5,0-1,0-1.5c0.5,0.3,0.6,1.5,1.5,0.6c0.2,0,0.3,0,0.5,0c0.3,0.3,0.3,0.6,0.2,1
		c-0.6,0.9-1.3,1.1-2.1,0.3C42.2,103.5,42.2,103.4,42.1,103.3z"/>
	<path fill="#CCCCCC" d="M189.9,208.2c1.1-0.2,1.8-1.4,3-1.2c-0.8,1-1.7,1.7-3,1.6C189.9,208.5,189.9,208.3,189.9,208.2z"/>
	<path fill="#CACACA" d="M55.9,140.6c0.3-1,0.7-2.1,1-3.1C56.9,138.6,57.4,139.9,55.9,140.6z"/>
	<path fill="#BCBCBC" d="M39.5,91.6c-0.6-1-1-1.9-1-3.1C39.5,89.3,39.8,90.3,39.5,91.6z"/>
	<path fill="#6F6F6F" d="M81,60.4c-0.4,0.3-0.7,0.7-1.1,1c-0.7-1.4-0.4-2.4,0.9-3.2c0.1,0.1,0.2,0.1,0.3,0.2
		C81.1,59.1,81,59.7,81,60.4z"/>
	<path fill="#BCBCBC" d="M42.1,100.8c-0.6-1-0.9-2-1-3.1C42.1,98.5,42.3,99.6,42.1,100.8z"/>
	<path fill="#CACACA" d="M57,137c0-1,0.4-1.8,1-2.6C58.1,135.5,58.1,136.5,57,137z"/>
	<path fill="#E8B2B3" d="M281.3,248.6c-0.8-0.1-1.5-0.4-2-1c0.1-0.1,0.1-0.2,0.2-0.3c1.1-0.5,1.8-0.2,2.1,1
		C281.4,248.4,281.3,248.5,281.3,248.6z"/>
	<path fill="#CECECE" d="M77.4,73.1c0.1-0.8,0.1-1.6,0.2-2.4c0.1-0.1,0.2-0.1,0.3-0.2C77.8,71.4,78.2,72.4,77.4,73.1z"/>
	<path fill="#C5C5C5" d="M130,86.5c-0.9,0-1.5-0.4-2.1-1C128.9,85.2,129.6,85.5,130,86.5z"/>
	<path fill="#CECECE" d="M75.4,78.3c0-0.8,0.3-1.5,0.9-2.1C76.5,77.1,76.2,77.8,75.4,78.3z"/>
	<path fill="#CCCCCC" d="M187.8,209.6c0.6-0.5,1.3-0.9,2.1-0.9C189.4,209.5,188.7,209.7,187.8,209.6z"/>
	<path fill="#CECECE" d="M76.5,75.2c-0.1-0.9,0-1.6,0.9-2.1C77.4,74,77,74.6,76.5,75.2z"/>
	<path d="M198.6,202c-3.3,2-6.2,4.5-9.7,6.1c-0.9,0.4-1.8,1.1-2.9,0.8c-2.8-0.2-5.5,0.3-8.3-0.2c-5.2-1-8.5-4-10.2-8.7
		c-2-5.3-2.6-11-2.6-16.7c0-31.8,0-63.6,0-95.5c0-2.2,0.4-3.1,2.9-3c5.5,0.2,11.1,0.1,16.6,0.1c1,0,2.1-0.2,3,0.5
		c0,32.4,0,64.7,0,97.1c0,2.3,0.1,4.6,2.2,6.2c2.7,2.1,5.3,0.9,7.6-0.5c3.7-2.2,6.2-5.7,8.7-9.2c0.7-0.9,0.4-2,0.4-3
		c0-29.5,0-58.9,0-88.4c0-2.4,0.6-3.2,3.1-3.1c5.8,0.2,11.6,0.1,17.4,0c1.8,0,2.3,0.5,2.3,2.3c0,39.5,0,79.1,0,118.6
		c0,1.8-0.6,2.3-2.3,2.3c-6-0.1-12.1-0.1-18.1,0c-1.8,0-2.2-0.6-2.3-2.3c-0.1-3.2,0.6-6.4-0.4-9.5c-0.9-0.7-1.1,0.2-1.5,0.6
		C202.3,198.3,200.4,200.1,198.6,202z"/>
	<path fill="#BE2126" d="M277.8,246c-0.8-0.4-1.7-0.7-2.5-1.1c-2.2-1.5-4.4-3.1-6.6-4.6c-0.9-1-1.8-2-2.7-3c0.1-0.9-0.8-1.3-1-2
		c-0.6-1.6,0.6-1.9,1.7-2.2c1.1-0.3,2.2-0.2,3.3-0.2c106.9,0,213.9,0,320.8,0c1,0,2.1-0.1,3.1,0.2c1.8,0.4,2.9,1.2,1.9,3.2
		c-1.6,1.2-2.9,2.6-4.1,4.1c-0.7,0.5-1.4,1-1.7,1.9c-0.7,1-2,1.3-2.8,2.3l0,0c-4.1,2.8-8.7,4.4-13.3,6.1c-8.4,2.4-17.1,2.5-25.7,3
		c-5.1,0.3-10.1,0.6-15.2,1c-7.3-0.4-14.6,0.6-21.9,0.6c-0.4,0-0.8,0.3-1.2,0.4c0,0-0.2,0-0.2,0s-0.2,0.1-0.2,0.1
		c-11.8-0.4-23.7,0.1-35.5,0.5c-18.7,0.7-37.5,0.5-56.2,0.5c-1.7,0-3.4-0.1-5.1-0.1c-19,0-37.9-0.8-56.9-1.1
		c-12.4-0.2-24.8-0.6-37.2-1.5c-5.6-0.4-11.2-0.3-16.7-1.7c-1.3-0.3-2.7-0.1-4.1-0.2c-2.7-0.5-5.5-1-8.2-1.5c-0.9-0.6-2.1-0.6-3.1-1
		l0,0C283.5,248.5,280.5,247.6,277.8,246z"/>
	<path d="M80.8,58.2c-0.2,1.1-1,2-0.9,3.2c-0.9,3-1.8,6.1-2.6,9.1c-0.8,2.3-1.6,4.5-2.4,6.8c-2.1,7.7-4.7,15.2-7,22.8
		c-0.6,1.9-1.3,3.8-1.7,5.8l0,0c-1.4,2.6-1.3,5.7-3,8.2c0,0.3-0.1,0.6-0.1,0.9c-0.7,2.4-1.5,4.8-2,7.2c-0.7,2.2-1.4,4.4-2.1,6.6
		c-2.2,5.9-4.2,11.7-4.1,18.2c0.3,19.3,0.1,38.7,0.1,58c0,2.1-0.6,2.7-2.7,2.7c-6.1-0.1-12.3-0.1-18.4,0c-2.2,0.1-2.6-0.7-2.6-2.8
		c0.1-20.2,0-40.4,0.1-60.6c0-4.9-2.1-9.2-3.3-13.7c-0.5-2.1-1.2-4.2-1.9-6.3c-2-4.9-3.2-10-4.8-15c-0.7-2.1-1.3-4.2-2.1-6.2
		c-0.4-1.9-1.1-3.7-1.6-5.6c-0.8-4.7-2.7-9.2-4.2-13.7c-0.2-0.6-0.4-1.3-0.6-1.9c-0.2-3.4-1.9-6.4-2.8-9.6C8.1,65,5.6,57.8,3.2,50.7
		c0.6-2-1.4-3.3-1.5-5.2c-0.1-1.5,0-2,1.7-2c7.4,0.1,14.9,0.1,22.3,0.1c1.1,2.2,1.2,4.8,2.1,7.1c0.1,2,1,3.8,1.5,5.7
		c0,0.2,0.1,0.3,0.1,0.5c1.3,3.1,1.5,6.6,2.7,9.7c1.3,4,1.9,8.3,3.4,12.3c0.9,3.2,1.7,6.5,2.6,9.7c0.2,3.4,1.5,6.6,2.5,9.8
		c0.1,1.7,1.2,3.2,1.1,5c0.2,0.2,0.3,0.4,0.4,0.6c0.3,0.6,0.4,1.5,1.2,1.5c0.8,0,0.7-1,1-1.6c1.2-4.1,2.2-8.3,3.4-12.3
		c0.3-1,0.2-2,0.6-2.9l0,0c1.2-3.2,2-6.4,2.5-9.8c2.4-9.2,4.8-18.3,7.3-27.5c0.2-0.7,0.5-1.4,0.7-2.2c0.6-1.9,0.3-4.5,1.9-5.6
		c1.8-1.2,4.3-0.4,6.5-0.4c6.1,0,12.2,0,18.4,0.1C83.9,48.1,82.4,53.2,80.8,58.2z"/>
	<path fill="#363636" d="M19.6,102.8c1.4,4.4,2.8,8.7,4.2,13.1c0.9,2.8,1.6,5.6,2.4,8.4c0,0-0.2,0-0.2,0s-0.3,0-0.3,0
		c-1.2-3.4-2.3-6.8-3.5-10.3c0.1-1.9-1-3.5-1.5-5.2c-0.4-1.5-0.7-3-1.1-4.4C19.3,103.9,19.2,103.3,19.6,102.8z"/>
	<path fill="#DB2B28" d="M249.1,90c-0.1-8.1,0.9-16.2,1.8-24.2c0.3-2.7,0-5.4,0.7-8c1.4-3.3,1.5-6.9,2.3-10.4
		c0.7-2.9,1.8-5.6,2.6-8.5c0.3-1,1.2-1.2,2-1.3c1.1-0.2,2.2-0.1,3.3-0.1c112.5,0,225,0,337.6,0c2,0,4.4-0.7,5.8,1.6
		c0.3,0.4,0.4,0.9,0.7,1.3l0,0c1.7,4.5,2.1,9.3,3.6,13.8c0.1,0.2,0.1,0.3,0,0.5c0,4.4,1.2,8.7,1.2,13.1c0,0.6,0.3,1.4-0.4,1.9
		c-1.6-2.3-4-2.4-6.6-2.3c-46.9,0-93.8,0-140.8,0c-1.6,0-3.3,0.3-4.7-0.6c-0.6-1-0.3-2.2-0.3-3.2c0-6,0-12,0-18
		c-0.2,15.5,0.7,31.1,0.6,46.6c2.3-1.1,3.9-3.1,5.9-4.6c5.7-4.4,12.1-6.6,19.2-5.6c5.2,0.8,9.5,3.4,12.5,8c1.3,2,2.2,4.2,3.2,6.3
		c0.5,0.9,0.5,2,0,2.9c-0.2,0.2-0.4,0.3-0.7,0.3c-1.9-2.2-2.2-5.3-4-7.6c-2.2-3.7-5.2-6.2-9.5-7.1c-5.4-1.4-10.5-0.5-15.3,2
		c-3.7,1.9-7,4.5-9.8,7.7c-0.8,0.9-1.6,2.2-2.9,1.7c-1.4-0.5-1.3-2.1-1.3-3.3c0-15.1,0-30.3,0-45.4c0-0.9,0.3-1.9-0.4-2.7
		c-0.6-0.4-1.3-0.4-2-0.4c-5.4,0-10.7,0-16.1,0c-2,0-2.7,0.7-2.7,2.7c0.1,5.4,0,10.9,0,16.3c0,1.2,0.3,2.4-0.7,3.4
		c-1.3-0.3-0.7-1.4-0.7-2.1c-0.1-4.8,0-9.6,0-13.1c0.3,4.5-0.5,10.4,0.3,16.2c0.2,1.5-0.5,2.4-2.1,2.7c-0.8,0.1-1.7,0.1-2.5,0.1
		c-23,0-45.9,0-68.9,0c-2,0-4.2,0.3-5.1-2.3c0.2-7.1,0-14.1,0.1-21.2c0-2-0.8-2.7-2.7-2.7c-24.1,0-48.2,0-72.3,0
		c-0.8,0-1.5,0-2.2,0.5c-0.8,0.9-0.5,2.1-0.6,3.2c-0.1,5.5,0.2,11-0.2,16.5c-1,3.5-1.5,3.9-5.1,3.9c-5.3,0.1-10.7,0-16,0
		c-3.5,0-4.5,0.9-4.7,4.5c-0.1,2.5-0.2,4.9,0,7.4c0.2,2.9-0.7,5.7-1.2,8.5C250.2,89.3,250.1,90.1,249.1,90z"/>
	<path fill="#D34D4E" d="M610.6,69.5c0.7-4.1-1.5-8-1-12.1c0.1-0.9,0.1-1.9,0.1-2.8c0.5,3.2,1.1,6.4,1.4,9.6
		c0.7,7.9,1.1,15.8,1.8,23.6c1.4,18.1,0.8,36.2,0.9,54.4c0.1,12.4-0.7,24.8-1.6,37.2c-0.3,0-0.6-0.1-0.8-0.4
		c-0.8-2.3-0.4-4.6-0.4-6.9c0.6-3,0.4-6,0.4-9.1c0-1.7,0.1-3.4,0.7-5c0.5-1.1,0.4-2.3,0.4-3.5c0.1-11.3-0.2-22.6-0.1-33.8
		c0.1-6.9,0.2-13.9-0.1-20.8c-0.5-0.9-0.2-2-0.7-2.9c-0.4-2.7-0.1-5.3-0.2-8c0-0.9-0.1-1.8-0.4-2.7c-0.4-2.4-0.2-4.8-0.2-7.3
		c0-1.8-0.4-3.5-0.8-5.2C609.9,72.4,609.5,70.9,610.6,69.5z"/>
	<path fill="#E5605D" d="M609.6,54.2c-0.3-0.4-0.7-0.8-0.8-1.2c-0.9-4.2-1.8-8.4-2.7-12.6c0.9,0.7,0.8,1.9,1.4,2.7
		c0.6,2.8,1.2,5.6,1.8,8.4C609.5,52.4,609.7,53.3,609.6,54.2z"/>
	<path fill="#D35051" d="M611.6,179.5c0.2,0,0.3,0,0.5,0c0.1,4-1,7.8-1.1,11.7c-0.3,0.2-0.6,0.1-0.8-0.2c-0.8-2.3-0.4-4.7-0.3-7
		c0.7-1.4,0-3.1,1.2-4.3C611.4,179.6,611.5,179.5,611.6,179.5z"/>
	<path fill="#DB787A" d="M610.6,191.3c0.1,0,0.3,0,0.4-0.1c0.1,2.8,0.1,5.6-0.9,8.3c0,0-0.2-0.2-0.2-0.2c-1.4-2,0.3-4-0.1-6
		C609.9,192.5,610,191.8,610.6,191.3z"/>
	<path fill="#DF2D28" d="M605.5,39.9c-1-1.5-2.6-1.6-4.3-1.6c-113.4,0-226.7,0-340.1,0c-4.2,0-4.1,0-5.3,4.1
		c-1.4,4.6-2.5,9.2-3,13.9c-0.1,0.7-0.2,1.4-1.1,1.4c0.7-4.2,1.4-8.5,2.2-12.7c1.7-3.9,2.6-8,4.2-11.9c3.9-9.6,10.4-16.7,19.3-21.8
		c2.9-0.2,5-2.2,7.7-3c5.6-1.6,11.3-2.9,17.1-3.2c11.4-0.6,22.9-1.1,34.3-1.8c6-0.4,12-0.5,18-0.7c8-0.3,16-0.3,23.9-0.6
		c27.4-1.1,54.8-0.2,82.2-0.5c0.4,0,0.8,0,1.3-0.1c20.3-0.1,40.5,1.5,60.7,1.2c2.9,1,5.9,0.4,8.8,0.8c4.3,0.6,8.7,0.3,13,0.6
		c8.6,0.7,17.3,0.7,25.8,2.3c4.2,0.8,8.3,2.3,12.2,4.3c1.2,0.6,2.3,1.5,3.7,1.7c8,5.1,14.1,11.9,17.4,20.9
		C604,35.5,605.5,37.5,605.5,39.9z"/>
	<path fill="#CB2627" d="M250.2,187.1c-0.4-5.4-0.7-10.8-1.1-16.2c-0.5-5.2-0.1-10.4-0.2-15.6c0-1.3,0-2.5-0.2-3.8
		c0-3-0.1-5.9,0-8.9c0.3-1.2,0.2-2.4,0.2-3.5c0.1-2.7,0.6-3.2,3.4-3.4c0.5,0,1,0,1.5,0c15.6-0.1,31.3,0.1,46.9-0.1
		c0.6,0,1.2,0,1.7,0.3c0.7,0.9,0.6,1.9,0.6,2.9c0,11.6,0,23.2,0,34.8c0,0.9,0.1,1.9-0.5,2.7c-1.3,1.1-2.9,0.8-4.4,0.8
		c-13.9,0-27.8,0-41.6,0c-0.9,0-1.7,0-2.6,0c-1.7,0-2.4,0.8-2.4,2.5c-0.1,2.4,0.4,4.8-0.5,7.1C250.8,187.2,250.6,187.3,250.2,187.1z
		"/>
	<path fill="#DB2B28" d="M249.2,151.3c0,6.5,0,13,0,19.5c-0.6-3.2-0.3-6.4-0.5-9.7c-1-17.9-0.7-35.7-0.5-53.6
		c0.1-5.7,0.4-11.4,0.5-17.1c0.1-0.1,0.3-0.1,0.4-0.2c1.1,1,0.8,2.3,0.9,3.6c0.1,4.1-0.2,8.2,0,12.4c0,7.8,0.3,15.6-0.2,23.4
		c-0.8,2.2-0.4,4.5-0.5,6.8C249.2,141.4,248.4,146.4,249.2,151.3z"/>
	<path fill="#D55E60" d="M250.2,187.1c0.2,0,0.3,0,0.5,0c0.2,0.2,0.4,0.4,0.5,0.6c1,2.1,0.4,4.5,1,6.6c0.3,5.4,1.2,10.8,2.5,16
		c0.3,2.1,1.7,4,1,6.2c-0.1,0.3-0.3,0.5-0.5,0.7c-0.6-2.1-1.3-4.2-1.9-6.3c-0.7-3.9-1.5-7.8-2.2-11.7
		C251.6,195.3,249.8,191.3,250.2,187.1z"/>
	<path d="M143.3,191.2c-0.5,1-1,2.1-1.5,3.1c-2.2,3.5-4.9,6.6-8.2,9.1c-3.7,2.6-8,4.1-12.2,5.7c-8.5,2-16.5,0.6-24.1-3.7
		c-0.4-0.2-0.9-0.3-1.4-0.5c-3-2.4-6-4.9-8.2-8.1c-0.3-2-1.8-3.3-2.6-5.1c-3.2-8.4-3.7-17.2-3.6-26.1c0.2-16,0.1-32,0.1-48
		c0.4-1.9,0.6-3.8,1-5.7c-0.2-2.5,1-4.7,1.2-7.1c2-3.6,3.3-7.5,6-10.7c1.6-1.5,3.1-3.1,4.7-4.6c9-6.3,19-6.6,29.3-4.5
		c3.2,0.6,6.3,1.9,8.9,4.1c0.6,0.5,1.3,0.9,2.1,0.9c6.7,5.2,9.6,12.5,11.3,20.5c1.5,7,1.1,14,1.1,21.1c0,14.8,0,29.6,0,44.3
		c-0.4,3.1-0.9,6.2-1.5,9.2C144.7,187.1,144,189.2,143.3,191.2z"/>
	<path fill="#555555" d="M145.4,185.1c0.2-3.1,0.5-6.2,1.5-9.2c0.5,3.2-0.7,6.1-1.1,9.2C145.7,185.1,145.5,185.1,145.4,185.1z"/>
	<path fill="#404040" d="M82.5,112c0.1,2-0.1,3.9-1,5.7C81.4,115.7,81.7,113.8,82.5,112z"/>
	<path fill="#333333" d="M50.8,78.7c0,3.5-0.8,6.7-2.5,9.8c0.2-3.3,1.9-6.3,2.2-9.6C50.5,78.8,50.6,78.7,50.8,78.7z"/>
	<path fill="#CB4C4F" d="M573.8,250.6c1.1-1.4,2.8-1.5,4.3-1.9c3.3-0.9,5.8-3.3,9.1-4.2c-0.6,1.4-2.4,1.3-3.1,2.4
		C580.6,248.3,577.4,250,573.8,250.6z"/>
	<path fill="#D62A27" d="M249.2,106.4c0-5.3,0-10.6-0.1-16c-0.1-0.1-0.1-0.3,0-0.4c0.8-3.3,1.6-6.6,1.7-10.1c0-3.6-0.8-7.2,0.8-10.7
		c0.6-1.4,1.1-1.7,2.5-1.7c6,0,12.1-0.1,18.1,0.1c2.5,0.1,4.2-0.4,4.7-3.1c0.8,0.6,0.6,1.9,1.4,2.5c1,0.6,2.1,0.4,3.2,0.4
		c6.3,0,12.7,0,19,0c1.1,0,2.4-0.3,3.1,1.1c-0.1,7.2,0.2,14.3-0.2,21.5c-0.7,2.7-0.2,5.4-0.4,8.1c-0.1,1.2,0.2,2.4-0.6,3.4
		c-1.3,0.9-2.8,0.6-4.2,0.6c-14.4,0-28.7,0-43.1,0c-3.6,0-3.6,0-4.9,3.4C250,105.9,249.8,106.4,249.2,106.4z"/>
	<path fill="#E5605D" d="M605.5,39.9c-0.4-2.3-2-4.2-2-6.7c1.5,2.2,2.2,4.6,2.5,7.2C605.8,40.2,605.6,40.1,605.5,39.9z"/>
	<path fill="#333333" d="M31.8,66.6c-1.1-3.2-2.1-6.4-2.4-9.9c0.1,0,0.3,0.1,0.4,0.1c0.8,2.9,1.9,5.8,2.2,8.9
		C32.2,66.1,32.1,66.4,31.8,66.6z"/>
	<path fill="#333333" d="M29.3,56.3c-1.1-1.7-1.8-3.6-1.5-5.7C28.3,52.5,29.4,54.2,29.3,56.3z"/>
	<path fill="#3D3D3D" d="M31.8,66.6c0.1-0.3,0.1-0.6,0.2-0.9c1.6,4.2,2.6,8.6,3.5,13c-1.8-1.6-1.3-4.1-2.2-6.1
		C32.5,70.8,32.3,68.7,31.8,66.6z"/>
	<path fill="#C22326" d="M255.4,216.7c0.4-2.1-1.2-3.9-1.1-6c-0.4-0.8-0.1-1.7-0.3-2.5c-0.4-1.7,0.6-2.3,2-2.7
		c0.9-0.3,1.9-0.2,2.8-0.2c13.4,0,26.7,0,40.1,0c0.9,0,1.9,0,2.8,0.3c0.9,0.1,0.5-0.6,0.5-1c0-5.7,0.1-11.4,0-17.1
		c-0.1-7.9,0.7-15.7,0.6-23.6c0.3-0.3,0.5-0.3,0.8-0.1c0.8,1.1,0.5,2.5,0.5,3.7c0,12.3,0,24.5,0,36.8c0,3.4,0.2,3.7,3.6,3.7
		c5.8,0,11.6,0,17.4,0c1.1,0,2.2,0.1,3.3-0.4c1.2-0.6,0.8-1.7,0.9-2.6c0.2-2.2-0.6-4.5,0.7-6.6c1.1-0.7,2.3-0.6,3.4-0.6
		c3.9,0,7.8,0,11.6,0c2.1,0,4.2-0.2,6.2-0.9c0.6-0.1,1.1,0.2,1.5,0.6c0.5,0.5,0.8,1.1,1,1.7c1.3,4.6,4.5,7.4,8.4,9.7
		c5.3,2.2,10.5,1.4,15.5-0.9c1.2-0.6,2.4-1.1,3.5-1.9c3.5-2.4,6.6-5.3,9.6-8.3c0.6-0.6,1.1-1.5,2.1-1.1c0.8,0.3,0.7,1.3,0.8,2
		c0.1,2.4,0.1,4.8,0,7.1c-0.1,1.8,0.7,2.4,2.4,2.3c5.9-0.1,11.7,0,17.6,0c1,0,2.1,0.1,2.5-1.2c0.3-4.8,0-9.6,0.1-14.4
		c0-1.2-0.2-2.4,0.4-3.5c0.2-0.3,0.4-0.4,0.8-0.3c0.7,0.6,0.8,1.5,0.7,2.3c-0.3,4.9,0.7,9.9-0.5,14.8c0,0,0.2-0.5,0.6-0.5
		c4.9,0.1,9.7-0.3,14.6,0.3c0.2,0.1,0.3,0.2,0.4,0.3c0,0,0.1,0.1,0.1,0.1c-0.2-2-0.3-4-0.1-6c0.1-0.8-0.4-2.2,1.4-2
		c1,2.4,0.4,5,0.5,7.5c0.1,1.6,0.5,2.4,2.2,2.4c6,0,12,0,18,0c0.6,0,1.2-0.2,1.7-0.5c1-0.7,0.7-1.8,0.7-2.8c0.1-1.7-0.2-3.5,0.3-5.2
		c1.4-1.4,2.1,0.1,2.8,0.7c2.5,2.6,5.3,4.9,8.5,6.6c1.2,0.6,2.4,1.2,3.7,1.4c5.5,2.3,10.9,1.9,16.2-0.5c1.2-0.4,2.1-1.1,3-1.8
		c0.7-0.6,1.4-1.3,2.5-1.1c1.2,1.4,2.8,1.6,4.6,1.6c8.3,0,16.7,0,25,0c1.2,0,2.5,0.2,3.4-0.6c1.7-1.5,3.2-0.7,4.6,0.2
		c1.5,1,3.2,1.6,4.9,2.1c0.3,0.1,0.5,0.2,0.8,0.3c0.5,0.3,0.9,0.9,1.5,0.9c4.9,0.6,9.9,2.1,14.8,1c2.6-0.6,5.6,0.1,7.9-2
		c1.9-1.6,4.2-2.2,6.5-3c1.8-1,3.4-1.8,5.6-0.7c1.2,0.6,2.8,0.2,4.3,0.2c8.8,0,17.6,0,26.5,0c3.5,0,3.7,0.4,3.2,3.9
		c-0.7,2.7-1.1,5.5-2.1,8.1c-2.1,4.8-3.6,9.9-6.4,14.4c-1.1,1.8-2.2,3.6-3.8,5c0.2-1.9-0.6-2.7-2.5-2.5c-0.3,0-0.7,0-1,0
		c-107.9,0-215.9,0-323.8,0c-1.3,0-3.1-0.7-3.5,1.5c-3.7-3.6-5.3-8.3-7.2-12.8c-0.4-0.9-0.3-2.1-1.5-2.5c0,0,0,0,0,0
		C256,218.8,255.9,217.7,255.4,216.7z"/>
	<path fill="#C22326" d="M589.6,241.8c0.4-0.8,1-1.5,2-1.5c0,0.2,0,0.3,0,0.5c-0.4,0.3-0.7,0.7-1.1,1
		C590.3,242.1,590,242.2,589.6,241.8z"/>
	<path fill="#4B4B4B" d="M66.2,105.9c-0.1-3.1,1.4-5.8,2.3-8.7c2-6.7,3.9-13.4,6.4-19.9c0,0.7,0,1.4,0,2c-1.3,2.2-1.4,4.7-2.2,7
		C70.2,92.8,68.9,99.5,66.2,105.9z"/>
	<path fill="#4B4B4B" d="M63.1,114.1c1.1-2.7,1.1-5.8,3-8.2c-0.2,2.8-1.6,5.3-2.2,8C63.7,114,63.4,114,63.1,114.1z"/>
	<path fill="#474747" d="M19.6,102.8c0,0.5,0,1.1,0,1.6c-1.2-1.9-1.3-4.1-2.1-6.1c0.1-0.3,0.1-0.6,0.2-0.8
		C19,99,18.8,101.1,19.6,102.8z"/>
	<path fill="#CB4C4F" d="M589.6,241.8c0.3,0,0.7,0,1,0c-0.8,1.4-2.1,2-3.5,2.6C587.4,243.1,589.1,243,589.6,241.8z"/>
	<path fill="#C72427" d="M608,208.6c0.5-2.7-0.8-3.2-3.2-3.2c-10.1,0.1-20.2,0.1-30.3,0c-0.9,0-2.2,0.9-2.7-0.9
		c-0.2-0.7-0.6,0.1-0.9,0.2c-0.9,0.6-1.7,1.5-2.9,1.2c-0.1-0.5,0.1-0.9,0.5-1.3c2.5-1.8,4.5-4.1,6.6-6.3c1.8-1.9,2.9-4.2,4.1-6.5
		c0.5-1,0.9-2,1.8-2.7c0.9-2.3,1.8-4.5,1.7-7.1c0-4.6,0-9.2,0-13.8c0-1.3,0-3.1,1.5-3.1c1.2,0,1,1.9,1,3.1c0.2,3,0.3,3.1,3.3,3.2
		c6.5,0,12.9,0,19.4,0c1.3,0,2.6-0.1,3.6,0.8c0,2.4,0,4.8,0,7.2c0,0-0.1,0-0.1,0c-1.5,1.1-0.2,2.9-1,4.1c0,2.6,0,5.1,0,7.7
		c0,0.7,0,1.3-0.1,2c-0.4,2-0.7,4.1-1,6.2C609.5,202.6,608.8,205.6,608,208.6z"/>
	<path fill="#D35051" d="M609.6,199.4c-0.2-2.1,0-4.2,1-6.2c-0.2,2-0.4,4.1-0.6,6.1C609.9,199.4,609.7,199.4,609.6,199.4z"/>
	<path fill="#CE595C" d="M277.8,246c3,1.1,5.9,2.1,8.7,3.6c-1.8,0.4-3.2-1.3-5-1.2c-0.6-0.6-1.2-0.9-2.1-1
		C278.9,246.9,278.1,246.7,277.8,246z"/>
	<path fill="#CE595C" d="M286.5,249.5c1.2-0.2,2.3,0,3.1,1C288.4,250.6,287.4,250.1,286.5,249.5z"/>
	<path fill="#D25A5C" d="M255.4,216.7c1.1,0.8,1,2,0.9,3.2c-0.6-0.7-0.8-1.6-1-2.5C255.3,217.1,255.3,216.9,255.4,216.7z"/>
	<path fill="#333333" d="M48.2,88.5c-0.1,4.4-1.9,8.5-2.9,12.7c-0.3,1-0.5,2.1-0.7,3.2c-0.2,0.2-0.4,0.1-0.6,0
		c-0.2-0.4-0.1-0.7,0.1-1c0-0.3,0.1-0.7,0.1-1c1.2-4.6,2.4-9.1,3.6-13.7C48,88.5,48.1,88.5,48.2,88.5z"/>
	<path fill="#404040" d="M61,122.2c-0.3-2.6,1.1-4.9,2-7.2c0.2,2.5-1.4,4.6-1.6,7.1C61.3,122.2,61.2,122.2,61,122.2z"/>
	<path fill="#2F2F2F" d="M44.2,104.3c0.2,0,0.3,0,0.5,0c-0.1,0.9-0.2,2.1-1.4,1.9c-1.5-0.3-1.8-1.6-1.5-3c0.2,0,0.3,0,0.5,0
		c0,0,0,0,0,0C42.5,104.3,43.3,104.4,44.2,104.3z"/>
	<path fill="#7C7C7C" d="M44.2,104.3c-1.4,1-2,0.6-2-1c0.7,0.4,1.3,0.5,2,0C44.1,103.6,44.2,104,44.2,104.3z"/>
	<path fill="#D72A27" d="M611.6,78.8c0,2.6,0,5.1,0,7.7c0.4,3.4,0.3,6.9,0.1,10.3c-0.8,0.8-1.9,0.7-2.9,0.7c-9.3,0-18.6,0-28,0
		c-0.9,0-1.9-0.1-2.7-0.4c-1.4-0.2-2.3-1.2-3.2-2.3c-1.9-2.4-3.8-4.8-6.8-5.8c-9.8-6.3-20.2-6.8-31-3.1c-4.9,2.3-9.2,5.7-13.1,9.4
		c-1.6,1-2.4,2.6-3.3,4c-0.6,0.9-1.1,1.9-2.4,2c-4.7,0.7-9.4,0.3-14.1,0.3c-1.4,0-2.7,0.1-3.8,1c-1.7-0.6-1.8-1.7-1.1-3.2
		c0.1-5.1-6.1-14-11.3-15.5c-2.6-0.8-5.1-1.4-7.8-1.4c-5.7-0.1-10.6,2.2-15,5.6c-2.4,1.8-4.5,3.8-6.8,5.7c-0.5-1.9-0.2-3.9-0.2-5.8
		c0-6.3,0-12.5,0-18.8c0-0.8-0.2-1.7,0.2-2.5c49.2,0,98.4,0,147.6,0c2.4,0,4.3,0.2,4.7,3.1c0,1.5,0,3.1,0,4.6
		C611.2,75.6,610.5,77.4,611.6,78.8z"/>
	<path fill="#D52A27" d="M417.4,188.7c-0.1,0-0.3,0-0.4,0c-1.3-1.2-0.8-2.7-0.8-4.1c0-30.7,0-61.3,0-92c0-7.1,0.4-6.4-6.5-6.4
		c-4.1,0-8.2,0-12.3,0c-3.6,0-3.8,0.2-3.8,3.7c0,28.2,0,56.4,0,84.6c0,1.4,0.5,2.9-0.9,4.1c-0.4-0.1-0.6-0.3-0.8-0.6
		c-0.4-1.1-0.3-2.4-0.3-3.5c0-22.6-0.2-45.1,0.1-67.7c0.1-6,0.3-12,0.4-17.9c0,4.6,0,9.2,0,13.8c-1.4,4.5-1.5,4.7-6.3,4.6
		c-3.1-0.1-6.2,0.6-9.2-0.5c-0.9-0.9-0.7-2.1-0.7-3.1c0-4.6,0-9.2,0-13.8c0-0.9,0.2-1.9-0.5-2.7c-0.5-0.5-1.1-0.9-1.9-0.8
		c-6,0-11.9,0-17.9,0c-2.8,0-3.3,0.4-3.3,3.2c0,34,0,67.9,0,101.9c0,1.2,0.2,2.4,0.6,3.5c0.3,1.1,0.6,2.2-0.3,3.1
		c-0.4-0.2-0.5-0.6-0.5-1c-1.1-0.8-1.3-2.1-1.6-3.3c-0.2-11.7-0.1-23.3-0.1-35c0-8.2,0-16.3,0-24.5c-0.1-14.7,0.3-29.4,0.2-44.1
		c0,5.2,0,10.4,0,15.6c0,0.8,0.2,1.7-0.5,2.4c-0.2,0.1-0.4,0.3-0.7,0.3c-6.2,0.5-12.4,0.5-18.7,0c-0.3,0-0.5-0.2-0.7-0.3
		c-1.1-1.5-0.9-3.3-0.6-4.9c0.8-5.8,0.2-11.5,0.4-17.3c0-1.1,0-2.2,0-3.3c0,5.8,0,11.7,0,17.5c0,0.5,0.2,1.3-0.9,1.1
		c-0.7-0.8-0.6-1.8-0.6-2.7c0-9.2,0-18.4,0-27.6c0-3.2,0.5-3.6,3.7-3.6c6.8,0,13.6,0,20.4,0c1.1,0,2.2-0.2,3.1,0.7
		c0.8,1.3,2,1.6,3.5,1.6c23.8,0,47.7-0.1,71.5,0c2.3,0,2.8-0.7,2.8-2.9c-0.1-6.4,0-12.7,0.5-19.1c0,5.3,0,10.6,0,16
		c0,1-0.4,2.1,0.5,2.9c0.8,0.7,0.7,1.7,0.7,2.6c0,7.8,0,15.7,0,23.5c0,0.8,0,1.7-0.6,2.4c-1.6,0.1-0.9-1.1-0.9-1.7
		c-0.1-6.5,0-13,0-19.5c0,6.5-0.2,13,0.1,19.5c0.1,3.3,0.4,6.6,0.4,9.9c0,3.4-0.5,3.9-4,4c-2.3,0-4.6,0-6.9,0c-3.8,0-4.1-0.4-5-4
		c-0.1-0.3-0.2-0.6-0.3-1c0-0.3-0.1-0.5-0.1-0.8c0-4.2,0-8.3-0.1-12.5c0.8,21,0.5,42,0.6,62.9c0,11,0,22.1,0,33.1
		C418.1,186.3,418.4,187.6,417.4,188.7z"/>
	<path fill="#D83330" d="M355.5,68c-8.1,0-16.1,0.1-24.2,0c-1.9,0-2.4,0.6-2.4,2.5c0.1,10.3,0.1,20.5,0.1,30.8
		c0.9,3.2,0.6,6.6,0.6,9.8c0.1,16.8,0.1,33.6,0.1,50.5c0,9.9,0,19.9,0,29.8c0,4.7-0.4,9.3-0.2,14c0,0.8,0.1,1.5-0.5,2.2
		c-0.6,1.2-1.6,1-2.7,1c-6.8,0-13.6-0.1-20.4,0c-2.1,0-2.6-0.7-2.6-2.6c0.1-14.1,0-28.3,0-42.4c-0.6-0.8-0.4-1.8-0.4-2.7
		c0.1-18.6-0.5-37.3-0.2-55.9c0.2-11.7,0.5-23.5,0.4-35.2c0-0.4,0-0.9,0.2-1.2c-0.7-0.9-1.7-0.5-2.6-0.5c-6.8,0-13.7,0-20.5,0
		c-1.1,0-2.3,0.3-2.9-1c-0.6-4.3-0.2-8.6-0.2-12.9c0-3.4-0.3-6.7,0.2-10.1c0.7-0.8,1.7-0.5,2.6-0.5c24.4,0,48.8,0,73.2-0.1
		c2.4,0,3,0.7,2.9,3c-0.1,6.2-0.1,12.4,0,18.6C356,66.1,356.1,67.1,355.5,68z"/>
	<path fill="#D45F61" d="M434.2,95.1c0-9.5,0-19.1,0-28.6c0-6.7,0.1-13.4,0-20.1c0-2.2,0.6-3,2.9-3c5.8,0.1,11.5,0,17.3,0.1
		c0.8,0,1.7-0.3,2.3,0.5c-0.9,0.8-2.1,0.7-3.1,0.7c-4.8,0-9.7,0-14.5,0c-0.9,0-1.9-0.2-2.7,0.4c-0.2,0.2-0.4,0.4-0.6,0.7
		c-0.5,1-0.3,2-0.3,3c0,51.5,0,102.9,0,154.4c0,1.1-0.2,2.2,0.4,3.2c0.6,0.9,1.6,0.9,2.5,0.9c4.9,0,9.9,0,14.8,0
		c2.1,0,3-0.8,2.9-2.8c-0.1-1.8-0.1-3.6,0-5.4c0.1-0.9,0.1-2,1.2-2.3c0.9-0.3,1.6,0.4,2.2,1c3,3.1,6.2,5.8,9.9,8
		c1.1,0.8,2.2,1.3,3.3,2.1c0.2,0.3,0.1,0.5-0.1,0.7c-3.9-0.6-6.8-3.1-9.7-5.5c-1.6-1.3-3.1-2.8-4.6-4.3c-0.6,2.1-0.1,4.3-0.3,6.5
		c-0.1,0.9,0.3,1.8-0.3,2.7c-2,0.8-4.2,0.5-6.3,0.5c-4.5,0-9,0-13.5,0c-3.7,0-3.7,0-3.7-3.6c0-2.4,0-4.7,0-7.1
		c-1-1.1-0.7-2.4-0.7-3.7c0-11.9,0-23.8,0-35.7c0-9.6,0-19.1,0-28.7c0.1-4.7,0-9.3-0.1-14c-0.1-6.2,0.6-12.4,0.4-18.6
		C433.7,96.5,433.7,95.8,434.2,95.1z"/>
	<path fill="#F5CECE" d="M435.2,44.5c0.5-0.7,1.2-0.5,1.9-0.5c6.5,0,13.1,0,19.6,0c0.5,1,0.2,2,0.2,3c0,15.4,0,30.8,0,46.2
		c0,0.8-0.2,1.7,0.5,2.7c2.1-2,4.2-4.1,6.4-6c5.1-4.3,10.9-6.9,17.7-6.7c1.5,0,3.1,0.2,4.4,1c0.2,0.3,0.1,0.6-0.2,0.8
		c-0.9,0.5-1.8,0.4-2.7,0.3c-7.5-0.9-13.9,1.7-19.3,6.7c-1.6,1.4-3,3-4.5,4.5c-1.6,1.5-2.9,1-3.5-1.1c-0.3-1.2-0.2-2.4-0.2-3.6
		c0-14.3,0-28.6,0-42.9c0-3.8,0-3.8-3.9-3.8c-4.3,0-8.7,0-13,0C437.4,45.3,436.1,45.5,435.2,44.5z"/>
	<path fill="#F5CFCF" d="M495.1,91.5c1.9,2.2,2.8,4.9,3.5,7.7c2.8,7.5,2.8,15.4,2.8,23.3c-0.1,19.3-0.1,38.6,0,57.9
		c0,3.6-0.9,7.1-1.2,10.6c-0.1,0.6-0.3,1.2-1,1.3c-1.3-1.2-1-2.9-0.8-4.3c1.8-12,0.7-24.1,0.9-36.2c0.2-9.6-0.1-19.2,0.1-28.9
		c0.1-7.3-0.7-14.4-2-21.5c-0.4-2.3-1.3-4.4-2.2-6.5c-0.4-1-1.1-1.9-0.8-3.1C494.5,91.4,494.8,91.3,495.1,91.5z"/>
	<path fill="#DC797A" d="M499.2,192.3c0.7-3.5,1.5-7,1.5-10.5c0-22.9,0.1-45.8-0.1-68.8c0-3.9-0.7-7.8-1.7-11.5
		c-0.2-0.7-0.1-1.5-0.2-2.3c0.2,0,0.3,0,0.5,0c0,1.1,0.4,2.1,1,3.1c0.7,0.6,0.8,1.4,0.8,2.3c1.4,4.6,1,9.2,1,13.9c0,22,0,44,0,66
		c0,0.7,0,1.5-0.2,2.2c-0.3,1.3-0.8,2.6-0.9,3.9c-0.1,1.8-0.4,3.6-1.1,5.3c-0.1,0.2-0.2,0.5-0.3,0.7c-0.6,0.8-0.2,2.5-2,2.2
		c-0.5-0.9,0-1.8,0-2.7C497.9,194.8,497.8,193.2,499.2,192.3z"/>
	<path fill="#D7221F" d="M458.3,66.5c0,9,0,18.1,0,27.1c-1,0-0.5-0.7-0.5-1c0-15.8,0-31.6,0-47.4c0-0.2,0.1-0.3,0.5-0.5
		C458.3,51.9,458.3,59.2,458.3,66.5z"/>
	<path fill="#D92320" d="M277.3,44c0,7.7,0,15.3,0,23c-0.8-0.7-0.4-1.7-0.5-2.6c0-5.9,0-11.9,0-17.8C276.8,45.7,276.4,44.8,277.3,44
		z"/>
	<path fill="#F4C6C5" d="M495.1,91.5c-0.2,0-0.4,0-0.6,0c-0.8-0.1-1.4-0.7-1.8-1.3c-1.8-2.4-4.8-3.4-6.8-5.4c0-0.2,0-0.4,0-0.6
		C490.2,85.1,493.2,87.7,495.1,91.5z"/>
	<path fill="#CB2627" d="M611.6,172.3c-8.2,0-16.3-0.1-24.5,0c-2.2,0-2.9-0.7-2.7-2.7c0.1-1.3,0-2.6,0-4.2c-1.2,1-1,2-1,3
		c0,4.6-0.2,9.2,0.1,13.8c0.1,2.4-1.2,4.3-1.3,6.6c0,0.6-0.7,1.1-1.4,1.3c-0.9-1.3,0.1-2.4,0.4-3.6c1.6-6.8,1.1-13.6,0.8-20.4
		c-0.4-0.7-1-0.8-1.7-0.8c-6.2,0-12.4-0.1-18.6,0c-0.3,0-0.7,0.1-1,0.3c-0.5,0.5-0.6,1.2-0.6,1.9c0.3,3.7-0.5,7.4-0.6,11.1
		c-0.2,3.7-1.2,7.2-4.8,9.3c-6.5,2.3-11.7,1-14.5-5.4c-0.4-0.9-0.4-1.9-0.7-2.8c-0.2-1-0.2-1.9-0.2-2.9c0-1.3,0.1-2.5-0.4-3.8
		c-0.1-0.5-0.1-0.9-0.2-1.4c0-5.8,0-11.6,0-17.3c0-1.1-0.2-2.2,0.6-3.2c1.1-0.8,2.4-0.6,3.7-0.6c12,0,24,0,36,0
		c1.2,0,2.4,0.1,3.6-0.1c0.8-0.2,1.2-0.8,1.5-1.5c0.3-4,0-8,0.2-12c0.1-2.6,0.4-2.8,2.8-1.8c1.2,0.5,2.5,0.5,3.8,0.5
		c6.1,0,12.2,0,18.3,0c3.6,0,3.7,0.2,3.7,3.7c0,5.5,0,11,0,16.6c0,0.8,0.2,1.7-0.2,2.5c-1,3.1-0.4,6.4-0.5,9.5
		C612.1,169.5,612,170.9,611.6,172.3z"/>
	<path fill="#D22827" d="M612.6,158.5c0-6.5-0.1-12.9,0-19.4c0-2.2-0.7-2.7-2.8-2.7c-6.9,0.1-13.8,0-20.6,0c-1.5,0-3-0.1-4.2-1.8
		c0,4.4,0,8.4,0,12.4c0,0.9,0.3,1.9-0.5,2.6c-1-1-0.7-2.2-0.7-3.4c0-6.6,0-13.3,0-19.9c0-1.1,0.2-2.2-0.4-3.3
		c-0.7-1.1-0.7-2.4-0.6-3.7c0.1-3.1,0-6.2-1-9.2c0.1-4-2-7.4-3.5-10.9c-0.5-1.1-1.8-1.9-1-3.4c1.4,0.4,2.8,0.5,4.3,0.5
		c10,0,20,0,30,0c0.3,0.3,0.2,0.8,0.3,1.1c-0.2,1.1,1,1.6,1,2.7c0.1,6.7-0.2,13.4,0.2,20.2c0,12,0,24,0,36
		C613.1,157.3,613.2,158,612.6,158.5z"/>
	<path fill="#DB2B28" d="M613.1,120.6c-0.7-0.8-0.4-1.8-0.4-2.7c0-6.1,0-12.2,0-18.3c-0.2-0.1-0.2-0.2-0.2-0.4
		c0.1-0.1,0.1-0.2,0.2-0.2c0.6,0.5,0.5,1.2,0.5,1.9C613.1,107.6,613.1,114.1,613.1,120.6z"/>
	<path fill="#DB2B28" d="M611.6,97.7c0-0.3,0-0.7,0-1c0-3.4,0-6.8,0-10.2c1.1,3.7,0.2,7.5,0.5,11.3C612,97.9,611.8,97.9,611.6,97.7z
		"/>
	<path fill="#DB2B28" d="M611.6,78.8c-1.8-1.2-0.7-3.1-1-4.6C611.4,75.6,611.2,77.2,611.6,78.8z"/>
	<path fill="#D72A27" d="M611.6,97.7c0.2,0,0.4,0,0.5,0c0.2,0.5,0.3,1,0.5,1.5c0,0.2,0,0.3,0,0.5C611.7,99.3,611.6,98.5,611.6,97.7z
		"/>
	<path fill="#CB2627" d="M610.6,183.6c0.4-1.4-1-3.1,1-4.1C610.6,180.7,611.6,182.4,610.6,183.6z"/>
	<path fill="#D22827" d="M249.2,106.4c0.7-0.6,0.6-1.4,0.5-2.1c-0.4-2.6,0.8-3,3.2-3c16.5,0.1,33,0.1,49.5,0.1
		c0.7,0.7,0.5,1.6,0.5,2.4c0,10,0,20,0,29.9c0,0.8,0.2,1.7-0.5,2.4c-1.4,0.4-2.8,0.5-4.3,0.5c-15.1,0-30.2,0.1-45.2-0.1
		c-2.7,0-3.5,0.8-3.2,3.3c0.1,0.9,0.4,2.1-0.5,2.9c-0.4-4.3-0.4-8.5,0-12.8C249.2,122,249.2,114.2,249.2,106.4z"/>
	<path fill="#C72427" d="M302.3,206c-14.5,0-29,0-43.4,0c-4.6,0-4.6,0-4.6,4.6c-1.6-5.3-2.7-10.7-2.6-16.4c-0.7-2.2,0.5-4.6-1-6.7
		c0-0.2,0-0.3,0-0.5c0-2.7,0.1-5.4,0-8.1c-0.1-2.2,0.7-2.7,2.8-2.7c16.3,0.1,32.6,0,48.9,0c0.5,1.1,0.2,2.2,0.2,3.3
		c0,8,0,15.9,0,23.9C302.6,204.4,302.8,205.3,302.3,206z"/>
	<path fill="#CA1F20" d="M302.3,206c0-9.9,0-19.8,0-29.7c0-13.5,0-26.9,0-40.4c0-11.6,0-23.2,0-34.8c0-3,0-5.9,0-8.9
		c0-0.8-0.3-1.7,0.5-2.4c0.4,0.7,0.2,1.5,0.2,2.2c0,23,0,46.1,0,69.1c0,0.7,0.2,1.5-0.2,2.2c0,14.5,0,28.9,0,43.4
		C302.1,206.9,302.4,206.4,302.3,206z"/>
	<path fill="#D62A27" d="M249.2,129.9c0,4.3,0,8.5,0,12.8c0,2.9,0,5.8,0,8.7C248.3,144.2,248.3,137,249.2,129.9z"/>
	<path fill="#CB2627" d="M250.7,187.6c1.7,0.9,0.9,2.6,1,3.9c0.1,0.9,0,1.9,0,2.8C250.8,192.2,251.5,189.8,250.7,187.6z"/>
	<path fill="#696969" d="M104.9,183.1c-0.8-1.3-1-2.7-1-4.1c0-21.3-0.1-42.7,0-64c0-4.9,2.2-8.8,7.2-10.6c2.4-0.3,4.8-0.7,7.1,0.6
		c0.5,0.3,1.1,0.6,1.6,0.9c0.2,0.3,0.1,0.5-0.1,0.7c-0.9,0.4-1.7-0.1-2.5-0.3c-5.4-1.4-8.1-0.2-11,4.7c-1,2.3-1.1,4.7-1.1,7.2
		c0,17.2,0,34.5,0,51.7c0,4.3-0.2,8.6,0.5,12.9C105.6,183.1,105.3,183.2,104.9,183.1z"/>
	<path fill="#363636" d="M123.9,112c0.8,0.8,0.5,1.8,0.5,2.7c0,21.5,0,43.1,0,64.6c0,1.9,0,3.8-2,4.8c-0.2-0.3-0.3-0.6-0.3-0.9
		c1.2-2.8,1-5.8,1-8.8c0-20.2,0-40.4,0-60.6C123.3,113.1,123.4,112.5,123.9,112z"/>
	<path fill="#4D4D4D" d="M104.9,183.1c0.2,0,0.3,0,0.5,0c0.5,0.1,0.8,0.4,1.1,0.7c0.6,0.8,1,1.8,1.8,2.5c0.6,0.6,1.1,1.1,1.9,1.4
		c0.2,0.1,0.4,0.2,0.7,0.3c1.7,0.8,3.5,0.5,5.2,0.4c0.7,0,1.5-0.4,2.1,0.3c-1.3,1.9-3.3,1.5-5.1,1.4
		C109.5,190,105.8,186.8,104.9,183.1z"/>
	<path fill="#CECECE" d="M118.3,188.7c-2.8,0.4-5.6,1.5-8.2-0.5c1-1,2.4-0.8,3.6-0.7c3.1,0.2,5.4-0.7,7-3.4c0.3-0.6,0.8-1.1,1.5-1.2
		c0.3,0.1,0.4,0.4,0.1,0.6c0,0.2,0,0.4,0,0.5c0.1,1.6-1.1,2.2-2,3.1C119.9,188,119.1,188.4,118.3,188.7L118.3,188.7z"/>
	<path fill="#2B2B2B" d="M118.2,104.9c-2.3-0.9-4.7-0.7-7.1-0.6C113.6,103.5,116,103,118.2,104.9z"/>
	<path fill="#2B2B2B" d="M119.8,106.4c0-0.2,0-0.4,0-0.6c1.2,0.1,1.9,0.8,2.1,2c-0.2,0.2-0.4,0.3-0.6,0.3
		C120.4,107.9,119.7,107.5,119.8,106.4z"/>
	<path fill="#5D5D5D" d="M123.9,112c0,0.5-0.1,1.1-0.1,1.6c-1.4-0.5-1.3-1.6-1.3-2.7c0.1-0.2,0.3-0.4,0.5-0.5
		C123.3,110.9,123.6,111.4,123.9,112z"/>
	<path fill="#5D5D5D" d="M121.3,107.9c0.2,0,0.4,0,0.6-0.1c0.4,0.8,1.2,1.4,1.1,2.5c-0.1,0.1-0.2,0.2-0.3,0.2c-0.2,0-0.5,0-0.7-0.2
		C121.6,109.7,120.7,109,121.3,107.9z"/>
	<path fill="#4D4D4D" d="M118.3,188.7c0.6-0.6,1.2-1.3,2.1-1.5C120.2,188.4,119.5,188.9,118.3,188.7z"/>
	<path fill="#D72C29" d="M302.8,163.6c0-24.5,0-49.1,0-73.6c0-6.3,0-12.5,0-18.8c0-0.9-0.3-1.9,0.4-2.7c0,31.7,0,63.4,0,95.1
		C303.1,163.6,303,163.6,302.8,163.6z"/>
	<path fill="#C92527" d="M350.9,194.3c0.7,0.7,0.8,1.7,1,2.6c-1.4,1.4-3.1,1.5-4.9,1.5c-5.7,0-11.4,0-17.1,0c-0.8-1-0.5-2.1-0.5-3.2
		c0-12.4,0-24.7,0-37.1c0.2-2.6-0.5-5.3,0.4-8c0.3-0.1-0.1-0.1,0.2-0.1c6.6-0.9,13.2-1,19.8,0.1c0.8,1,0.5,2.1,0.5,3.2
		c0,12.6,0,25.2,0,37.8C350.4,192.2,350,193.3,350.9,194.3z"/>
	<path fill="#C62427" d="M501.2,187.1c0-0.7,0-1.4,0.1-2c0.2-0.2,0.3-0.4,0.4-0.7c0.1-6.1,0-12.2,0.1-18.4c0-1-0.3-2.1,0.5-2.9
		c1.5,0.3,1.3,1.6,1.3,2.7c0.1,2.8,0.1,5.6,0,8.4c0,1.7,0.6,2.5,2.4,2.5c1.5-0.1,3.1-0.1,4.6,0c2,0.1,2.7-0.9,2.7-2.8
		c0-4.6-0.1-9.2,0-13.8c0-1.1-0.1-2.9,1-2.8c1.5,0,0.9,1.8,1,2.9c0.1,1,0,2,0.4,3c0.3,4.2,0.1,8.5,0.2,12.8
		c-0.2,3.9,0.4,7.6,1.9,11.2c0.7,1.1,1.1,2.3,1.8,3.3c2.6,4.7,5.4,9.2,9.8,12.5c2,1.5,4.1,2.7,6.3,3.8c0.6,0.7,1.9,0.6,2,1.9
		c-1.3,0.3-2.4-0.6-3.5-0.9c-1.7-0.4-2.7-2.4-4.3-2.2c-1.3,0.1-2.2,1.7-4,1.7c-5.9-0.2-11.9-0.1-17.8-0.1c-2.7,0-5.4,0-8.1,0
		c-2.1,0-4.5,0.6-5.7-2c-0.2-0.2-0.2-0.4-0.2-0.6c0.5-1,1.5-1.6,1.8-2.8c0.5-1,0.9-2.1,2-2.8c1.3-0.4,0.8-1.9,1.5-2.6
		c0.2,0.2,0.4,0.5,0.5,0.8c-0.1-0.3-0.3-0.6-0.5-0.8c0.6-1.8,1-3.7,1.2-5.6C500.8,189.5,500.9,188.3,501.2,187.1z"/>
	<path fill="#C72427" d="M433.2,206c-5.1-0.2-10.3,0.5-15.3-0.5c-0.1-0.2-0.2-0.4-0.2-0.7c0-12-0.1-24,0.1-36
		c5.2-0.6,10.5-0.9,15.7,0.4c0.4,0.6,0.3,1.3,0.3,2c0,11.3,0.1,22.6-0.3,33.9C433.4,205.4,433.4,205.8,433.2,206z"/>
	<path fill="#DA7072" d="M374.4,85.4c0.6,0.1,0.8,0.6,1,1c0.8,0.9,0.5,1.9,0.5,2.9c0,15.4,0.4,30.7,0.2,46.1c0,16,0,32,0,48
		c0.1,1.8,0.4,3.5,2.3,4.3c0.9,0.4,1.8,0.4,2.7,0.1c3.3-0.7,5.4-2.9,7.3-5.4c1.1-1.5,1.8-3.4,3.9-3.9c0.9-0.8,0.5-1.9,0.5-2.9
		c0-29,0-58,0-87.1c0-2.5,0.6-3.2,3.1-3.2c5.9,0.2,11.7,0.1,17.6,0.1c3.4,0,3.4,0,3.4,3.3c0,32.3,0,64.5,0,96.8c0,1.1,0,2.2,0.1,3.3
		c0,6.3-0.1,12.6-0.1,18.9c-0.4,0.1-0.6,0-0.8-0.3c-0.7-1.5-0.5-3.2-0.5-4.8c0-37,0-74,0-110.9c0-4.8,0-4.8-4.7-4.8
		c-4.4,0-8.9,0-13.3,0c-3.1,0-3.3,0.3-3.3,3.4c0,12.4,0,24.9,0,37.3c0,15.4-0.1,30.8,0.1,46.3c0.1,4.2-1.3,7.4-4.1,10.3
		c-2.2,2.3-4.4,4.5-7.4,5.7c-4.1,1.6-7.5-0.1-8.7-4.4c-0.4-1.5-0.5-3-0.5-4.6c0-30.5,0-61,0-91.5c0-1-0.1-2,0.3-3
		C374,86,374.2,85.7,374.4,85.4z"/>
	<path fill="#E59B9C" d="M374.4,85.4c0,0.2,0,0.4,0,0.5c-1,0.9-2.2,0.8-3.4,0.8c-4.9,0-9.7,0-14.6,0c-3.6,0-3.7,0.1-3.7,3.7
		c0,28.4,0,56.9,0,85.3c0,5.5-0.2,11,0.6,16.6c1,6.6,3.1,12.2,9.2,15.6c0.2,0.3,0.3,0.6,0.3,0.9c-0.3,0.6-0.7,0.5-1.2,0.2
		c-4.9-2.3-7.5-6.4-9.2-11.3c-2.6-36.6-0.4-73.3-1.2-110c0-1.6,0.2-2.6,2.2-2.5C360.4,85.4,367.4,85.4,374.4,85.4z"/>
	<path fill="#C92123" d="M433.2,206c0-12.3,0-24.5,0-36.8c-0.8-0.8-0.8-1.8-0.8-2.9c0-12-0.1-23.9,0.1-35.9c0.1-2.9-0.6-6,1-8.8
		c0.5,2.7,0.4,5.4,0.5,8.1c0,8.6,0,17.3,0,25.9c0,0.9-0.2,1.9,0.2,2.7c0,13.1,0,26.3,0,39.4c-1.1,3-0.1,6.1-0.6,9.1
		c-0.1-0.1-0.3-0.1-0.3-0.2C433.2,206.6,433.2,206.3,433.2,206z"/>
	<path fill="#C72022" d="M329.9,158c0,13.5,0,26.9,0,40.4c0,2.7,0,5.4,0,8.1c0,0.6,0.2,1.5-1,1.1c0-15.3,0-30.7,0-46
		c0.4-0.9,0.1-1.8,0.2-2.7C329.2,158.4,329.2,157.9,329.9,158z"/>
	<path fill="#D56264" d="M416.3,207.6c0.2,0,0.4,0,0.5,0c-0.4,1.1-1.4,1-2.4,1c-6.4,0-12.9-0.1-19.3,0c-2,0-2.4-0.7-2.4-2.5
		c0.1-3.1,0-6.2,0-9.8c-3.8,4-7.3,7.7-11.7,10.3c-0.2-0.2-0.3-0.5-0.3-0.8c0.7-1.9,2.7-2.5,4-3.8c1.9-1.9,3.9-3.8,5.8-5.7
		c0.6-0.6,1.3-1.3,2.2-1c1,0.4,1.2,1.4,1.2,2.3c0.1,2.3,0.1,4.6,0,6.9c-0.1,2.1,0.9,2.9,2.9,2.8c5.7-0.1,11.4,0,17.1,0
		C414.8,207.3,415.5,207.2,416.3,207.6z"/>
	<path fill="#C61D1F" d="M417.9,168.7c0,12.3,0,24.5,0,36.8c0,0.6,0,1.3,0,1.9c-0.2,0-0.3,0-0.5,0c0-6.3,0-12.5,0-18.8
		c0-12.3,0-24.5,0-36.8c0.4-0.1,0.6-0.1,0.8,0.3c1,4.2,0.3,8.5,0.5,12.7C418.7,166.2,418.9,167.6,417.9,168.7z"/>
	<path fill="#DD8283" d="M537.5,208.6c-0.6-0.6-1.8-0.5-2.1-1.5c0.4-0.5,0.9-0.5,1.4-0.4c0.5,0.1,1,0.3,1.5,0.5
		c2.4,0.8,4.7,1.5,7.3,1.3c0.5,0,1.1,0.1,1.6,0.2c1.8,0.5,3.7,0.4,5.5,0c0.7-0.1,1.3-0.2,2-0.2c1.1,0,2.3,0.2,3.4-0.4
		c3.3-0.8,6.3-2.1,9.4-3.5c0.4,0,0.8,0.1,1.1,0.4c-0.2,0.3-0.4,0.7-0.6,1c-1.8,0.8-3.7,1.7-5.5,2.5c-0.7,0.5-1.4,1-2.3,1.1
		c-4.7,0.4-9.3,2.1-14,1C543.4,209.9,540.2,210.3,537.5,208.6L537.5,208.6z"/>
	<path fill="#C62427" d="M537.5,208.6c1.9-0.1,3.7,0.7,5.5,1.2c6.7,1.5,13.1,0.3,19.6-1.2c-0.3,0.7-0.8,1.4-1.6,1.5
		c-5.2,0.5-10.5,1.9-15.7,1c-2-0.3-3.9-0.9-5.9-0.9C538.4,210.1,537.9,209.4,537.5,208.6z"/>
	<path fill="#E08E90" d="M472.5,208.7c0-0.2,0-0.3,0-0.5c0.8-0.8,1.6-0.2,2.4-0.2c4.1,0.4,8.3,1,12.3-0.6c0.6-0.3,1.3-0.4,2,0
		c0.3,0.2,0.3,0.5,0.2,0.7C483.9,210.8,478.2,211.1,472.5,208.7z"/>
	<path fill="#D56264" d="M361.6,209.1c0.4,0,0.7,0,1.1,0c0.3-0.2,0.6-0.4,0.9-0.4c4.7,0.6,9.3,0.2,13.8-1c0.3,0.1,0.5,0.2,0.7,0.5
		C372.7,211,367.3,211.7,361.6,209.1z"/>
	<path fill="#DB2B28" d="M457.7,208.1c0.4-3-0.6-6.2,0.5-9.1C458,202,458.9,205.1,457.7,208.1z"/>
	<path fill="#D76B6D" d="M489.5,208.1c0-0.2,0-0.4,0-0.6c0.9-1.7,2.4-2.6,4.1-3.3c0.3,0,0.5,0.1,0.6,0.3c0,0.2-0.1,0.3-0.1,0.5
		C492.5,206.1,491.4,207.7,489.5,208.1z"/>
	<path fill="#D56264" d="M381,205.9c0,0.2,0,0.5,0.1,0.7c-1,0.5-2,1-3,1.6c-0.1-0.1-0.1-0.2-0.2-0.3c0-1,0.8-1.3,1.5-1.7
		C379.9,206,380.4,205.7,381,205.9z"/>
	<path fill="#ECB6B7" d="M583,165.6c0,8.3,0.7,16.6-2.2,24.6c-1.7,3-2.9,6.4-5.5,8.8c-0.2-0.2-0.4-0.4-0.4-0.7c-0.1-1,0.6-1.7,1-2.5
		c2.5-4.3,4.5-8.6,5-13.7c0.4-4.6,0.9-9.1,0.8-13.7c0-0.8,0-1.7,0.5-2.5C582.5,165.6,582.7,165.6,583,165.6z"/>
	<path fill="#ECB7B8" d="M575.3,198.3c0,0.2,0.1,0.5,0.1,0.7c-2,2.3-4,4.6-6.7,6c-0.3,0-0.7,0-1,0c0-0.1-0.1-0.2-0.1-0.2
		C569.8,202.3,572.2,199.9,575.3,198.3z"/>
	<path fill="#D12827" d="M500.2,104.3c0-0.7,0-1.3-0.1-2c0.4-1.5,1.2-1.7,2.8-1.7c4.9,0.1,9.8,0.6,14.7-0.3c0.3,0,0.6,0.3,0.9,0.4
		c1.3,1.8-0.1,3.4-0.6,4.7c-1.7,4.2-2.4,8.5-2.2,13c0,2.7,0,5.3,0,8c0,1,0.1,2-0.6,2.9c-0.8,0.2-0.8-0.3-0.9-0.8c0-1.3,0-2.7,0-4
		c-0.1,4.7,0.7,9.3,0.5,13.9c-0.2,3.4-0.5,3.9-4.1,4c-1.9,0-3.7,0-5.6,0c-2.1,0-3-1-3.1-3.2c0-3.1,0.3-6.3-0.2-9.4
		c-0.2-6.3,0.1-12.7-0.1-19C501.4,108.6,501.4,106.4,500.2,104.3z"/>
	<path fill="#EFAFAE" d="M523.8,94.6c3.7-3.8,7.8-7,12.7-9.2c0.7-0.5,1.4-0.4,2.1-0.1c0.1,0.3,0.1,0.6-0.2,0.8
		c-3.4,2.2-7.3,3.6-10.3,6.5c-6,5.7-9.4,12.7-10.3,20.8c-2.2,20.1-0.5,40.3-1,60.4c0,1.5,0.4,3,0.7,4.5c0.3,1.4,0.5,2.9,0,4.3
		c-0.1,0.3-0.4,0.4-0.7,0.4c-0.5-0.2-0.5-0.7-0.6-1.1c-0.6-1.8-0.4-3.7-0.8-5.5c0-0.3,0-0.6,0-0.9c-0.3-18.9-0.9-37.9,0-56.8
		c0.2-8.7,2.5-16.6,7.8-23.6C523.2,95,523.5,94.8,523.8,94.6z"/>
	<path fill="#DF5654" d="M538.5,85.4c-0.7,0-1.3,0-2,0.1c2.7-2.1,6.1-2.2,9.1-2.5c8.2-0.8,16.1,0.5,23.1,5.5
		c0.1,0.1,0.2,0.3,0.1,0.4c0,0.1-0.1,0.2-0.1,0.2c-2,0.5-3-1.6-4.7-1.8c-0.3-0.1-0.5-0.2-0.7-0.3c-6.1-2.9-12.5-2.8-19-2.2
		C542.3,85,540.5,85.5,538.5,85.4z"/>
	<path fill="#CE2F30" d="M568.7,89c0-0.2,0-0.4,0-0.5c3,1,4.7,3.4,6.6,5.6c0.6,0.7,0.8,1.9,2,2.1c1.5,3.2,3.2,6.3,4.4,9.6
		c0.5,1.4,0.8,2.7,0.7,4.2c-0.2,0.1-0.4,0.2-0.6,0c-1-1.1-1.1-2.6-1.7-3.8c-0.1-0.2-0.2-0.4-0.2-0.7c-0.7-3.3-2.6-6-4.4-8.7
		c-1.4-2.1-3-4.1-5.1-5.6C569.7,90.7,568.6,90.2,568.7,89z"/>
	<path fill="#CF2C2C" d="M523.8,94.6c-5.3,6.9-7.6,14.9-8.3,23.5c-0.1,0.2-0.3,0.2-0.5,0.1c-0.8-3.7,0.6-7.2,1.2-10.7
		c0.4-2.2,2-4.3,2.3-6.7c1.7-1.4,2.2-3.7,3.8-5.2C522.8,95.1,523.1,94.6,523.8,94.6z"/>
	<path fill="#D02727" d="M349.9,150.3c-6.6,0-13.3,0-19.9,0c-0.7-0.8-0.5-1.8-0.5-2.7c0-12.4,0-24.7,0-37.1c0-0.9-0.2-1.9,0.5-2.7
		c6.6,0,13.3,0,19.9,0c0.8,0.9,0.5,1.9,0.5,2.9c0,7.7,0,15.4,0,23.1c0,4.6,0,9.2,0,13.7C350.4,148.6,350.6,149.5,349.9,150.3z"/>
	<path fill="#CB2627" d="M378.5,188.2c-2.6,0.1-2.2-2.2-3-3.6c0.7-1,0.5-2.1,0.5-3.2c0-11.6,0-23.3,0-34.9c0-1.1-0.2-2.2,0.3-3.3
		c0.2-0.2,0.4-0.4,0.6-0.4c5-0.6,10-0.6,15-0.1c0.4,7.8,0,15.6,0.2,23.4c0.1,4-0.3,7.9,0.2,11.9c0,0.1,0,0.3,0,0.4
		c-2.6,2.4-3.9,5.9-6.9,8c-1.3,0.9-2.5,2-4.3,1.8C380.2,188.5,379.3,188.5,378.5,188.2z"/>
	<path fill="#D12827" d="M391.8,142.7c-5.1,1.1-10.2,0.2-15.3,0.5c-1-1.7-0.4-3.6-0.5-5.5c-0.1-2.1,0-4.2,0-6.3c0-7.4,0-14.7,0-22.1
		c0-1-0.3-2,0.5-2.9c3.6,0,7.1,0,10.7,0c2,0,3.8,0,3.8-2.7c0-0.3,0.5-0.6,0.8-0.9c0.4,0.5,0.2,1.1,0.2,1.7c0,12.1,0,24.3,0,36.4
		C392,141.5,392.2,142.1,391.8,142.7z"/>
	<path fill="#D12726" d="M433.7,129.9c0-2.5,0-5,0-7.6c-0.2,0-0.3,0-0.5,0c0,2.7,0,5.4,0,8.1c-0.5,0.5-1.2,0.7-1.8,0.7
		c-4,0.1-7.9,0.2-11.9,0c-0.6,0-1.2-0.2-1.6-0.6c-0.5-6.3-0.1-12.6-0.2-18.8c0-3.1-0.3-6.3,0.2-9.4c0.5,0.2,1,0.6,0.9,1.1
		c-0.1,2.8,1.5,3.1,3.8,3c2.6-0.1,5.3-0.2,7.9,0c2.1,0.1,2.8-0.5,2.8-2.7c-0.1-9.5,0-19.1,0-28.6c0-0.8,0-1.7,0-2.5
		c0.2,0,0.3,0,0.5,0c0,6.5,0,13,0,19.5c0,1-0.4,2.1,0.5,2.9c0,11.6,0,23.2,0,34.8C434,130.1,433.9,130.1,433.7,129.9z"/>
	<path fill="#CE2222" d="M329.9,107.9c0,14.1,0,28.3,0,42.4c0,2.6,0,5.1,0,7.7c-1.1,1,0.1,2.6-1,3.6c0-20.1,0-40.2,0-60.3
		c0.8-0.8,0.5-1.8,0.5-2.7c0-5.5,0-11,0.5-16.6C329.9,90.6,329.9,99.3,329.9,107.9z"/>
	<path fill="#CA2122" d="M349.9,150.3c0-5.5,0-10.9,0-16.4c0.3-0.3,0.7-0.3,1,0c0,20.1,0,40.2,0,60.3c-0.4,0.4-0.8,0.5-0.9-0.1
		c-0.1-0.7-0.1-1.5-0.1-2.3C349.9,178,349.9,164.2,349.9,150.3z"/>
	<path fill="#D22422" d="M350.9,134c-0.3,0-0.7,0-1,0c0-8.7,0-17.4,0-26.1c0-7.2,0-14.4,0-21.6c0.3,0,0.7,0,1,0
		C350.9,102.2,350.9,118.1,350.9,134z"/>
	<path fill="#D12322" d="M376.5,106.4c0,8.3,0,16.7,0,25c-0.5,0.9-0.1,2-0.3,2.9c-0.1,0.5,0.2,1.3-0.8,1.2c0-16.4,0-32.7,0-49.1
		c1.8-0.5,1,1,1,1.5C376.5,94.1,376.5,100.2,376.5,106.4z"/>
	<path fill="#CE1F1F" d="M391.8,142.7c0-13.3,0-26.6,0-39.9c0-5.4,0-10.9,0-16.3c0.2,0,0.3,0,0.5,0c0,30.5,0,60.9,0,91.4
		c-0.8-0.8-0.5-1.8-0.5-2.6C391.8,164.4,391.8,153.5,391.8,142.7z"/>
	<path fill="#CF201F" d="M417.9,102.3c0,9.4,0,18.7,0,28.1c0.7,0.8,0.8,1.8,0.8,2.9c0,5.3,0,10.5,0,15.8c0,1,0,2.1-0.8,2.8
		c-0.2,0-0.3,0-0.5,0c0-21.8,0-43.5,0-65.3c0.2,0,0.3,0,0.5,0C417.9,91.8,417.9,97,417.9,102.3z"/>
	<path fill="#FEFEFE" d="M303.8,137.5c0-22.4,0-44.8,0.1-67.2c0-2.7-0.8-3.3-3.3-3.2c-6.6,0.2-13.3,0-19.9,0.1
		c-1.8,0-2.6-0.4-2.5-2.4c0.1-6.2,0.1-12.4,0-18.7c0-1.7,0.5-2.2,2.2-2.2c24.2,0,48.4,0,72.6,0c1.8,0,2.3,0.6,2.3,2.4
		c-0.1,6-0.1,12.1,0,18.1c0,2.1-0.5,2.8-2.7,2.8c-7-0.1-14,0-21,0c-3.3,0-3.3,0-3.3,3.4c0,44.6,0,89.3,0,133.9c0,3.5,0,3.5-3.4,3.5
		c-6.1,0-12.3-0.1-18.4,0c-2.2,0-2.7-0.7-2.7-2.8C303.9,182.7,303.9,160.1,303.8,137.5C303.9,137.5,303.8,137.5,303.8,137.5z"/>
	<path fill="#FEFEFE" d="M493.5,204.5c-1.4,1-2.7,2-4.1,3c-3.9,1.8-8,1.8-12.1,1.5c-0.9-0.1-1.8-0.3-2.7-0.5c-1.6-1.1-3.6-1-5.1-2
		c-3.9-2-7.2-4.8-10.1-8c-0.5-0.6-1.1-1.6-2-1.3c-0.9,0.4-0.5,1.5-0.5,2.3c0,2.1,0,4.3,0,6.4c0,0.9,0,1.9-1.2,1.9
		c-6.8-0.1-13.6,0.5-20.4-0.3c-0.5-0.9-0.2-1.8-0.2-2.8c0-52.5,0-105,0-157.6c0-0.9-0.2-1.9,0.2-2.8c0,0,0,0,0,0
		c6.1,0,12.3,0.1,18.4,0c2.2,0,2.7,0.7,2.7,2.8c-0.1,15.3,0,30.7,0,46c0,0.8-0.1,1.7,0.1,2.5c0.4,1.3,0.9,2,2.2,0.5
		c4.1-4.6,8.5-8.8,14.6-10.7c3.3-1,6.6-1.4,10-0.9c0.9,0.1,1.8,0.3,2.8,0.3c3.6,1.3,6.4,3.6,8.7,6.7c2.2,4,3.8,8.2,4.3,12.6
		c0.5,3.9,1.3,7.9,1.3,11.9c0.1,21,0,42.1,0,63.1c0,4.4-1.5,8.7-1,13.2c-0.3,1.4-0.7,2.7-1,4.1c-0.7,2.4-2,4.5-3.1,6.7
		C494.7,203.7,494.1,204.2,493.5,204.5z"/>
	<path fill="#F5CECE" d="M435.2,44.5c0,0.4,0.1,0.8,0.1,1.3c0,53.9,0,107.9,0,161.8c-0.8-0.7-0.4-1.6-0.4-2.4
		c0-52.8,0-105.5,0-158.3C434.8,46.1,434.5,45.2,435.2,44.5z"/>
	<path fill="#CD2727" d="M433.7,129.9c0.2,0,0.3,0,0.5,0c0,9.5,0,19.1,0,28.6c-0.8-0.8-0.5-1.8-0.5-2.7
		C433.7,147.2,433.7,138.5,433.7,129.9z"/>
	<path fill="#F0CACA" d="M469.5,206.6c1.8,0.5,3.7,0.7,5.1,2c-0.7-0.1-1.4-0.3-2.1-0.4C471.3,208,470.3,207.4,469.5,206.6z"/>
	<path fill="#D72A27" d="M500.2,104.3c2.3,1.6,1.3,4,1.5,6.1c0.3,0.5,0.2,1,0.2,1.5c-0.2,15.3,0.9,30.6,0.4,45.9
		c-0.3,8.7-0.4,17.5-0.4,26.2c0,0.3-0.1,0.7-0.2,1c-0.2,0-0.3,0-0.5,0c0-19.3,0.1-38.6,0-57.9C501.2,119.5,502,111.9,500.2,104.3z"
		/>
	<path fill="#ECBABB" d="M494.5,203c1.2-2.2,2.4-4.4,3.6-6.6c-0.2,0.8-0.3,1.7-0.5,2.5c-0.1,1.2-1.1,2-1.6,3
		C495.6,202.4,495.5,203.3,494.5,203z"/>
	<path fill="#D72A27" d="M501.2,187.1c0,1.3,0.1,2.6-0.9,3.6C500.2,189.4,500.6,188.2,501.2,187.1z"/>
	<path fill="#CE2F30" d="M583.5,150.8c-0.9,0.9-1.9,0.5-2.9,0.5c-13.7,0-27.4,0-41.1,0c0-0.4,0.1-0.6,0.4-0.8c1-0.5,2-0.4,3-0.4
		c12.4,0,24.8,0,37.2,0c1,0,2-0.1,3,0.4C583.3,150.6,583.4,150.7,583.5,150.8z"/>
	<path fill="#DA6F70" d="M554.3,187.6c3.3-2.1,4.4-5.5,4.5-9.1c0.1-4,0.8-7.9,0.5-11.9c0-0.6,0-1.2,0.5-1.6c0.1,0.1,0.2,0.2,0.3,0.3
		c0.2,0.3,0.3,0.5,0.3,0.8c0.5,5,0,10.1-0.6,15c-0.4,3.1-1.5,6.4-5.4,7.2C554.3,188.2,554.2,187.9,554.3,187.6z"/>
	<path fill="#CE2F30" d="M584,122.7c0.9,0.7,0.5,1.7,0.5,2.6c0,8.2,0,16.3,0,24.5c0,0.7-0.4,1-1,1c0,0,0,0,0,0
		c-0.5-3.4-0.1-6.8-0.2-10.2c-0.1-4.9,0-9.9,0-14.8C583.3,124.8,583.1,123.6,584,122.7z"/>
	<path fill="#D24E50" d="M554.3,187.6c0,0.2,0,0.4,0.1,0.6c0,0.5-0.3,0.7-0.7,0.9c-3.5,1-6.9,1.1-10-1c-1.8-1.2-3.2-2.7-3.5-5
		c0-0.3,0.2-0.5,0.4-0.7c0.1,0.1,0.3,0.2,0.4,0.3C543.9,188.9,548.4,189.1,554.3,187.6z"/>
	<path fill="#DA6F70" d="M583,165.6c-0.2,0-0.4,0-0.5,0c-0.2,0-0.3,0.1-0.5,0.1c-6.6,0.3-13.2,0.1-19.8,0.1c-0.8,0-1.5-0.1-2.1-0.6
		c0,0-0.2-0.2-0.2-0.2c1.5-0.7,3-0.3,4.5-0.4c5.4-0.1,10.9,0,16.3,0C581.6,164.7,582.7,164.2,583,165.6z"/>
	<path fill="#D34D4E" d="M539.6,150.9c0,0.1-0.1,0.3-0.1,0.4c0,7,0,14,0,21c-0.4,0.1-0.6,0-0.8-0.3c-0.7-1.6-0.4-3.3-0.4-5
		c0-4.4,0-8.8,0-13.2c0-1.1-0.2-2.2,0.8-3C539.3,150.9,539.5,150.9,539.6,150.9z"/>
	<path fill="#D24E50" d="M539,172.3c0.2,0,0.3,0,0.5,0c0,0.3,0,0.6,0.1,1c0.6,1.2-0.2,2.5,0.5,3.6c0,1,0.1,2,0.1,3
		c-0.1,0-0.3,0.1-0.4,0.1C537.9,177.6,537.9,175,539,172.3z"/>
	<path fill="#D34D4E" d="M540,176.9c-1-1.1-0.3-2.4-0.5-3.6C540.5,174.4,539.9,175.7,540,176.9z"/>
	<path fill="#D24E50" d="M540.1,179.9c0.7,0.7,0.3,1.7,0.5,2.5c-0.1,0.1-0.1,0.1-0.2,0.2c-1.4-0.6-1.1-1.5-0.5-2.6L540.1,179.9z"/>
	<path fill="#D34D4E" d="M584,122.7c0,8.5,0,16.9,0,25.4c0,0.9,0,1.9-0.5,2.7c-14.6,0-29.3,0.1-43.9,0.1c0,0-0.2-0.2-0.2-0.2
		c0.7-1.6,2.1-1.1,3.3-1.1c11.8,0,23.6,0,35.4,0c4,0,4.1-0.1,4.1-3.9c0-8,0-16,0-24c0-3.1,0-6.1-0.8-9.1c-0.2-0.9-0.3-1.9,0.4-2.6
		c0.2,0,0.4,0,0.5,0c1.2,3.6,1.1,7.2,1.1,10.9C583.5,121.5,583.4,122.2,584,122.7z"/>
	<path fill="#FEFEFE" d="M121.3,107.9c-0.1,1.1,1.1,1.5,1.1,2.5c1.3,3.2,1.3,6.6,1.3,10c0,18.8,0,37.6,0,56.4c0,2.2-0.3,4.2-1.4,6.1
		c-2.3,5.7-7.3,5.5-12.2,5.2c0,0,0,0,0,0c-0.7-0.5-1.3-1.2-2.1-1.5c-1.2-0.5-1.3-1.8-1.9-2.7c-1.4-3.5-1.3-7.1-1.3-10.7
		c0-16.4,0-32.8,0-49.3c0-4.7-0.4-9.5,1.2-14.1c3.6-5.4,6.7-6.2,13.8-3.5C120.3,106.9,120.8,107.4,121.3,107.9z"/>
	<path fill="#C3C3C3" d="M106,109.9c-2.3,19.5-0.5,39.1-1,58.7c-0.1,5.2-0.3,10.3,1.1,15.4c-0.5-0.1-0.5-0.6-0.7-0.9
		c-1.2-3-1-6.2-1-9.3c0-18.9,0-37.7,0-56.6C104.4,114.6,104.8,112.2,106,109.9z"/>
	<path fill="#B0B0B0" d="M122.3,183c1.6-4.8,1.1-9.8,1.1-14.7c0-16.9-0.1-33.7,0.1-50.6c0-2.5-1.2-4.8-1.1-7.3c0.1,0,0.3,0,0.4,0.1
		c0.4,1,0.7,2,1.1,3c0,21.6,0,43.1,0.1,64.7c0,1.9-0.4,3.7-1.5,5.3C122.3,183.4,122.3,183.2,122.3,183z"/>
	<path fill="#CECECE" d="M108,186.7c1.2-0.1,1.7,0.6,2.1,1.5C109,188.2,108.5,187.4,108,186.7z"/>
	<path fill="#CB2627" d="M502.2,129.9c1.1,2.9,0.4,5.9,0.4,8.8c0,2.3,0.5,3.3,3,3c1.9-0.2,3.9-0.2,5.9,0c2.1,0.2,2.6-0.7,2.5-2.6
		c-0.1-5.6,0-11.2,0.1-16.8c0.9,2.3-0.4,4.9,0.9,7.1c0.4,0.5,0.2,1.1,0.2,1.7c0,10.1,0,20.2,0,30.3c0,0.6,0.1,1.2-0.2,1.7
		c-1.2-1.7,0-3.8-1-5.6c0,5.8-0.1,11.5,0,17.3c0,1.9-0.4,2.8-2.5,2.6c-2.1-0.2-4.3-0.2-6.4,0c-2,0.1-2.5-0.7-2.4-2.5
		c0.1-3.1,0.1-6.3,0-9.4c0-0.8,0.3-1.7-0.5-2.4c-0.3-0.4-0.3-0.8-0.3-1.2c0-10.3,0-20.5,0-30.8C502,130.7,502,130.3,502.2,129.9z"/>
	<path fill="#CB1F20" d="M502.2,129.9c0,11.1,0,22.2,0,33.2c0,7.2,0,14.5,0,21.7c0,0.1,0,0.2-0.1,0.2c-0.1,0-0.3,0-0.4,0.1
		c0-24.9,0-49.7,0-74.6c0.8,0.8,0.5,1.7,0.5,2.6C502.2,118.7,502.2,124.3,502.2,129.9z"/>
	<path fill="#DA6C6E" d="M515,163.1c0-11.2,0-22.5,0-33.7c0-3.7,0-7.5,0-11.2c0.2,0,0.3-0.1,0.5-0.1c0,19.4,0,38.9,0,58.3
		c-0.2,0.2-0.4,0.2-0.5-0.1C515,171.9,515,167.5,515,163.1z"/>
	<path fill="#EFC3C4" d="M536.9,207.1c-0.5,0-1,0-1.5,0c-6.8-2.6-11.4-7.5-15-13.7c-0.5-0.9-0.9-1.8-1.4-2.7
		c-0.2-0.8-0.9-1.5-0.6-2.5c1.1-0.5,1.4,0.4,1.7,1c3.3,7.6,8.6,13.3,16.2,16.7C536.7,206.2,537.2,206.5,536.9,207.1z"/>
	<path fill="#CF2C2C" d="M515,176.3c0.2,0,0.3,0.1,0.5,0.1c0,0.2,0,0.3,0,0.5c0.4,1.7,0.1,3.5,1,5.1c0,0.3,0.1,0.6,0.1,0.9
		c0.6,1.5,1.7,2.9,0.9,4.7c-0.7-0.4-1.4-0.9-1.4-1.7C516.1,182.7,514.3,179.7,515,176.3z"/>
	<path fill="#DA6C6E" d="M517.5,187.7c-0.2-1.6-1.4-2.9-0.9-4.7c0.1,0,0.3,0,0.4,0.1c1.4,1.4,1.9,3.1,1.5,5.1
		c0.2,0.9,0.3,1.7,0.5,2.6C518.1,189.9,517.8,188.8,517.5,187.7z"/>
	<path fill="#DA7274" d="M494.5,203c0.5-0.3,1-0.7,1.5-1c-0.1,1.3-1.1,1.9-1.9,2.6c-0.2,0-0.4,0-0.7-0.1
		C493.8,204,494.2,203.5,494.5,203z"/>
	<path fill="#C22326" d="M499.1,196.3c1.3,0.2,1.1,0.9,0.6,1.9C498.9,197.6,499.2,196.9,499.1,196.3
		C499.1,196.3,499.1,196.3,499.1,196.3z"/>
	<path fill="#CD2727" d="M417.9,151.9c0-7.2,0-14.3,0-21.5c5.1,0,10.2,0,15.3,0c0,13,0,25.9,0,38.9c-5.1-0.2-10.3,0.5-15.3-0.5
		C417.9,163.1,417.9,157.5,417.9,151.9z"/>
	<path fill="#FEFEFE" d="M381,205.9c-0.5,0.2-1,0.4-1.5,0.6c-5.4,3-11,3.6-16.9,2c-6.4-2.7-8.6-8-9.8-14.3
		c-1.3-6.8-0.9-13.6-0.9-20.3c-0.1-28.3,0-56.7-0.1-85c0-2.5,0.7-3.1,3.1-3.1c6.5,0.2,12.9,0.1,19.4,0.1c0.1,0.9,0.1,1.9,0.1,2.8
		c0,31.1,0,62.2,0,93.3c0,2.4,0,4.8,2.1,6.5c2.1,1.7,4.6,1.6,7.6-0.3c3.6-2.4,6.3-5.7,8.7-9.2c0.7-1,0.4-2.2,0.4-3.2
		c0-29,0-57.9-0.1-86.9c0-2.5,0.7-3.2,3.1-3.1c5.5,0.2,11.1,0.2,16.6,0c2.5-0.1,3.3,0.5,3.3,3.2c-0.1,39.5-0.1,79.1-0.1,118.6
		c-2.9,0.8-5.9,0.3-8.9,0.3c-3.9,0.1-7.8,0-11.7,0.1c-1.7,0-2.5-0.4-2.4-2.3c0.1-2.7,0-5.4,0-8.2c0-0.7,0.2-1.5-0.6-1.8
		c-0.7-0.3-1,0.5-1.4,0.9C388.3,200.1,384.7,203.1,381,205.9z"/>
	<path fill="#CB2122" d="M375.4,135.5c1.2-1.1-0.2-3,1-4.1c0,3.9,0,7.8,0,11.8c0,12.9,0,25.8,0,38.7c0,1,0.7,2.3-1,2.8
		C375.4,168.2,375.4,151.9,375.4,135.5z"/>
	<path fill="#D52A27" d="M378.5,188.2c0.9,0,1.8,0,2.6,0C380.2,188.9,379.3,188.9,378.5,188.2z"/>
	<path fill="#EFC6C7" d="M362.6,208.6c3.6,0.3,7.2,0.9,10.8,0.1c2.1-0.5,3.9-2,6.1-2.1c-0.6,0.5-1.1,0.9-1.7,1.4
		c-4.9,2-10,2.3-15.2,1.1C362.7,208.9,362.6,208.8,362.6,208.6z"/>
	<path fill="#FEFEFE" d="M518.6,188.2c-0.5-1.7-1-3.4-1.5-5.1c0.5-3.4-1.1-6.5-1-9.8c0.1-17.3-0.3-34.6,0.2-51.9
		c0.2-8.5,1.7-17,7-24.3c3.9-5.4,9-9.1,15.3-11.2c5-2.2,10.2-1.9,15.4-1.6c3.5,0.2,6.9,1.2,10.2,2.6l0,0c4.4,2.5,8.7,5.1,11.5,9.6
		c2.2,2.8,3.5,6.1,4.9,9.3l0,0c0.3,2.7,1.5,5.2,1.5,7.9c0,1.2,0.2,2.4,0.7,3.6c0.2,10.2,0,20.4,0.1,30.6c0,2-0.9,2.1-2.5,2.1
		c-12.8,0-25.5,0-38.3,0c-3.2,0-3.2,0-3.2,3.3c0,7.5,0,15,0,22.5c0,2.6,0.6,5.1,1.5,7.4c2.3,6,9,8,13.6,5.4c0.2-0.1,0.4-0.3,0.5-0.4
		c3.7-1.8,5-5.1,5.2-8.9c0.3-4.5,0.3-9.1,0.4-13.7c2-0.6,4-0.3,6-0.3c5.5,0.1,11-0.3,16.4,0.2c0,0,0,0,0,0
		c0.3,6.6-0.2,13.2-1.2,19.7c-0.6,4.2-2.7,7.9-5.2,11.4c-0.3,0.5-0.8,0.9-0.9,1.5c-2.4,2.5-5,4.6-7.6,6.8c-2.8,1.8-6,2.8-9.2,3.6
		c-1.1,0.7-2.5-0.2-3.6,0.5c-0.7,0-1.4,0-2,0c-1.9,0.4-3.8,0.4-5.6,0c-0.5,0-1,0-1.5,0c-2.6-0.1-5.1-1-7.7-1.4
		c-0.3-0.2-0.7-0.4-1-0.5c-4-2.1-8-4.2-11-7.7c-2.7-3.1-5.1-6.4-6.5-10.4C519.3,188.7,518.9,188.4,518.6,188.2z"/>
	<path fill="#EFC3C4" d="M538,207.7c2.7-0.2,5.1,1.1,7.7,1.4C542.9,209.5,540.4,208.6,538,207.7z"/>
	<path fill="#EEC3C4" d="M547.2,209.1c1.9,0,3.8,0,5.6,0C550.9,210,549.1,209.9,547.2,209.1z"/>
	<path fill="#EEC3C4" d="M554.9,209.1c1.1-0.8,2.4-0.4,3.6-0.5C557.3,209.5,556.1,209.1,554.9,209.1z"/>
	<path fill="#F2BFBE" d="M564.1,86.9c-3.3-0.4-6.2-2-9.5-2.2c-5.1-0.4-10.1-0.6-15,1.1c-0.3,0.1-0.7,0-1,0.1c0-0.2,0-0.3,0-0.5
		c5.4-2.1,11-1.8,16.5-1.3C558.2,84.4,561.4,84.9,564.1,86.9z"/>
	<path fill="#DA6C6E" d="M516.5,182.1c-1.4-1.5-1-3.4-1-5.1C516.1,178.6,516.5,180.3,516.5,182.1z"/>
	<path fill="#F2BFBE" d="M575.3,96.6c-2.9-4.3-7.3-6.8-11.2-9.7c1.9-0.2,2.9,1.8,4.6,2.1c2.7,2.2,5.7,4.3,7.3,7.6
		C575.8,96.9,575.5,96.9,575.3,96.6z"/>
	<path fill="#F3C6C6" d="M581.5,113.5c-0.1-1.7-0.3-3.4-1-4.9c-0.5-0.9-0.8-1.9,0-2.8c0.9,1.2,1.1,2.7,1.5,4.1
		c2,12.4,0.8,25,1.2,37.4c0.1,2.5-0.7,3.2-3.1,3.1c-12.6-0.1-25.2-0.1-37.8,0c-0.9,0-1.9-0.2-2.7,0.3c-0.5,0.3-0.5,0.8-0.5,1.3
		c0,6.7,0.1,13.5,0.1,20.2c0.1,2.6-0.3,5.3,0.9,7.7c0.1,0.9,0,1.8,0.5,2.6c2.3,5.6,6.1,7.5,11.9,6.2c0.5-0.1,1-0.1,1.5-0.1
		c-2.2,2.8-8,1.4-10.7-0.7c-3.2-2.6-4.5-6.3-4.6-10.1c-0.3-8.4-0.1-16.9-0.2-25.3c0-2.2,0.9-2.7,2.9-2.7c12.8,0.1,25.6,0,38.3,0.1
		c2.2,0,2.9-0.5,2.9-2.8c-0.1-9.2-0.1-18.4-0.1-27.6c0-0.8,0.2-1.7-0.5-2.4C581.3,116,582.1,114.6,581.5,113.5z"/>
	<path fill="#F3C6C6" d="M575.3,96.6c0.2,0,0.4,0,0.6,0c2.3,2.7,4,5.7,4.5,9.2c-2-1.2-1.6-3.8-3-5.5C576.6,99.3,576,97.9,575.3,96.6
		z"/>
	<path fill="#EFB8B7" d="M456.6,109.8c2.6-4.6,11.5-8,16.3-5.2c3.5,2.1,4.5,5.5,4.8,9.3c0.4,2.2,0.2,4.4,0.1,6.6
		c-1.8-0.1-1.4-1.6-1.4-2.6c0-2.5-0.3-4.9-1-7.3c-1.3-4.3-4.8-6.2-9.2-5c-1.2,0.3-2.3,0.6-3.4,1.1c-3.3,1.6-5.1,3.6-5.1,7.8
		c0.2,23.2,0.1,46.5,0.1,69.7c-0.3,0.6-0.7,0.5-1.2,0.2c0-0.1-0.1-0.3-0.1-0.4c-0.3-0.6-0.2-1.3-0.2-2c0-23.4,0-46.8,0-70.3
		C456.5,111.2,456.4,110.5,456.6,109.8z"/>
	<path fill="#EDB9BA" d="M477.6,120.9c0-2.3,0.1-4.6,0.1-6.9c0.6,0.8,0.4,1.8,0.4,2.7c0,19.7,0,39.4,0,59.1c0,3.4-0.9,6.6-2.3,9.8
		c-0.7,1.6-2.1,2.1-3.2,3.2c-0.4,0.2-0.7,0.2-1.1,0.1c-0.1-1.5,1.4-1.8,2-2.8c2.6-2.8,2.5-6.3,2.9-9.7c0.2-1.5-0.1-3,0.4-4.5
		c0.3-1.3,0.2-2.5,0.2-3.8c0-14.5,0-28.9,0-43.4C477,123.3,476.7,122,477.6,120.9z"/>
	<path fill="#EFC4C5" d="M456.6,109.8c0,24.8,0,49.5,0,74.3c-0.7-0.8-0.4-1.8-0.4-2.7c0-23,0-45.9,0-68.9
		C456.2,111.6,456,110.7,456.6,109.8z"/>
	<path fill="#EFC4C5" d="M471.5,188.6c0.4,0,0.8,0,1.2,0.1c-3.5,2.7-6.9,1.2-10.3-0.3c-2.1-0.9-3.9-2.3-5.6-3.8c0.3,0,0.7,0,1,0
		c1.1-0.7,1.7,0.3,2.4,0.7c3.1,2.3,6.4,3.7,10.4,3C470.9,188.2,471.2,188.4,471.5,188.6z"/>
	<path fill="#ECB6B7" d="M582.5,165.6c-7.5,0-15,0-22.5,0.1c0-0.2,0-0.3,0-0.5c6.9,0,13.9,0,20.8-0.1
		C581.4,165.2,582.1,165.1,582.5,165.6z"/>
	<path fill="#F1BEBE" d="M549.2,132.5c-2.9,0-5.8-0.1-8.7,0c-1.5,0-2.1-0.5-2.1-2.1c0.1-5.6-0.2-11.2,0.2-16.8
		c0.2-3.5,1.3-7.1,4.8-8.7c4.2-2,8.7-2.1,12.6,0.5c2.6,1.7,3.8,4.8,3.9,8c0.2,5.6,0,11.2,0.1,16.9c0,1.9-0.7,2.3-2.4,2.3
		C554.8,132.4,552,132.5,549.2,132.5z"/>
	<path fill="#F6D6D6" d="M581.5,113.5c0.9,1.1,0.3,2.4,0.5,3.5C581,116,581.6,114.7,581.5,113.5z"/>
	<path fill="#D22928" d="M459.8,185.6c-0.7-0.4-1.3-0.7-2-1.1c-0.7-1-0.7-2.1-0.7-3.2c0-23.1,0-46.2,0-69.2c0-1.7,0.6-2.8,1.9-3.8
		c3.6-2.6,7.3-4.7,12-3.4c3,0.8,4.5,2.9,5.2,5.7c0.6,2.5,1.2,5,1,7.6c-0.1,0.9,0,1.9,0.4,2.7c0,16.2,0,32.3-0.1,48.5
		c0,1,0.3,2-0.3,3c-1-1-0.7-2.2-0.7-3.4c0-7.7,0-15.4,0-23.2c0-1.2,0.1-2.4-0.3-3.5c-0.2-6.6-0.5-13.2,0.1-19.7
		c0-0.2-0.3,0.1-0.5,0.1c-5.5,0.7-10.9,0.4-16.4,0.2c-0.4,0-0.8-0.2-1.1-0.5c-0.6-3.1,0-6.2-0.3-9.2c1,22.9,0.3,45.8,0.6,68.7
		c-0.2,1.5,1.7,2,1.5,3.5C459.9,185.4,459.8,185.5,459.8,185.6z"/>
	<path fill="#CE2727" d="M476.7,142.1c0.8,0.8,0.5,1.8,0.5,2.6c0,9.2,0,18.4,0,27.5c0.1,3.3-0.2,6.6-1,9.8c-0.4,1.8-1,3.4-2.6,4.5
		c-0.1-0.1-0.2-0.2-0.3-0.3c1.9-4.7,1-9.8,2.2-14.7c0.4-1.1,0.3-2.2,0.3-3.3c0-7.6,0-15.3,0-22.9
		C475.9,144.4,475.7,143.1,476.7,142.1z"/>
	<path fill="#D22928" d="M471.5,188.6c-4.5,1.2-8.3-0.2-11.7-3c0,0,0.1-0.1,0.1-0.1c0.9-0.7,1.8-0.2,2.6,0.2
		c3.2,1.7,6.5,2.3,9.9,0.7c0.4-0.2,0.8-0.1,1.2,0.1c0,0,0.1,0.1,0.1,0.1C473.2,187.7,472.2,188,471.5,188.6z"/>
	<path fill="#D12827" d="M549.2,131.9c-2.8,0-5.6,0-8.4,0c-1.1,0-1.8-0.2-1.8-1.5c0.1-6.1-0.3-12.2,0.9-18.3c1.3-6.2,5.9-9,12.1-7.5
		c4.7,1.2,6.6,3.9,7.1,9.8c0.4,5.1,0.3,10.2,0.4,15.3c0,1.6-0.4,2.3-2.1,2.2C554.6,131.8,551.9,131.9,549.2,131.9z"/>
	<path fill="#CE2727" d="M458.3,122.2c6,0,11.9,0,17.9,0c0.1,0.2,0.2,0.3,0.2,0.5c0,12.1,0.2,24.2-0.1,36.3
		c-0.6,0.7-1.5,0.8-2.3,0.8c-4.2,0.1-8.4,0.1-12.6,0c-1.2,0-2.4-0.2-3.2-1.2c-0.3-10-0.1-20-0.1-30
		C458,126.4,457.7,124.3,458.3,122.2z"/>
	<path fill="#C82527" d="M458.3,158.5c5.9,1,11.9,0.3,17.9,0.5c0.4,4.4,0.4,8.9,0,13.3c-0.8,1.3-0.6,2.8-0.5,4.2
		c0.3,3.6-0.4,6.9-2.1,10.1c-4,2.5-8,1.9-11.8-0.4c-0.6-0.4-1.2-0.6-1.9-0.6c0-1.4-1.7-1.4-2.1-2.5c0.5-2.5,0.2-5,0.2-7.6
		C458.2,169.8,457.7,164.2,458.3,158.5z"/>
	<path fill="#CB1E1F" d="M458.3,158.5c0,7.3,0,14.6,0,21.9c0,0.9,0.3,1.9-0.5,2.6c0-24,0-47.9,0-71.9c0.2,0,0.3,0,0.5,0
		c0,3.7,0,7.4,0,11.1C458.3,134.3,458.3,146.4,458.3,158.5z"/>
	<path fill="#CB1F20" d="M476.1,172.3c0-4.4,0-8.9,0-13.3c0-12.3,0-24.5,0-36.8c0-0.1,0-0.2,0.1-0.2c0.1-0.1,0.2-0.1,0.3-0.2
		c0,0.6,0.1,1.3,0.1,1.9c0,6.2,0,12.3,0,18.5c0,9.2,0,18.3,0,27.5C476.6,170.6,477,171.6,476.1,172.3z"/>
	<path fill="#CE2727" d="M475.3,119.2c-1-1.2-0.9-2.4-0.1-4.1C475.9,116.7,475.5,118,475.3,119.2z"/>
	<path fill="#CE2727" d="M475.1,113.3c0-0.8,0.1-1.6,0.2-2.7C475.8,111.8,475.6,112.7,475.1,113.3z"/>
	<path fill="#CF2222" d="M540.6,119.5c0,2.8,0.1,5.5,0,8.3c-0.1,1.9,0.3,2.8,2.5,2.7c4.3-0.2,8.5-0.1,12.8,0c1.7,0,2.2-0.6,2.2-2.2
		c-0.1-2.7,0-5.4,0-8.2c1.2,0.3,1,1.1,1,1.7c0,2.5-0.1,4.9,0,7.4c0.1,1.9-0.7,2.3-2.4,2.3c-4.9-0.1-9.9-0.1-14.8,0
		c-1.8,0-2.4-0.6-2.3-2.4c0.1-3.2,0-6.4,0-9.6C539.9,119.5,540.2,119.5,540.6,119.5z"/>
</g>
</svg>
