<?xml version="1.0" encoding="utf-8"?>
<!-- Generator: Adobe Illustrator 18.1.0, SVG Export Plug-In . SVG Version: 6.00 Build 0)  -->
<!DOCTYPE svg PUBLIC "-//W3C//DTD SVG 1.1//EN" "http://www.w3.org/Graphics/SVG/1.1/DTD/svg11.dtd">
<svg version="1.1" id="Layer_1" xmlns="http://www.w3.org/2000/svg" xmlns:xlink="http://www.w3.org/1999/xlink" x="0px" y="0px"
	 viewBox="285 171.5 267.5 267" enable-background="new 285 171.5 267.5 267" xml:space="preserve">
<path fill="#F38222" d="M493.8,343.7c-0.9,8.7-4.2,16.8-9.4,23.5c-0.3,0.5-0.7,0.9-1,1.3c-0.4,0.5-0.8,0.9-1.2,1.4
	c-0.4,0.5-0.8,0.9-1.2,1.3c-0.3,0.4-0.7,0.7-1,1l0,0c-0.3,0.3-0.7,0.7-1.1,1c-0.7,0.6-1.3,1.2-2,1.8c-8.2,6.9-18.6,11-29.7,11.2
	c-4.9,0-9.9,0-15.2,0c-5,0-10.2,0-15.9,0c-1.6-0.1-3.3-0.1-5-0.1c-0.8,0-1.5,0-2.3,0c-0.8,0-1.6,0-2.4,0c-0.5,0-1.1,0-1.6,0
	c-2.8,0.1-5.6,0.2-8.5,0.2c-4.6,0-9.3-0.2-14.1-0.9c-22.5-3.7-39.5-23.7-39.6-46.4c-0.1-19.4-0.1-38.8,0-58.1
	c0-11.3,4.2-21.8,11-29.9c0,0,0-0.1,0.1-0.1c0.5-0.5,1-1.1,1.4-1.6c0.2-0.3,0.5-0.6,0.8-0.8c0.3-0.3,0.5-0.5,0.8-0.8
	c0.5-0.5,1.1-1.1,1.6-1.6c0.7-0.6,1.4-1.3,2.2-1.9c0.4-0.3,0.7-0.6,1.1-0.9c1.2-0.9,2.4-1.7,3.6-2.5c0.3-0.2,0.6-0.4,0.9-0.5
	c0.3-0.2,0.7-0.4,1-0.6c0.4-0.2,0.9-0.5,1.3-0.7c0.4-0.2,0.7-0.4,1.1-0.6c0.1,0,0.1-0.1,0.2-0.1c0.4-0.2,0.8-0.4,1.2-0.6
	c5.8-2.6,12.2-4.1,18.8-4.1H422c19.1,0,40.4,18.5,43.2,37.5c0.6,4,1,7.9,1.8,11.9c0.9,5.3,2.8,7.2,8.1,7.9c3.8,0.5,7.8,0.4,11.5,0.7
	c4.9,0.3,7.8,3.1,7.8,7.9C494.4,314.2,495.3,329,493.8,343.7z"/>
<path fill="#F38222" d="M543.3,256.2c-12-30.5-34.9-55.4-63.9-70.2c-18.2-9.3-38.8-14.5-60.7-14.5c-21.8,0-42.5,5.2-60.7,14.5
	c-29,14.8-51.9,39.8-63.9,70.2c-5.9,15.1-9.2,31.6-9.2,48.8s3.3,33.7,9.2,48.8c15.9,40.4,51,71.2,94,81.2c9.8,2.3,20,3.5,30.5,3.5
	c10.5,0,20.7-1.2,30.5-3.5c43.1-10,78.1-40.8,94-81.2c6-15.1,9.2-31.6,9.2-48.8S549.3,271.3,543.3,256.2z M493.8,343.7
	c-0.9,8.7-4.2,16.8-9.4,23.5c-0.3,0.5-0.7,0.9-1,1.3c-0.4,0.5-0.8,0.9-1.2,1.4c-0.4,0.5-0.8,0.9-1.2,1.3c-0.3,0.4-0.7,0.7-1,1l0,0
	c-0.3,0.3-0.7,0.7-1.1,1c-0.7,0.6-1.3,1.2-2,1.8c-8.2,6.9-18.6,11-29.7,11.2c-4.9,0-9.9,0-15.2,0c-5,0-10.2,0-15.9,0
	c-1.6-0.1-3.3-0.1-5-0.1c-0.8,0-1.5,0-2.3,0c-0.8,0-1.6,0-2.4,0c-0.5,0-1.1,0-1.6,0c-2.8,0.1-5.6,0.2-8.5,0.2
	c-4.6,0-9.3-0.2-14.1-0.9c-22.5-3.7-39.5-23.7-39.6-46.4c-0.1-19.4-0.1-38.8,0-58.1c0-11.3,4.2-21.8,11-29.9c0,0,0-0.1,0.1-0.1
	c0.5-0.6,0.9-1.1,1.4-1.6c0.2-0.3,0.5-0.6,0.8-0.8c0.2-0.3,0.5-0.5,0.8-0.8c0.5-0.5,1.1-1.1,1.6-1.6c0.7-0.6,1.4-1.3,2.2-1.9
	c0.4-0.3,0.7-0.6,1.1-0.9c1.2-0.9,2.4-1.7,3.6-2.5c0.3-0.2,0.6-0.4,0.9-0.5c0.3-0.2,0.7-0.4,1-0.6c0.4-0.2,0.9-0.5,1.3-0.7
	c0.4-0.2,0.7-0.4,1.1-0.6c0.1,0,0.1-0.1,0.2-0.1c0.4-0.2,0.8-0.4,1.2-0.6c5.8-2.6,12.2-4.1,18.8-4.1H422c19.1,0,40.4,18.5,43.2,37.5
	c0.6,4,1,7.9,1.8,11.9c0.9,5.3,2.8,7.2,8.1,7.9c3.8,0.5,7.8,0.4,11.5,0.7c4.9,0.3,7.8,3.1,7.8,7.9
	C494.4,314.2,495.3,329,493.8,343.7z"/>
<g>
	<path fill="#F38222" d="M494.5,299.5c0-4.8-2.9-7.6-7.8-7.9c-3.8-0.3-7.8-0.2-11.5-0.7c-5.3-0.7-7.1-2.6-8.1-7.9
		c-0.8-4-1.2-7.9-1.8-11.9c-2.8-19-24.1-37.5-43.2-37.5h-32.3c-6.7,0-13,1.5-18.8,4.1c5.8-2.6,12.1-4,18.8-4h32.3
		c19.2,0.1,40.5,18.5,43.2,37.5c0.6,4,1.1,7.9,1.8,11.9c1,5.4,2.8,7.2,8.1,7.9c3.8,0.5,7.7,0.4,11.5,0.7
		C491.5,291.9,494.4,294.7,494.5,299.5c-0.1,14.8,0.7,29.6-0.8,44.3c-0.8,8.7-4.2,16.7-9.3,23.4c5.1-6.7,8.5-14.8,9.4-23.5
		C495.3,329,494.4,314.2,494.5,299.5z"/>
	<path fill="#FEFDFD" d="M494.5,299.5c0-4.8-2.9-7.6-7.8-7.9c-3.8-0.3-7.8-0.2-11.5-0.7c-5.3-0.7-7.1-2.6-8.1-7.9
		c-0.8-4-1.2-7.9-1.8-11.9c-2.8-19-24.1-37.5-43.2-37.5h-32.3c-6.7,0-13,1.5-18.8,4.1c-0.4,0.2-0.8,0.4-1.2,0.6
		c-0.1,0-0.1,0.1-0.2,0.1c-0.4,0.2-0.8,0.4-1.1,0.6c-0.4,0.2-0.9,0.5-1.3,0.7c-0.4,0.2-0.7,0.4-1,0.6c-0.3,0.2-0.6,0.3-0.9,0.5
		c-1.2,0.8-2.5,1.6-3.6,2.5c-0.4,0.3-0.8,0.6-1.1,0.9c-0.7,0.6-1.5,1.2-2.2,1.9c-0.6,0.5-1.1,1-1.6,1.6c-0.3,0.3-0.5,0.5-0.8,0.8
		c-0.3,0.3-0.5,0.6-0.8,0.8c-0.5,0.5-1,1.1-1.4,1.6c0,0,0,0.1-0.1,0.1c-6.8,8.2-10.9,18.6-10.9,29.9c-0.1,19.4-0.1,38.8,0,58.1
		c0.1,22.7,17.1,42.8,39.6,46.4c4.7,0.8,9.4,1,14,1c2.9,0,5.8-0.1,8.5-0.2c0.5,0,1.1,0,1.6,0c0.8,0,1.6,0,2.4,0c0.8,0,1.5,0,2.3,0
		c1.7,0,3.4,0,5,0.1c5.8,0,11,0,15.9,0c5.3,0,10.2,0,15.2-0.1c11.1-0.1,21.5-4.3,29.6-11.1c0.7-0.6,1.4-1.2,2-1.8
		c0.4-0.3,0.7-0.7,1.1-1l0,0c0.3-0.3,0.7-0.7,1-1c0.4-0.4,0.8-0.8,1.2-1.3c0.4-0.5,0.8-0.9,1.2-1.4c0.3-0.4,0.7-0.9,1-1.3
		c5.1-6.7,8.5-14.8,9.4-23.5C495.3,329,494.4,314.2,494.5,299.5z M391.3,291.5L391.3,291.5c-0.2,0-0.4,0-0.5,0c-0.2,0-0.3,0-0.5,0
		c-0.3,0-0.6-0.1-0.9-0.1c-0.1,0-0.1,0-0.2,0c-0.1,0-0.2,0-0.4-0.1c-0.1,0-0.3-0.1-0.4-0.1c-0.6-0.2-1.2-0.4-1.7-0.7
		c-0.1-0.1-0.3-0.2-0.4-0.2c-0.1-0.1-0.2-0.2-0.4-0.2c-2.5-1.7-4.1-4.5-4.1-7.6c0.1-4.4,3.1-8,7.5-8.9c0.5-0.1,0.9-0.2,1.4-0.2
		c0.1,0,0.3,0,0.4,0c4.7-0.1,9.2,0,13.8,0c4.4,0,8.9-0.1,13.3,0h0.1c5.3,0.2,9,3.8,9,8.9c0.1,4.5-2.9,8.3-7.2,9.2
		c-0.2,0-0.4,0.1-0.6,0.1c-0.2,0-0.4,0-0.6,0.1h-0.1c-0.2,0-0.5,0-0.7,0h-0.1C409.1,291.6,400.2,291.6,391.3,291.5z M451.6,344.4
		c-0.2,0.1-0.3,0.2-0.5,0.4c-0.1,0.1-0.2,0.1-0.2,0.2c-0.1,0.1-0.3,0.2-0.5,0.3c-0.3,0.2-0.5,0.3-0.8,0.4c-0.8,0.3-1.6,0.6-2.5,0.8
		c-0.2,0-0.4,0.1-0.6,0.1c-0.1,0-0.2,0.1-0.3,0.1c0,0-0.1,0-0.1,0c-0.1,0-0.2,0-0.3,0c-0.3,0-0.5,0.1-0.8,0.1c-0.2,0-0.5,0-0.8,0
		h-51.7c-0.2,0-0.5,0-0.7,0c-0.4,0-0.7,0-1.1-0.1c-0.2,0-0.3,0-0.5-0.1c-0.3,0-0.5-0.1-0.8-0.1c-0.6-0.1-1.2-0.3-1.8-0.6
		c-0.1,0-0.3-0.1-0.4-0.2c0,0-0.1,0-0.1,0c-3.4-1.5-5.5-4.6-5.4-8.3c0.1-3.8,2.3-6.8,5.8-8.2c0.5-0.2,1-0.3,1.5-0.5
		c0.2,0,0.3-0.1,0.5-0.1c0.6-0.1,1.3-0.2,2-0.2c0.2,0,0.5,0,0.7,0h52.1c0.4,0,0.7,0,1.1,0c0.4,0,0.7,0.1,1,0.1c0.1,0,0.1,0,0.2,0
		c0.6,0.1,1.2,0.2,1.8,0.4c4.1,1.3,6.5,4.4,6.4,8.6c0,2.6-1,4.8-2.7,6.4C452,344,451.8,344.2,451.6,344.4z"/>
	<path fill="#F38222" d="M417.9,346.7c-8.4,0-17,0-25.4,0c-6.4,0-10.7-4-10.6-9.4c0.1-5.3,4.3-9,10.4-9c17.4,0,34.7,0,52.1,0
		c6.5,0,10.7,3.7,10.6,9.2c-0.1,5.5-4.3,9.1-10.8,9.2C435.3,346.7,426.6,346.7,417.9,346.7z"/>
	<path fill="#F38222" d="M405,273.1c4.4,0,8.9-0.1,13.3,0c5.3,0.2,9,3.8,9,8.9c0.1,5.1-3.8,9.4-9,9.5c-9,0.2-18,0.1-27,0
		c-5.3-0.1-9.4-4.3-9.4-9.2c0-5,4-9,9.4-9.1C395.8,273,400.4,273.1,405,273.1z"/>
</g>
</svg>
