<?xml version="1.0" encoding="utf-8"?>
<!-- Generator: Adobe Illustrator 18.1.0, SVG Export Plug-In . SVG Version: 6.00 Build 0)  -->
<!DOCTYPE svg PUBLIC "-//W3C//DTD SVG 1.1//EN" "http://www.w3.org/Graphics/SVG/1.1/DTD/svg11.dtd">
<svg version="1.1" id="Layer_1" xmlns="http://www.w3.org/2000/svg" xmlns:xlink="http://www.w3.org/1999/xlink" x="0px" y="0px"
	 viewBox="0 0 244.5 244.5" enable-background="new 0 0 244.5 244.5" xml:space="preserve">
<g>
	<path fill="#00AEEF" d="M236.9,79.7c1.8,29.3-8.2,59.3-29.6,82.2c-1.3,1.4-1.6,3.3-0.9,5.1c2,5.1,0.9,11.1-3.3,15l-20.4,19.1
		c-2.6,2.5-6,3.7-9.3,3.7c-3.6,0-7.3-1.5-10-4.3c-0.1-0.1-0.2-0.1-0.3,0l-8.7,8.1c-1.3,1.2-3.4,1.1-4.6-0.2c-1.2-1.3-1-3.3,0.3-4.5
		l8.7-8.2l-0.1-0.1c-5.1-5.5-4.8-14.1,0.7-19.3l20.4-19.1c4.3-4,10.4-4.7,15.4-2.3c1.6,0.8,3.5,0.5,4.7-0.8
		c27.5-29.9,33.7-72.8,17.8-108.3c0,0,0,0,0,0C195.2,17.9,160.8,0,122.3,0C54.7,0,0,54.7,0,122.3c0,69.2,57.4,124.9,127.2,122.2
		c64.8-2.6,116.6-56,117.3-120.8C244.7,108.1,242,93.3,236.9,79.7z M11.6,111.7c2.6-54.1,46-97.5,100-100.1c2.8-0.1,5.1,2.1,5.1,4.9
		v0c0,2.7-2.1,4.8-4.7,4.9c-48.9,2.4-88.2,41.6-90.6,90.6c-0.1,2.6-2.3,4.7-4.9,4.7h0C13.8,116.8,11.5,114.5,11.6,111.7z
		 M29.5,112.3c2.3-44.7,38.1-80.6,82.9-82.9c2.4-0.1,4.5,1.8,4.5,4.3v0c0,2.3-1.8,4.1-4.1,4.3C72.4,40.1,40.1,72.4,38,112.7
		c-0.1,2.3-2,4.1-4.3,4.1h0C31.3,116.8,29.3,114.8,29.5,112.3z M49.6,116.8L49.6,116.8c-2.2,0-3.9-1.8-3.8-3.9
		c2-36.1,30.9-65.1,67-67c2.1-0.1,3.9,1.6,3.9,3.8v0c0,2-1.6,3.7-3.6,3.8C81,55.2,55.1,81,53.3,113.2
		C53.2,115.2,51.6,116.8,49.6,116.8z M72.6,122.3c0-28.1,23.3-50.8,51.7-49.7c25.8,1,46.7,22,47.7,47.8
		c1.1,28.3-21.6,51.6-49.7,51.6C94.8,172,72.6,149.7,72.6,122.3z"/>
	<path fill="#00AEEF" d="M122.3,82.4c-22,0-39.9,17.8-39.9,39.9s17.9,39.8,39.9,39.8c22,0,39.8-17.8,39.8-39.8
		S144.3,82.4,122.3,82.4z M122.3,149c-14.8,0-26.8-12-26.8-26.8c0-14.8,12-26.8,26.8-26.8c14.8,0,26.8,12,26.8,26.8
		C149,137.1,137,149,122.3,149z"/>
</g>
</svg>
