<?xml version="1.0" encoding="utf-8"?>
<!-- Generator: Adobe Illustrator 18.1.0, SVG Export Plug-In . SVG Version: 6.00 Build 0)  -->
<!DOCTYPE svg PUBLIC "-//W3C//DTD SVG 1.1//EN" "http://www.w3.org/Graphics/SVG/1.1/DTD/svg11.dtd">
<svg version="1.1" id="Layer_1" xmlns="http://www.w3.org/2000/svg" xmlns:xlink="http://www.w3.org/1999/xlink" x="0px" y="0px"
	 viewBox="0 0 243.9 243.9" enable-background="new 0 0 243.9 243.9" xml:space="preserve">
<path fill="#00AEEF" d="M121.9,0C54.6,0,0,54.6,0,121.9s54.6,121.9,121.9,121.9c67.3,0,121.9-54.6,121.9-121.9S189.3,0,121.9,0z
	 M121.9,223c-55.8,0-101.1-45.3-101.1-101.1c0-55.8,45.3-101.1,101.1-101.1c55.8,0,101.1,45.3,101.1,101.1
	C223,177.8,177.8,223,121.9,223z"/>
<polygon fill="#00AEEF" points="207.7,116 164.8,153.5 121.9,191 79.1,153.5 36.2,116 69.5,116 69.5,82.2 174.4,82.2 174.4,116 "/>
<g>
	<rect x="69.3" y="45.9" fill="#00AEEF" width="21.6" height="3.1"/>
	<rect x="69.3" y="54.6" fill="#00AEEF" width="21.6" height="5.7"/>
	<rect x="69.3" y="66" fill="#00AEEF" width="21.6" height="7.2"/>
	<rect x="96.8" y="45.9" fill="#00AEEF" width="21.6" height="3.1"/>
	<rect x="96.8" y="54.6" fill="#00AEEF" width="21.6" height="5.7"/>
	<rect x="96.8" y="66" fill="#00AEEF" width="21.6" height="7.2"/>
	<rect x="125.4" y="45.9" fill="#00AEEF" width="21.6" height="3.1"/>
	<rect x="125.4" y="54.6" fill="#00AEEF" width="21.6" height="5.7"/>
	<rect x="125.4" y="66" fill="#00AEEF" width="21.6" height="7.2"/>
	<rect x="153" y="45.9" fill="#00AEEF" width="21.6" height="3.1"/>
	<rect x="153" y="54.6" fill="#00AEEF" width="21.6" height="5.7"/>
	<rect x="153" y="66" fill="#00AEEF" width="21.6" height="7.2"/>
</g>
</svg>
