<?xml version="1.0" encoding="utf-8"?>
<!-- Generator: Adobe Illustrator 18.1.0, SVG Export Plug-In . SVG Version: 6.00 Build 0)  -->
<!DOCTYPE svg PUBLIC "-//W3C//DTD SVG 1.1//EN" "http://www.w3.org/Graphics/SVG/1.1/DTD/svg11.dtd">
<svg version="1.1" id="Layer_1" xmlns="http://www.w3.org/2000/svg" xmlns:xlink="http://www.w3.org/1999/xlink" x="0px" y="0px"
	 viewBox="253.7 197 300.6 300" enable-background="new 253.7 197 300.6 300" xml:space="preserve">
<path fill="#3C5A98" d="M554.3,347c0,26.8-7,51.9-19.3,73.6c-19.5,34.4-52.2,60.4-91.2,71c0-0.3,0-0.6,0-0.8V379.2
	c0-1.1,0-1.1,1.1-1.1h36.3c0.4,0,0.8,0.1,0.9-0.6c0.3-2.8,0.7-5.6,1.1-8.4c0.7-5.7,1.5-11.4,2.2-17.1c0.8-5.8,1.5-11.6,2.3-17.4
	c0.1-0.8-0.1-0.9-0.8-0.9c-14.1,0-28.2,0-42.2,0c-0.5,0-0.8,0-0.8-0.7c0-9.5,0-19,0-28.5c0-2.5,0.2-4.9,0.7-7.3
	c1.2-6.1,4.7-10.2,10.8-12.1c3.1-0.9,6.3-1.3,9.5-1.3c7.9,0,15.8,0,23.7,0c0.7,0,0.9-0.1,0.9-0.8c0-12.7,0-25.3,0-38
	c0-0.1,0-0.3,0-0.4c0-0.3-0.1-0.5-0.5-0.5c-1.5-0.1-3-0.3-4.5-0.5c-4.2-0.4-8.5-0.6-12.7-0.8c-7-0.3-14-0.6-20.9-0.3
	c-6.2,0.3-12.2,1.4-18,3.4c-8.6,3-16,7.8-21.8,14.8c-6.9,8.2-10.4,17.9-12,28.3c-0.7,4.7-0.9,9.3-0.9,14v29.6c0,1.1,0,1.1-1.1,1.1
	c-12.1,0-24.2,0-36.3,0c-0.7,0-0.9,0.1-0.9,0.8c0,14.2,0,28.5,0,42.7c0,0.7,0.2,0.8,0.9,0.8c12.1,0,24.2,0,36.2,0
	c1.2,0,1.2,0,1.2,1.2V489c0,1,0.1,2,0.1,2.9c0,0-0.1,0-0.1,0v4.9c-11.2-0.4-22.1-2.1-32.6-4.9c-1.5-0.4-3.1-0.8-4.6-1.3
	c-61.9-18.5-107-75.8-107-143.7c0-77,58.1-140.4,133-149c5.7-0.7,11.5-1,17.3-1s11.7,0.3,17.3,1c48.8,5.6,90.5,34.5,113.6,75.4
	C547.3,295.1,554.3,320.2,554.3,347z"/>
<path opacity="0.48" fill="#FFFFFF" d="M489.3,283c0,0.7-0.2,0.8-0.9,0.8c-7.9,0-15.8,0-23.7,0c-3.2,0-6.4,0.4-9.5,1.3
	c-6.1,1.8-9.5,6-10.8,12.1c-0.5,2.4-0.7,4.9-0.7,7.3c0,9.5,0,19,0,28.5c0,0.7,0.3,0.7,0.8,0.7c14.1,0,28.2,0,42.2,0
	c0.7,0,0.9,0.1,0.8,0.9c-0.8,5.8-1.5,11.6-2.3,17.4c-0.7,5.7-1.5,11.4-2.2,17.1c-0.4,2.8-0.8,5.6-1.1,8.4c-0.1,0.7-0.5,0.6-0.9,0.6
	h-36.3c-1.1,0-1.1,0-1.1,1.1v111.6c0,0.3,0,0.6,0,0.8c-12.7,3.5-26,5.3-39.8,5.3c-2,0-4,0-6-0.1v-4.9c0,0,0.1,0,0.1,0
	c0-1,0-1.9-0.1-2.9V379.3c0-1.2,0-1.2-1.2-1.2c-12.1,0-24.2,0-36.2,0c-0.6,0-0.9-0.1-0.9-0.8c0-14.2,0-28.5,0-42.7
	c0-0.7,0.2-0.8,0.9-0.8c12.1,0,24.2,0,36.3,0c1.1,0,1.1,0,1.1-1.1v-29.6c0-4.7,0.2-9.4,0.9-14c1.6-10.5,5.1-20.1,12-28.3
	c5.9-7,13.2-11.8,21.8-14.8c5.8-2,11.8-3.1,18-3.4c7-0.3,14,0,20.9,0.3c4.2,0.2,8.5,0.5,12.7,0.8c1.5,0.1,3,0.3,4.5,0.5
	c0.4,0,0.5,0.2,0.5,0.5c0,0.1,0,0.3,0,0.4C489.3,257.7,489.2,270.3,489.3,283z"/>
</svg>
