<?xml version="1.0" encoding="utf-8"?>
<!-- Generator: Adobe Illustrator 18.1.0, SVG Export Plug-In . SVG Version: 6.00 Build 0)  -->
<!DOCTYPE svg PUBLIC "-//W3C//DTD SVG 1.1//EN" "http://www.w3.org/Graphics/SVG/1.1/DTD/svg11.dtd">
<svg version="1.1" id="Layer_1" xmlns="http://www.w3.org/2000/svg" xmlns:xlink="http://www.w3.org/1999/xlink" x="0px" y="0px"
	 viewBox="0 0 763 784.9" enable-background="new 0 0 763 784.9" xml:space="preserve">
<path fill="none" stroke="#000000" stroke-miterlimit="10" d="M328.7,181.9c-2.4,2.4-5.1,4.5-8.1,6.3c-3,1.8-5.7,3.5-8.1,5
	c-3.2,1.3-6.7,1.8-10.5,1.6c-3.8-0.2-7.3-1.2-10.6-2.9s-6.2-4.2-8.5-7.6c-2.4-3.3-3.7-7.5-3.9-12.4c-0.2-3.7,0.1-7.4,1-11.3
	s1.9-7.6,3.2-11.3c3-9,8.4-16.9,16.1-23.5c7.7-6.7,16.4-10.9,26.1-12.6c-0.4,11.6-0.5,23.1-0.2,34.5
	C325.6,159.1,326.7,170.5,328.7,181.9z"/>
<path fill="#00AEEF" d="M758.5,589.6c-0.2-0.5-1.7-3.5-2.6-4.6c-6.4-8.8-14-16.6-21.2-24.7c-19.8-22.8-36.9-47.4-48.8-75.4
	c-3.3-7.9-8.7-13.8-16.7-17.4c-6.7-3-13.4-6.2-19.1-10.9c-4.1-3.3-3.8-5.2,0.7-7.7c3.6-2,7.6-1.2,11.3-1.9
	c32.3-5.9,54.4-24.2,65.1-55.1c12.2-35.2-2.1-74.2-33.4-94.2c-48.7-31.2-113.9-2.8-124,54.2c-5,28.5,3.3,53,23.7,73.4
	c4.1,4.1,3.7,10.3-0.9,14c-1.7,1.4-2.4,0.2-3.2-0.9c-4.1-5.5-7.5-11.5-11-17.4c-19.5-33.5-38.1-67.6-56.4-101.8
	c-1.7-3.1-1.9-6.4-1-9.8c1-3.9,3-7.4,4.8-11c1.5-3,3.2-5.9,4-9.2c2-7.5-1.4-13.9-8.2-16.3h94.5c51.2,0,93.2-41.9,93.2-93.2V93.2
	c0-51.3-41.9-93.2-93.2-93.2H135.8C84.5,0,42.6,41.9,42.6,93.2v86.3c0,51.2,41.9,93.2,93.2,93.2H255c-3.5,0.2-7.1,0.7-10.6,1.3
	c-8.8,1.5-13.5,8.5-11.2,17c0.9,3.3,2.5,6.2,4,9.2c1.8,3.6,3.8,7,4.8,11c0.8,3.4,0.6,6.7-1,9.8c-18.3,34.2-36.8,68.3-56.4,101.8
	c-3.5,5.9-6.9,11.9-11,17.4c-0.8,1.1-1.5,2.3-3.2,0.9c-4.6-3.7-5-9.9-0.9-14c20.4-20.4,28.7-44.9,23.7-73.4
	c-10.1-57-75.2-85.4-123.9-54.2c-31.4,20.1-45.6,59.1-33.4,94.2c10.7,30.9,32.7,49.2,65.1,55.1c3.8,0.7,7.7-0.1,11.3,1.9
	c4.5,2.6,4.8,4.4,0.7,7.7c-5.8,4.7-12.4,7.9-19.1,10.9c-8,3.5-13.3,9.4-16.7,17.4c-11.8,28-28.9,52.6-48.8,75.4
	c-7.1,8.2-14.7,16-21.2,24.7c-0.8,1.1-2.3,4.2-2.6,4.6c-4.8,9.2-6.2,18.5-2.2,23.2c9.5,11.5,22.6,15.9,36.9,17.2
	c3.9,0.3,6.6-2.1,8-5.7c1.2-3.1,2.3-6.3,3.4-9.5c7.3-19.6,17.3-37.9,28-55.8c5.1-8.4,10.5-16.7,17.5-23.8c0.9-0.9,1.9-2.6,3.3-2.1
	c1.3,0.4,1.2,2.3,1.4,3.6c1.5,9.2,3,18.5,4.4,27.7c2.3,14.5,0.9,28.5-5.4,42c-4.1,8.8-8,17.7-12.7,26.3
	c-13.7,25.3-26.8,51-36.8,78.1c-5.9,16-13.8,42.1-13.6,48.8c0.3,7.7,12.2,19,28,21.8c1.5,0.3,8.6,1,12.3,1.3
	c25.7,1.6,37.9-11.5,40.4-20.2c3.2-11.1,3.6-22.6,4.2-34c0.8-14.4,1.4-28.9,4.4-43.1c5.9-28,16.8-53.9,31-78.7
	c1.4-2.4,2.3-2.1,4.2-0.7c11.8,8.8,21,19.8,28.2,32.6c7.3,13,12,27.1,17.3,40.9c9.5,24.5,15.2,49.8,16,76.1
	c0.2,6.9,2.8,12.5,7.5,17.3c0,0,0,0.1,0.1,0.1c4.9,4.9,26.3,5.4,30.8,4.6c21.5-4,34-9.4,39.8-21.1c2.4-4.9,1.2-9.9,0.6-12
	c-7.8-29.7-18.8-58.1-35.5-84.1c-12.9-20.1-26.2-40.1-38.6-60.6c-10.9-18-18.6-36.6-17.6-58.5c0.7-14.6-0.9-29.4-1.1-44.1
	c-0.1-11.1,2.1-21.1,8.5-30.7c9-13.3,16.6-27.6,24.3-41.7c16.4-29.9,32.6-59.8,51.3-88.3c1.4-2.2,3.1-3.7,5.4-5
	c12.5-6.7,22.8-15.6,28.3-29.2c2.5-6.3,4.3-12.8,4.7-19.5c0.3-4.7-0.8-8.8-2.8-12.3h104.8c-1.3,3-2,6.4-1.8,10.2
	c0.4,6.7,2.2,13.2,4.7,19.6c5.5,13.6,15.8,22.5,28.3,29.2c2.3,1.2,4,2.8,5.4,5c18.6,28.6,34.9,58.5,51.3,88.3
	c7.7,14.1,15.3,28.4,24.3,41.7c6.5,9.5,8.7,19.6,8.5,30.6c-0.2,14.7-1.8,29.5-1.1,44.1c1,21.9-6.7,40.4-17.6,58.5
	c-12.4,20.5-25.7,40.5-38.6,60.6c-16.7,26-27.7,54.3-35.5,84.1c-0.6,2.2-1.8,7.1,0.6,12c5.8,11.7,18.3,17.1,39.8,21.1
	c4.5,0.8,26,0.2,30.8-4.6c0,0,0-0.1,0.1-0.1c4.8-4.8,7.3-10.4,7.5-17.3c0.8-26.3,6.5-51.6,16-76.1c5.4-13.8,10-27.9,17.3-40.9
	c7.2-12.8,16.5-23.7,28.2-32.6c1.9-1.4,2.8-1.8,4.2,0.7c14.1,24.7,25.1,50.7,31,78.7c3,14.2,3.6,28.6,4.4,43.1
	c0.6,11.4,1,22.9,4.3,34c2.5,8.7,14.7,21.8,40.4,20.2c3.6-0.2,10.7-1,12.3-1.3c15.7-2.8,27.6-14,27.9-21.8
	c0.3-6.7-7.7-32.8-13.6-48.8c-10-27.1-23-52.8-36.8-78.1c-4.6-8.6-8.6-17.5-12.7-26.3c-6.3-13.5-7.6-27.5-5.4-42
	c1.4-9.2,2.9-18.5,4.4-27.7c0.2-1.3,0.1-3.2,1.4-3.6c1.4-0.4,2.4,1.2,3.3,2.1c7,7.1,12.4,15.3,17.5,23.8
	c10.8,17.9,20.7,36.2,28,55.8c1.2,3.2,2.2,6.4,3.4,9.5c1.4,3.6,4.1,6,8,5.7c14.3-1.2,27.4-5.6,36.9-17.2
	C764.7,608.1,763.3,598.8,758.5,589.6z M89.7,533.8c-13.7,15.3-22.9,33.2-31,51.8c-4.8,11.2-9.4,22.6-16.1,32.9
	c-1.8,2.8-4.1,4.2-7.5,3.9c-6.9-0.6-13.2-2.7-18.8-6.6c-0.4-0.2-0.9-0.5-1-1c-0.1-0.4,0.3-0.7,0.7-0.6c0.9,0.2,1.8,0.4,2.7,0.6
	c8.2,1,15.2,0,20.6-7.8c8.8-12.9,16.4-26.5,23.3-40.5c5.3-10.8,11-21.3,19-30.3c0.4-0.5,0.8-0.9,1.3-1.4c0.1-0.1,0.2-0.2,0.3-0.3
	c0.4-0.5,0.9-0.9,1.3-1.4c0.6-0.6,1.2-1.2,1.8-1.8c0.4-0.4,0.7-0.7,1.1-1c0.5-0.5,1-1,1.5-1.4c0.4-0.3,0.7-0.7,1.1-1
	c1.1-1,2.2-1.9,3.4-2.8c0.2-0.2,0.5-0.4,0.7-0.6c0.3-0.2,0.5-0.4,0.8-0.6c0-0.1,0.1-0.1,0.1-0.1c0.2-0.2,0.5-0.4,0.8-0.6
	c0.2-0.2,0.4-0.3,0.7-0.5c0.3-0.2,0.6-0.5,1-0.7c0.4-0.3,0.8-0.6,1.3-0.8c0.6-0.4,1.2-0.8,1.8-1.2c0.1-0.1,0.3-0.2,0.4-0.2
	c0.4-0.3,0.9-0.6,1.4-0.8c0.4-0.2,0.8-0.4,1.1-0.6c0.4-0.2,0.7-0.4,1.1-0.6c0,0,0,0,0.1-0.1c0.3-0.1,0.6-0.3,0.8-0.4
	c0.1-0.1,0.1-0.1,0.2-0.1c0.1-0.1,0.2-0.1,0.2-0.1c0.4-0.2,0.7-0.4,1.1-0.5c0,0,0,0,0.1,0c0,0,0.1-0.1,0.1-0.1
	c0.2-0.1,0.4-0.2,0.5-0.3c0.2-0.1,0.3-0.1,0.5-0.2c0.1,0,0.2-0.1,0.2-0.1c0.3-0.1,0.5-0.2,0.7-0.4v0h0c0-0.1,0.1-0.1,0.1-0.2
	c0.1-0.1,0.2-0.2,0.3-0.3c0,0,0,0,0.1-0.1c0.3-0.2,0.6-0.2,1-0.2c0,0,0,0,0,0c0.1-0.1,0.2-0.1,0.3-0.1c-0.1,0.1-0.2,0.1-0.3,0.2
	h-0.1c0,0.1-0.1,0.1-0.1,0.2c-0.1,0.1-0.1,0.2-0.2,0.2c0,0-0.1,0.1-0.1,0.1c-0.1,0.1-0.1,0.1-0.2,0.1c-0.1,0.1-0.2,0.1-0.3,0.1
	c-0.1,0-0.1,0-0.2,0c-0.1,0-0.2,0-0.3,0c0,0,0,0,0,0c0,0,0,0,0,0c0.1,0.5-0.2,0.7-0.6,0.8C102.1,522,95.5,527.4,89.7,533.8z
	 M146.6,606c-0.2,0.2-0.4,0.4-0.6,0.6c-0.1,0.1-0.2,0.3-0.2,0.4c-0.8,3.9-3.3,6.9-5,10.4c-16.5,33.9-24.8,70.1-29.5,107.3
	c-1.7,13.6-3.1,27.2-7.3,40.4c-0.7,2.2-1.9,4.1-3.7,5.5c-5.8,4.6-13.6,4-20.8,5.4c0.3-0.2,0.6-0.5,0.8-0.7
	c4.2-3.8,7.9-8.1,11.7-12.3c2-2.2,3.8-4.5,5-7.3c4.6-11.6,6.5-23.8,8.3-36c4.5-29.7,11.4-58.7,24.9-85.8c4.7-9.3,9.3-18.7,15.5-27.1
	c0,0,0-0.1,0-0.1C146.1,606.5,146.3,606.3,146.6,606c0-0.1,0-0.1,0-0.1C146.7,606,146.6,606,146.6,606z M146.8,605.7
	c0,0.1-0.1,0.1-0.1,0.1c0.1-0.2,0.2-0.5,0.3-0.7c0,0.1,0.1,0.2,0.1,0.3C147,605.6,146.9,605.6,146.8,605.7z M135.8,316.3
	c-26.2-11.4-60.5-7.1-83.7,21c-0.4,0.5-1.3,0-1-0.6c6.5-15.4,25.1-32.5,47.9-37c29.4-5.8,59.2,7.7,74.2,32.8
	c12.8,21.4,11.7,48,4,63.2c-0.3,0.6-1.2,0.3-1.1-0.4C183.5,358,162.3,327.9,135.8,316.3z M217.8,602.3L217.8,602.3
	c0.5,0.3,0.7,0.8,0.7,1.3c0,0.1,0.1,0.3,0.2,0.4c0.4,0.4,0.8,0.7,1.1,1.1c10.4,16.9,20.8,33.8,31,50.8c7.2,12,15.2,23.5,21,36.2
	c4,8.8,7.4,17.8,10.5,26.8c3.1,9.1,6,18.2,8.9,27.4c-1.2,0.5-0.7,0.3-1.9,0.8c-1.7-3.6-3.2-7.4-4.7-11.1
	c-9.9-24.9-21.4-48.9-35.4-71.7c-9.4-15.3-18.6-30.8-25.7-47.3c-1.8-4.3-4.5-8.4-4.9-13.2c-0.1,0-0.1,0-0.2-0.1c0,0-0.1,0-0.1-0.1
	c0,0-0.1,0-0.1-0.1c-0.1,0-0.1-0.1-0.2-0.1c0,0,0-0.1-0.1-0.1c-0.1-0.1-0.1-0.2-0.1-0.4C217.8,602.8,217.8,602.5,217.8,602.3
	C217.8,602.3,217.8,602.3,217.8,602.3C217.7,602.3,217.7,602.3,217.8,602.3C217.7,602.2,217.8,602.3,217.8,602.3z M217.7,602.2
	C217.7,602.2,217.7,602.2,217.7,602.2c-0.1,0-0.1,0-0.2-0.1c0,0,0-0.1-0.1-0.2C217.5,602.1,217.6,602.1,217.7,602.2z M219.3,447.3
	C219.3,447.3,219.2,447.3,219.3,447.3c-0.3,0.2-0.5,0.4-0.8,0.7c0,0,0,0,0,0c0,0,0,0,0,0c-0.1,0.2-0.2,0.5-0.3,0.7
	c-0.1,0.3-0.2,0.5-0.3,0.8c-0.1,0.1-0.1,0.2-0.1,0.3c-0.2,0.4-0.4,0.8-0.5,1.2c-0.2,0.4-0.3,0.7-0.5,1.1c-0.4,0.8-0.8,1.5-1.3,2.3
	c-0.1,0.2-0.3,0.5-0.5,0.8c-1.3,2.3-2.8,4.5-4.1,6.8c-5.1,8.9-11.1,17.5-10.3,28.6c0.4,6.1,0,12.2,0,18.3v21.3
	c-0.9-0.3-1.2-0.6-1.3-0.9c-2-12.9-3.8-25.8-6.1-38.7c-1.3-7.1,0.5-13.3,3.9-19.2c1.9-3.4,4.1-6.6,6.8-9.3c0.4-0.4,0.7-0.8,1.1-1.1
	c0.3-0.4,0.7-0.8,1-1.1c0.1-0.1,0.2-0.2,0.3-0.3c0.5-0.5,1-1.1,1.5-1.6c1.3-1.4,2.6-2.8,3.9-4.2c1.2-1.2,2.4-2.4,3.8-3.4
	c0.3-0.3,0.7-0.5,1-0.8c0.3-0.3,0.7-0.5,1-0.8c0.3-0.2,0.7-0.5,1-0.7c0,0,0,0,0,0s0,0,0,0c0-0.1,0-0.1,0-0.2c0,0,0,0,0-0.1
	c0-0.1,0-0.1,0.1-0.1c0,0,0-0.1,0.1-0.1c0,0,0,0,0.1-0.1c0,0,0-0.1,0.1-0.1c0,0,0.1-0.1,0.1-0.1C219,447.3,219.1,447.3,219.3,447.3
	L219.3,447.3l0.1-0.2L219.3,447.3z M549.7,189.5c0.2-3.5,1.1-6.8,2.7-9.7c1.6-2.9,3.9-5.2,6.9-6.8c3-1.6,6.7-2.2,11-1.8
	c2.4,0.2,4.5,0.9,6.5,1.9c1.9,1.1,3.7,2.4,5.3,3.9c1.6,1.5,3.2,3.1,4.8,4.8c1.6,1.7,3.3,3.2,5,4.5c3.7,2.8,7.5,4.8,11.6,6.1
	c4.1,1.3,8.4,2.3,12.9,2.9c3,0,5.4-0.8,7.3-2.3c1.8-1.5,3.1-3.3,3.7-5.5c0.6-2.1,0.8-4.5,0.5-6.9c-0.3-2.5-1.1-4.5-2.4-6
	c-3.7-3.7-8.1-6-13.4-7.1c-5.3-1.1-10.2-2.4-14.7-3.9c-6.5-2.1-12.8-4.9-19-8.2c-6.2-3.3-11.3-7.9-15.2-13.7
	c-4.1-6-6.5-12.4-7.3-19.2c-0.8-6.8-0.2-13.4,1.6-19.8c1.8-6.5,4.9-12.4,9.2-17.8c4.3-5.4,9.5-9.8,15.5-13.2c4.5-2.6,9.5-4.2,14.8-5
	c5.4-0.8,10.8-0.9,16.3-0.5c5.5,0.4,10.9,1.4,16.3,3.1c5.4,1.6,10.3,3.4,14.8,5.3c5.2,2.4,9,5.7,11.6,10c2.6,4.3,3.8,8.7,3.7,13.1
	c-0.1,4.4-1.6,8.2-4.5,11.4c-2.9,3.2-7.2,4.8-12.8,4.8c-3.4,0-6.6-0.6-9.4-1.8c-2.8-1.2-5.7-2.3-8.7-3.4c-3.9-1.5-8.1-2.5-12.6-3.1
	c-4.5-0.5-8.2-0.3-11,0.8c-0.9,0.2-1.8,0.9-2.9,2.1c-1.1,1.2-1.9,2.6-2.4,4.4c-0.5,1.7-0.7,3.4-0.3,5.2c0.3,1.7,1.5,3.1,3.4,4.2
	c5.2,2.8,10.6,4.9,16.5,6.4c5.8,1.5,11.5,3.2,17.1,5.2c5.6,1.9,10.8,4.4,15.7,7.4c4.8,3,8.9,7.3,12.1,12.9
	c4.7,8.2,7.2,16.7,7.3,25.7c0.1,8.9-1.7,17.3-5.3,25c-3.7,7.7-9,14.4-16.1,19.8c-7.1,5.5-15.4,8.8-24.8,9.8
	c-6.7,0.7-13.2,0.3-19.7-1.1c-6.5-1.4-12.7-3.7-18.7-6.8c-6-3.1-11.6-6.8-16.8-11.1c-5.2-4.3-9.7-8.8-13.6-13.6l-1-1.9
	C550,196.7,549.5,193.1,549.7,189.5z M238.2,42.2c-0.1,3.2-1,6.3-2.7,9.4c-1.7,3-4.2,5.4-7.4,7.1c-5.6,3-11.7,4.6-18.4,4.7
	c-6.7,0.1-13,0.3-19,0.5c-7.1,0.2-14.2,0.3-21.3,0.2s-14.2,0.1-21.3,0.5c0.4,4.1,0.8,8.9,1,14.5c0.2,5.6,0.3,13.8,0.3,24.5
	c6.9,0,13.9-0.1,21-0.3c7.1-0.2,14.1-0.9,21-1.9c3.6-0.4,7.5-1.2,11.6-2.4c4.1-1.2,8-1.5,11.6-1.1c4.3,0.4,8.1,2,11.3,4.8
	c3.2,2.8,5.4,6,6.6,9.5c1.2,3.6,1.1,7.2-0.2,11c-1.3,3.8-4.2,6.9-8.7,9.5c-5.4,3-11.1,5.2-17.3,6.6c-6.1,1.4-12.4,2.4-18.9,2.9
	c-6.5,0.5-12.9,0.8-19.4,0.6c-6.5-0.1-12.7-0.2-18.7-0.2v71.9c-0.6,4.7-2.4,8.8-5.2,12.3c-2.8,3.4-6,5.8-9.7,7.1
	c-3.7,1.3-7.4,1.3-11.3,0c-3.9-1.3-7.1-4.2-9.7-8.7c-1.1-1.7-1.9-3.6-2.6-5.5c-0.6-1.9-1-3.9-1-5.8v-76.1c-2.8-1.7-4.9-4-6.3-6.8
	c-1.4-2.8-2.1-5.7-2.1-8.9c0-3.1,0.8-6.1,2.3-8.9c1.5-2.8,3.5-5.2,6.1-7.1c-0.2-4.1-0.3-7.5-0.2-10.3c0.1-2.8,0.2-5.5,0.2-8.1v-7.9
	c0-2.7-0.2-5.9-0.6-9.5c-0.2-3-0.9-6-2.1-8.9c-1.2-2.9-2.2-5.8-3.1-8.7c-0.9-2.9-1.2-5.9-1-8.9c0.2-3,1.5-5.9,3.9-8.7
	c3.2-3.9,7.2-6.2,11.8-6.9c4.6-0.8,9.3-1.3,14-1.8c9.9-0.7,19.7-1,29.5-1s19.6-0.2,29.5-0.7c2.8,0,5.8-0.3,9-0.8
	c3.2-0.5,6.5-1,9.7-1.3c3.2-0.3,6.5-0.3,9.7,0c3.2,0.3,6.1,1.2,8.7,2.7c3.2,1.9,5.6,4.4,7.1,7.4C237.6,35.9,238.3,39,238.2,42.2z
	 M274.3,291.7C274.3,291.7,274.2,291.7,274.3,291.7c-0.4,0.2-0.7,0.3-1,0.4c0,0,0,0.1-0.1,0.1c0,0-0.1,0-0.1,0.1
	c-0.1,0.1-0.1,0.2-0.2,0.3c0-0.1,0-0.2,0-0.2c0-0.1,0.1-0.1,0.2-0.1c0,0,0-0.1,0.1-0.1c0,0,0.1,0,0.1,0h0c0.2-0.2,0.3-0.5,0.5-0.7
	c0,0,0,0,0-0.1c0.4-0.8,0.7-1.6,1.1-2.4c3.2-6.7,0.9-12.4-6.1-14.9c-1.8-0.7-3.7-1.1-5.6-1.3h20.6
	C285.5,279.9,282.1,286.9,274.3,291.7z M325,291.7c-1.7,9.2-6.2,16.8-12.3,23.5c-4.3,4.7-9.1,8.8-15,11.1c-0.6,0.2-1.1-0.5-0.6-1
	c3.7-4.2,7.1-8.7,10.1-13.5c8.9-14.6,8.4-24.6-2-38.2c-0.3-0.3-0.5-0.7-0.8-1h15.6c0,0.1,0.1,0.1,0.1,0.2
	C324.5,278.2,326.3,284.5,325,291.7z M380,223.3c-2.4,4.1-5.7,6.8-9.8,8.2c-4.2,1.4-8.8,1.2-13.7-0.5c-4.9-1.7-9.2-5.2-12.9-10.3
	c-6,4.5-11.9,7.7-17.6,9.5c-5.7,1.8-12.2,2.8-19.5,3.1c-11,0.4-20.8-0.8-29.4-3.7c-8.6-2.9-15.9-7.3-21.8-13.1
	c-5.9-5.8-10.3-13.1-13.1-21.8c-2.8-8.7-3.8-18.8-2.9-30.2c0.4-4.7,1.2-9.3,2.4-13.9c1.2-4.5,2.5-8.9,4-13.2
	c1.7-4.7,4.1-9.8,7.3-15.2c3.1-5.4,6.3-10,9.5-13.9c11.6-14.2,26.1-24.4,43.5-30.6c3-1.1,7.1-2,12.3-2.9c5.2-0.9,10.4-1.2,15.7-1.1
	c5.3,0.1,10.3,0.8,15.2,2.1c4.8,1.3,8.4,3.5,10.8,6.8c1.9,2.6,3.3,4.8,4.2,6.8c0.9,1.9,1.3,4,1.5,6.1c0.1,2.1,0.1,4.5,0,6.9
	c-0.1,2.5-0.2,5.5-0.2,9.2c0,6,0,11.9-0.2,17.6c-0.1,5.7-0.1,11.5,0.2,17.3v7.6c0,3.1,0.1,6.4,0.3,9.8c0.2,3.4,0.5,6.7,0.8,9.8
	c0.3,3.1,0.8,5.6,1.5,7.6l12.9,26.5C382.7,214,382.3,219.2,380,223.3z M465.4,324.3c-6-2.4-10.8-6.4-15-11.1
	c-6.2-6.7-10.7-14.3-12.3-23.5c-1.2-6.3,0.1-12,3.6-16.9h15.6c-9.6,13-9.9,22.9-1.2,37.1c2.9,4.8,6.3,9.2,10.1,13.5
	C466.5,323.8,466,324.5,465.4,324.3z M488.1,286.8c0.4,0.8,0.7,1.6,1.1,2.4c0,0,0,0,0,0c0.2,0.2,0.3,0.5,0.5,0.7v0h0
	c0,0,0.1,0,0.1,0c0,0,0,0.1,0.1,0.1c0.1,0,0.1,0.1,0.2,0.1c0,0,0,0.1,0,0.2c-0.1-0.1-0.1-0.2-0.2-0.3c0,0-0.1,0-0.1-0.1
	c0,0,0-0.1-0.1-0.1c-0.3-0.1-0.6-0.2-0.9-0.4c0,0-0.1,0-0.1,0c-7.1-4.3-10.5-10.5-9.8-16.9h13.5
	C486.8,275.5,485.2,280.8,488.1,286.8z M502.9,231.6c-3.9-1.9-6.7-5.7-8.4-11.3c-1.9-6-2.7-12.3-2.3-18.9c0.4-6.6,0.6-12.6,0.6-18.2
	c0-11.6,0.1-23.2,0.2-34.7c0.1-11.5-0.4-23.1-1.5-34.7c-0.2-0.4-0.4-0.8-0.6-1.1c-0.2-0.3-0.6-0.8-1.3-1.5c-4.9-1.3-10.2-1-15.8,1
	c-5.6,1.9-10.3,4.4-14.2,7.4c-3.4,2.8-6.8,6.6-10.2,11.4c-3.3,4.8-5,9.5-5,14v44.5c0,3.4,0.1,7.2,0.3,11.3c0.2,4.1,0,8.1-0.5,11.9
	c-0.5,3.9-1.8,7.4-3.7,10.7c-1.9,3.2-5,5.6-9.3,7.1c-2.4,0.8-4.6,1.2-6.6,1c-2-0.2-4.2-0.8-6.6-1.6c-3.9-1.3-6.7-3.5-8.4-6.6
	c-1.7-3.1-2.9-6.5-3.5-10c-0.6-3.6-0.9-7-0.8-10.3c0.1-3.3,0.2-6,0.2-7.9c0-4.9-0.1-12.1-0.2-21.5c-0.1-9.4-0.2-19.2-0.2-29.5v-51
	c0-4.7,1.4-8.7,4.2-11.8c2.8-3.1,6.1-5.2,9.8-6.1c3.8-1,7.7-0.8,11.9,0.7c4.2,1.4,7.7,4.2,10.5,8.6c8.6-5.6,18.1-9.4,28.4-11.3
	c10.3-1.9,20-1.6,29.2,1c9.1,2.6,16.8,7.4,22.9,14.5c6.1,7.1,9.3,16.9,9.5,29.4c0,0.4,0.1,1.7,0.3,3.9c0.2,2.2,0.3,5.2,0.3,9v82.6
	c-0.6,5.4-2.6,9.8-6,13.2c-3.3,3.4-7.1,5.6-11.3,6.5C510.8,234.1,506.8,233.6,502.9,231.6z M545.3,600.2
	C545.2,600.2,545.2,600.3,545.3,600.2c0,0.2,0,0.5,0,0.7c0,0.1,0,0.3-0.1,0.4c0,0,0,0,0,0.1c0,0.1-0.1,0.1-0.2,0.2c0,0,0,0-0.1,0.1
	c0,0-0.1,0.1-0.1,0.1c-0.1,0-0.1,0.1-0.2,0.1c-0.5,4.8-3.1,8.9-4.9,13.2c-7.1,16.6-16.3,32-25.7,47.3c-14,22.8-25.5,46.8-35.4,71.7
	c-1.5,3.7-3,7.5-4.6,11.1c-1.2-0.5-0.7-0.3-2-0.8c2.9-9.1,5.8-18.3,8.9-27.4c3.1-9.1,6.5-18,10.5-26.8c5.8-12.8,13.8-24.3,21-36.2
	c10.2-17,20.7-33.9,31-50.8c0.3-0.4,0.7-0.8,1.1-1.2c0.1-0.1,0.2-0.2,0.2-0.4C544.5,601,544.7,600.5,545.3,600.2L545.3,600.2
	C545.2,600.2,545.3,600.2,545.3,600.2C545.3,600.2,545.3,600.2,545.3,600.2z M545.5,600.1c0,0-0.1,0-0.1,0.1c0,0,0,0,0,0
	c0.1-0.1,0.2-0.2,0.2-0.3C545.5,600,545.5,600.1,545.5,600.1z M569.9,488.6c-2.3,12.9-4.1,25.8-6.1,38.7c0,0.3-0.3,0.6-1.3,0.9
	c0-7.1,0-14.2,0-21.3c0-6.1-0.4-12.2,0-18.3c0.8-11.2-5.2-19.7-10.3-28.6c-1.3-2.3-2.8-4.5-4.1-6.8c-0.2-0.2-0.3-0.5-0.5-0.8
	c-0.4-0.8-0.9-1.5-1.3-2.3c-0.2-0.4-0.4-0.7-0.5-1.1c-0.2-0.4-0.4-0.8-0.5-1.1c0-0.1-0.1-0.2-0.1-0.3c-0.1-0.3-0.2-0.5-0.3-0.8
	c-0.1-0.2-0.2-0.5-0.3-0.7v0c0,0,0,0,0,0c0,0,0,0,0-0.1c-0.2-0.2-0.4-0.4-0.7-0.7c0,0,0,0-0.1,0l-0.1-0.2l0.2,0.2l0,0.1
	c0.1,0,0.2,0,0.3,0.1c0,0,0.1,0,0.1,0.1c0,0,0.1,0,0.1,0.1c0,0,0,0.1,0.1,0.1c0,0,0,0.1,0,0.1c0,0,0,0.1,0,0.1c0,0,0,0,0,0.1
	c0,0.1,0,0.1,0,0.1c0,0,0,0,0,0c0,0,0,0,0,0c0.4,0.2,0.7,0.5,1,0.7c0.3,0.2,0.7,0.5,1,0.8c0.3,0.3,0.7,0.5,1,0.8
	c1.3,1.1,2.6,2.2,3.8,3.4c1.4,1.4,2.7,2.8,4,4.2c0.5,0.5,1,1.1,1.5,1.6c0.1,0.1,0.2,0.2,0.3,0.3c0.4,0.4,0.7,0.8,1,1.1
	c0.4,0.4,0.7,0.8,1.1,1.1c2.7,2.8,4.9,6,6.8,9.3C569.4,475.3,571.2,481.5,569.9,488.6z M586.9,393.3c0.1,0.7-0.8,1-1.1,0.4
	c-7.7-15.2-8.8-41.8,4-63.2c15-25.1,44.8-38.6,74.2-32.8c22.8,4.5,41.5,21.6,47.9,36.9c0.3,0.6-0.6,1.1-1,0.6
	c-23.2-28.1-57.5-32.4-83.7-21C600.7,325.8,579.6,355.9,586.9,393.3z M616.2,603.7c-0.1-0.1-0.2-0.2-0.2-0.3c0-0.1,0.1-0.2,0.1-0.3
	c0.1,0.2,0.2,0.5,0.3,0.7C616.3,603.8,616.2,603.7,616.2,603.7z M657.7,717.8c1.8,12.2,3.7,24.4,8.3,36c1.1,2.9,2.9,5.1,5,7.3
	c3.8,4.2,7.5,8.4,11.7,12.3c0.3,0.2,0.6,0.5,0.8,0.7c-7.2-1.4-15-0.9-20.8-5.4c-1.8-1.4-3-3.2-3.7-5.5c-4.2-13.1-5.6-26.8-7.3-40.4
	c-4.7-37.2-12.9-73.4-29.5-107.3c-1.7-3.4-4.2-6.5-5-10.3c-0.1-0.1-0.2-0.3-0.2-0.5c-0.2-0.2-0.4-0.4-0.6-0.6c0,0,0-0.1,0-0.1
	c0,0,0.1,0.1,0.1,0.1c0.2,0.2,0.5,0.5,0.8,0.8c0,0.1,0,0.1,0,0.1c6.2,8.5,10.8,17.8,15.5,27.1C646.3,659,653.2,688,657.7,717.8z
	 M746.7,613.8c-5.7,3.9-12,6-18.9,6.5c-3.3,0.3-5.6-1-7.5-3.9c-6.7-10.3-11.3-21.7-16.1-32.9c-8-18.6-17.2-36.5-31-51.8
	c-5.8-6.4-12.4-11.9-18.8-17.6c-0.4-0.1-0.7-0.3-0.6-0.8c0,0,0,0,0,0c0,0,0,0,0,0c-0.1,0-0.2,0-0.3,0c-0.1,0-0.2,0-0.2,0
	c-0.1,0-0.2,0-0.3-0.1c-0.1,0-0.1-0.1-0.2-0.1c0,0-0.1,0-0.1-0.1c-0.1-0.1-0.2-0.1-0.2-0.2c0-0.1-0.1-0.1-0.1-0.2h-0.1
	c-0.1-0.1-0.2-0.1-0.3-0.2c0.1,0.1,0.2,0.1,0.3,0.2c0,0,0,0,0,0c0.4,0,0.7,0,1,0.2c0,0,0,0,0.1,0c0.1,0.1,0.2,0.2,0.3,0.3
	c0,0.1,0.1,0.1,0.1,0.2h0c0,0,0,0,0,0c0.2,0.1,0.5,0.2,0.7,0.4c0.1,0,0.1,0.1,0.2,0.1c0.2,0.1,0.3,0.2,0.5,0.2
	c0.2,0.1,0.4,0.2,0.5,0.3c0,0,0.1,0,0.1,0.1c0,0,0,0,0.1,0c0.4,0.2,0.7,0.3,1.1,0.5c0.1,0,0.2,0.1,0.2,0.1c0.1,0,0.1,0.1,0.2,0.1
	c0.3,0.1,0.6,0.3,0.8,0.4c0,0,0.1,0,0.1,0c0.4,0.2,0.7,0.4,1.1,0.6c0.4,0.2,0.8,0.4,1.2,0.6c0.5,0.3,0.9,0.5,1.4,0.8
	c0.1,0.1,0.3,0.2,0.4,0.3c0.6,0.4,1.2,0.8,1.8,1.1c0.4,0.3,0.8,0.6,1.2,0.9c0.3,0.2,0.7,0.4,1,0.7c0.2,0.1,0.4,0.3,0.7,0.5
	c0.3,0.2,0.5,0.4,0.8,0.6c0,0,0.1,0.1,0.2,0.1c0.3,0.2,0.5,0.4,0.8,0.6c0.2,0.2,0.5,0.4,0.7,0.6c1.2,0.9,2.3,1.8,3.4,2.8
	c0.4,0.3,0.7,0.6,1.1,1c0.5,0.5,1,1,1.5,1.4c0.4,0.3,0.7,0.7,1.1,1.1c0.6,0.6,1.2,1.1,1.8,1.8c0.4,0.4,0.9,0.9,1.3,1.4
	c0.1,0.1,0.2,0.2,0.3,0.3c0.4,0.4,0.8,0.9,1.3,1.4c8.1,9,13.7,19.6,19,30.3c7,14,14.5,27.6,23.4,40.5c5.3,7.8,12.3,8.8,20.5,7.8
	c0.9-0.1,1.8-0.4,2.7-0.6c0.4-0.1,0.8,0.2,0.7,0.6C747.6,613.3,747.1,613.6,746.7,613.8z"/>
<path fill="#29AEE1" d="M328.7,181.9c-2.4,2.4-5.1,4.5-8.1,6.3c-3,1.8-5.7,3.5-8.1,5c-3.2,1.3-6.7,1.8-10.5,1.6
	c-3.8-0.2-7.3-1.2-10.6-2.9s-6.2-4.2-8.5-7.6c-2.4-3.3-3.7-7.5-3.9-12.4c-0.2-3.7,0.1-7.4,1-11.3s1.9-7.6,3.2-11.3
	c3-9,8.4-16.9,16.1-23.5c7.7-6.7,16.4-10.9,26.1-12.6c-0.4,11.6-0.5,23.1-0.2,34.5C325.6,159.1,326.7,170.5,328.7,181.9z"/>
</svg>
