<?xml version="1.0" encoding="utf-8"?>
<!-- Generator: Adobe Illustrator 18.1.0, SVG Export Plug-In . SVG Version: 6.00 Build 0)  -->
<!DOCTYPE svg PUBLIC "-//W3C//DTD SVG 1.1//EN" "http://www.w3.org/Graphics/SVG/1.1/DTD/svg11.dtd">
<svg version="1.1" id="Layer_1" xmlns="http://www.w3.org/2000/svg" xmlns:xlink="http://www.w3.org/1999/xlink" x="0px" y="0px"
	 viewBox="91.2 -17.2 654.2 675" enable-background="new 91.2 -17.2 654.2 675" xml:space="preserve">
<path opacity="0.57" fill="#FFFFFF" enable-background="new    " d="M279.8,281.5c-0.6,0.2-1.2,0.3-1.8,0.4c0.8,0.6,1.6,1.3,2.2,2.2
	c0.4,0.4,0.6,0.8,1,1.1C280.8,283.9,280.4,282.6,279.8,281.5z"/>
<path fill="none" stroke="#00AEEF" stroke-width="5" stroke-miterlimit="10" d="M358.2,413.2l-0.1,10.3c-5.4,3.8-11.3,6.9-17.2,9.5
	c-6.9,2.8-13,5.7-18.7,8.3c-6.7,3.2-12.9,6.1-19.3,8.2l0,0l0,0c-8.8,3.2-18.1,5.2-29.8,5.2c-11.5,0-23.1-4.1-35.8-9.5l0,0
	c-3.9-1.8-7.9-3.5-12.1-5.3l0,0c-8.2-3.7-17-7.7-26.6-11.3c-5.6-2.2-11.3-5.1-16.5-8.8l-0.5-61.5c7.1,0.8,16.4,0.9,27.8-0.1
	c43.9-4.1,37.6-45.9,43.9-55.6s4.6-11.4,21.2-11.1c16.5,0.4,13.2,27.1,19.4,39.2s9.5,30.3,59.8,28.1c1.5-0.1,3-0.2,4.4-0.3l1.1,41.8
	C358.5,404.7,358.4,408.9,358.2,413.2z"/>
<path stroke="#000000" stroke-width="6" stroke-miterlimit="10" d="M425.7,163.5c-2.2-3-4.2-6-6.1-9.1
	c-8.5-13.7-14.5-27.6-18.5-38.7C411.7,129.3,420.1,145.2,425.7,163.5z"/>
<path fill="#00AEEF" d="M225.3,315.7c-1.6-13.7-13.4-23.4-26.3-22.1c-7.2,0.7-13.1,4.7-16.7,10.4l-17.8,16.5c-0.9,0.8,0,2.2,1.1,1.8
	l12.6-3.3c0,0.5,0.1,1,0.2,1.4c1.6,13.7,13.4,23.5,26.3,22.1C217.8,341.4,227,329.2,225.3,315.7z M201.8,301.4
	c-8.8,0-15.8,7-15.8,15.8c0,0.4,0,0.7,0,1c-1.1-1.8-1.8-3.8-1.8-6c0-6.7,5.9-12.2,13-12.2c2.2,0,4.1,0.5,6,1.3
	C202.7,301.4,202.1,301.4,201.8,301.4z"/>
<path fill="#00AEEF" d="M375.7,321.1l-18.4-16.5c-3.8-5.7-10.1-9.6-17.7-10.6c-13.7-1.6-26.5,7.9-28.5,21.2
	c-2,13.2,7.5,25.2,21.2,26.7c13.7,1.6,26.5-7.9,28.5-21.2c0.1-0.4,0.2-0.9,0.2-1.5l13.4,3.4C375.7,323.2,376.6,321.8,375.7,321.1z
	 M353,318.6c0-0.4,0.1-0.7,0.1-1c0.3-8.6-7.2-15.7-16.5-15.8c-0.4,0-1,0-1.5,0.1c1.9-0.8,4-1.2,6.4-1.1c7.7,0.2,13.7,5.5,13.7,12.2
	C355,314.8,354.3,316.9,353,318.6z"/>
<g>
	<path fill="#00AEEF" d="M283.2,349.9c-0.5-0.3-1-0.5-1.5-0.8c-9.8-4.5-21.2,1.5-25.4,13c-0.2,0.4-0.4,1-0.4,1.4
		c-0.4-2.9-0.1-6,1-8.8c3.2-8.9,12.3-13.1,20.5-9.5C279.7,346.3,281.6,347.8,283.2,349.9z"/>
	<g>
		<path fill="#00AEEF" d="M284.3,348c-13-7.2-26.4,2.2-30.6,15.1c1.4,0.2,2.9,0.4,4.3,0.6c-0.5-6.4,1.8-13.1,7.9-16.2
			c5.8-2.9,11.9-0.7,15.8,4c1.8,2.2,4.9-1,3.1-3.1c-5-5.9-12.9-8.3-20.1-5.1c-7.9,3.5-11.8,12.1-10.9,20.4c0.2,2.5,3.5,3,4.3,0.6
			c3.3-10,13.7-18.1,24.2-12.3C284.6,353.1,286.8,349.3,284.3,348z"/>
	</g>
</g>
<g>
	<g>
		<path fill="#00AEEF" d="M219.1,410c10.7,8.8,25.2,13.2,38.9,13.6c13.6,0.3,25.9-4.5,38.1-9.8c7.6-3.4,15.1-7.2,21.6-12.4
			c2.2-1.8,4.8-4.2,5.7-7.2c1.9-6.5-8.1-9.3-10.1-2.8c-0.1,0.2,0.1-1.5,0.3-0.8c0.2,0.5-1.1,1.3-0.2,0.4c-1.4,1.6-3.1,3-4.4,3.8
			c-9.6,6.8-21.6,12.3-32.8,15.7c-12.1,3.7-24.7,3.5-36.5-0.9c-3.4-1.2-6.7-2.9-9.8-4.8c-1.1-0.6-2-1.4-3.1-2
			c-1.5-1,0.4,0.4-0.2-0.1C221.3,398.3,213.8,405.7,219.1,410L219.1,410z"/>
	</g>
</g>
<g>
	<g>
		<path fill="#00AEEF" d="M329.4,406.4c1.7-3.9,2.1-8.4,1.7-12.6c-1.1-9-7.7-14.6-16.1-17c-6.5-1.8-9.4,8.3-2.8,10.1
			c5.1,1.4,8.8,4.1,8.8,9.5c0,2.5-0.4,4.6-1.5,7.2C316.7,409.9,326.9,412.6,329.4,406.4L329.4,406.4z"/>
	</g>
</g>
<path fill="none" stroke="#00AEEF" stroke-width="10" stroke-miterlimit="10" d="M271.9,478.7c-7.9,0-13.7,10.4-20,11.4l0,0h-0.1
	c-0.1,0-0.3,0-0.4,0c-0.3,0-0.5,0-0.9,0c-9.7-0.4-19.1-2.2-27.1-5.1c0,0,0,0-0.1,0c-5.8-2-10.9-4.6-15.1-7.4
	c-0.3-0.2-0.4-0.4-0.7-0.4c-6.9-4.8-11-10.3-11-15.5c0-9.5,12.2-13.2,30.6-14.7l0,0c1.6-0.1,3.2-0.3,4.9-0.4
	c0.9,0.6,1.8,1.1,2.7,1.7l3.9,3.2l0,0l13.9,11.3l17.6,14.3L271.9,478.7z"/>
<path fill="none" stroke="#00AEEF" stroke-width="10" stroke-miterlimit="10" d="M344.6,464.2c0,3.6-2.7,7.7-7.2,11.2
	c-0.3,0.3-0.5,0.4-0.9,0.7c-3.6,2.9-8.5,5.3-13.9,7.6l0,0c-7.3,2.8-15.7,4.7-24.1,5.1c-1.6,0.1-3.2,0.1-4.7,0c-0.3,0-0.4,0-0.7,0
	c-8.3-0.4-12.4-9.9-21.4-9.9l2-1.6l17.4-13.7l9.5-7.5l0,0l9.7-7.8c3,0.3,5.9,0.5,8.5,1C334.9,451.1,344.6,455.5,344.6,464.2z"/>
<path fill="none" stroke="#00AEEF" stroke-width="3" stroke-miterlimit="10" d="M223.4,484.1c-0.1,1.2-0.3,2.5-0.4,3.7
	c0,0.4-0.1,0.9-0.2,1.3c-0.3,2.2-0.5,4.5-0.8,6.8c-0.1,0.8-0.2,1.7-0.3,2.5c-0.2,1.5-0.4,3-0.5,4.5h-11c-5.1-0.1-10.2-0.1-15.1-0.1
	c1.7-8.5,10.1-21.1,12.5-26.5c0.3,0.2,0.4,0.3,0.7,0.4C212.4,479.6,217.7,482.1,223.4,484.1z"/>
<path fill="none" stroke="#00AEEF" stroke-width="3" stroke-miterlimit="10" d="M345.5,503h-20.4c-0.5-4.5-1-8.7-1.4-12.5
	c-0.1-0.6-0.2-1.3-0.2-1.9c-0.3-2.2-0.4-4.5-0.6-6.5c5.3-2.2,10.2-4.8,13.9-7.7c0.3-0.3,0.5-0.4,0.9-0.7c2,4.3,3.8,9.7,5.3,16.2
	C344,493.9,344.7,498.2,345.5,503z"/>
<g>
	<g>
		<path fill="#00AEEF" d="M270.4,479.4c2.1,7.4-0.8,14.6-3.6,21.4c-1.1,2.5,2.6,4.8,3.7,2.2c3.4-7.9,6.5-16.1,4.1-24.7
			C273.9,475.7,269.7,476.7,270.4,479.4L270.4,479.4z"/>
	</g>
</g>
<g>
	<g>
		<path fill="#00AEEF" d="M254.4,501.7c-0.4-4.5-0.4-7.9,3.3-11c3.2-2.7,6.7-5.1,10.2-7.7c2.2-1.7,0.1-5.3-2.2-3.7
			c-4.3,3.2-9.4,6.1-12.9,10.1c-3.2,3.6-3.2,7.9-2.7,12.3C250.3,504.5,254.7,504.5,254.4,501.7L254.4,501.7z"/>
	</g>
</g>
<g>
	<g>
		<path fill="#00AEEF" d="M273,485.2c2,6,4.3,12.2,7.3,17.8c1.3,2.5,5.1,0.3,3.7-2.2c-2.8-5.3-4.9-11-6.7-16.7
			C276.3,481.3,272.2,482.5,273,485.2L273,485.2z"/>
	</g>
</g>
<g>
	<g>
		<path fill="#00AEEF" d="M274.6,483.1c4.9,3,9.7,5.9,14.6,8.8c4.1,2.5,10.1,5.3,10.9,10.6c0.4,2.8,4.6,1.6,4.2-1.1
			c-0.8-5.1-5.3-8.3-9.4-10.9c-6-3.8-12.3-7.4-18.3-10.9C274.4,477.9,272.2,481.8,274.6,483.1L274.6,483.1z"/>
	</g>
</g>
<path fill="#00AEEF" stroke="#00AEEF" stroke-width="9" stroke-miterlimit="10" d="M731.7,277.8L731.7,277.8
	c-0.6,6.7-0.1,6.2-0.5,7.9c-1,4.6-3.8,6.7-5.7,9c0,0-4,3.2-4.2,3.4c-2.2,1.4-6,3.9-8.3,4.1c-2.2,0.2-5.5-0.5-9.6-2
	c-0.4-0.1-6.8-2.4-7.3-2.4c-3.1-2.4-8.8-1.4-9.1-2.5c-0.3-0.9-2.5,0.4-12.3-3.7c-1-0.4-1.9-0.6-2.5-1.6l0,0
	c-0.1-0.1-0.1-0.2-0.1-0.2c-0.4-0.5-0.5-1.1-0.6-1.8c-3.1-40.7-21.5-93-136.3-77c-28.5,3.9-51.6-1.4-70.2-11.6
	c-16.5-9.1-29.4-22.1-39.4-35.9c-2.2-3-4.2-6-6.1-9.1c-8.5-13.7-14.5-27.6-18.5-38.7c-2.1-6-3.5-11.3-4.8-15.3
	c-2.8-8.7-1.1-9.6,6.1-11.8c13.4-3.8,46-9.4,117.3-12.4c115.6-5,159.1,30.1,191.4,69.2C737.5,177.1,734.4,247.6,731.7,277.8z"/>
<path fill="#00AEEF" d="M458.8,471.9c-0.2,1.5,1.1,16.6,0.8,18.2c-0.6,3.3-1.1,6.7-3.7,9.4l0,0c-2.2,2.2-6,3.6-12.3,3.8
	c-0.4,0.6-1.1,0.8-1.8,0.8h-96.3c-0.7-4.6-1.6-8.9-2.5-12.8l0,0c3.5-4.9,6-8.8,7.9-15.1c1.5-5.1,2.2-10.5,2.2-15.8l0.4-36l0.1-10
	c0.3-4.1,0.4-8.1,0.2-12.3l-1-40.4l0,0c42.5-2.9,25.8-22.1,32.8-39.6c7.2-17.7,7.6-14.4,10-16.5c-6.9-6.7-11.9-17-14.4-30l0,0
	c-7.4-1.4-16.7-2.2-27.1-2.4c-1.1,0-2.4,0-3.5,0c-5.7,0-11.6,0.2-17.7,0.6c-12.3,0.9-24.2,2.4-34.2,4c-7.7,1.2-14.2,2.5-19,3.4
	c-0.4-0.8-1-1.6-1.7-2.4c-5.1-6-13.8-5.7-19.6,0.5l-1,1.1h-0.1c-14.6-2.9-39-7.2-59.9-8.1c-4.5-0.2-8.8-0.3-12.8-0.2
	c-2,0.1-4,0.2-5.9,0.4c-32.3,3-38.1,10.4-38.1,10.4s-5.6,10.8-0.6,15.5c5,4.9,8.8,2.9,12,15.8c3.2,13,5.6,33,7.6,35.6
	c1.5,1.9,6.5,9.3,25.6,11.4l0,0l0.4,59.6l0.3,33.4c0.1,12.9,3.3,25.6,9.6,36.4c1.9,3.3,3.7,5.9,5.5,7.8c3.2,3.5,6.2,5.1,8.9,5.5
	H105.6c-1.3,0-3.5-0.4-5.6-2.5c-1-1-1.5-1.7-2.6-4.1c-0.8-1.8-1.8-6-2.7-10.9c-3.1-15.7-4-31.8-3.2-47.8l12.3-205.5l0,0
	c-0.2-3.6-0.3-7.3-0.3-10.8c0-110.5,75.2-164.8,166.2-164.8c53.8,0,101.5,19.3,131.4,57.8c4,11.2,9.9,25.1,18.5,38.7
	c1.9,3.1,3.9,6,6.1,9.1c10,13.8,22.9,26.8,39.4,35.9l0,0c-32.4,27.5-23.5,71.9-19.6,85.8c-5.3-0.3-13.8,0.9-18.9,9.4l0,0
	c-3.1,4.3-5.1,10.7-5.2,20.2c-0.2,0-0.4,0-0.4,0c-2.7,0.2-5.3,0.1-7.9-0.3c-5.7,18.5-30.1,108.1,45.3,148.8c1.2,0.7,1.8,2.2,1.2,3.7
	c-0.2,0.9-0.3,1.7-0.4,2.5v0.4C459,471.1,458.8,471.9,458.8,471.9z"/>
<path fill="#00AEEF" d="M456.8,237.2l48.6,12c0,0,2.4-1.3,4.4,7.5c2,8.8,5.2,20.4,5.2,20.4s4.4,9.4-8.8,0.9
	c-13.1-8.4-53.4-33.3-53.4-33.3S444.8,236.2,456.8,237.2z"/>
<path fill="#00AEEF" d="M591.3,253l-3.8,22.3c0,0-1.6,9.4,6.7,4c8.3-5.3,55.9-34.6,55.9-34.6s8.8-10.2-5.2-7.1
	c-13.9,3.2-47.4,11.5-47.4,11.5S592,250.1,591.3,253z"/>
<path fill="none" stroke="#00AEEF" stroke-width="9" stroke-miterlimit="10" d="M705.5,300.9c0,0.1,0,0.1,0,0.2
	c6.4,20.1,8.9,38.1,8.8,54c-0.5,39.9-18.5,67-36.8,84.4"/>
<path fill="none" stroke="#00AEEF" stroke-width="10" stroke-miterlimit="10" d="M713.7,355c0.2-0.1,0.4-0.2,0.4-0.3
	c41.4-22.8,20.7-70.3,17.5-76.9"/>
<g>
	<g>
		<path fill="#00AEEF" d="M615.6,436.1c-10.2-23.1-11.2-49.2-1.5-72.7c1.7-3.8-4.7-5.6-6.3-1.8c-10.5,25.1-8.8,53,2.2,77.6
			C611.6,443.3,617.2,440,615.6,436.1L615.6,436.1z"/>
	</g>
</g>
<g>
	<g>
		<path fill="#00AEEF" d="M498.6,365c9.4,23.7,12.3,49.9,6.5,74.8c-1,4.1,5.3,5.9,6.3,1.8c6.1-26.1,3.3-53.6-6.5-78.3
			C503.3,359.3,497,361,498.6,365L498.6,365z"/>
	</g>
</g>
<line fill="none" stroke="#00AEEF" stroke-width="12" stroke-miterlimit="10" x1="555.7" y1="483.8" x2="555.7" y2="502.4"/>
<path fill="none" stroke="#00AEEF" stroke-width="7" stroke-miterlimit="10" d="M683.1,393.4l-8.8,46c-4-0.4-8.1,2.5-10.3,8
	l-2.8,7.4l-8.1,21.4c-3.9-1.6-6.9-5.7-8.3-10.8c-1.1-3.6-1.2-7.8-0.4-11.9l13.1-68.9c1.8-9.1,7.8-15.1,14-14.5
	c0.8,0.1,1.6,0.2,2.4,0.4C681,373,685.2,383.2,683.1,393.4z"/>
<path fill="none" stroke="#00AEEF" stroke-width="6" stroke-miterlimit="10" d="M742.4,453.1c0,2.7-0.7,5.5-2.2,7.9l-24.9,39.7
	l-0.4,0.6h-17.8l0.3-0.6l12.7-32.1c0.7-1.8,1.1-3.6,1.1-5.6c0-1.3-0.2-2.5-0.4-3.7l8.9-14.2c3.9-6.3,11.8-7.9,17.3-3.5
	C740.6,444.3,742.4,448.6,742.4,453.1z"/>
<path fill="none" stroke="#00AEEF" stroke-width="6" stroke-miterlimit="10" d="M711.3,463.1c0,1.8-0.4,3.7-1.1,5.6l-12.7,32.1
	l-0.3,0.6h-25.8c0-0.2,0-0.4,0-0.6c0-0.5,0-1.1,0.1-1.6c1.1-1.2,2-2.6,2.7-4.3l16.1-40.6c0.3-0.6,0.4-1.2,0.6-1.8
	c3.5-3.2,8.5-4.2,13-2c3.6,1.8,6,5.1,6.9,9C711.2,460.6,711.3,461.8,711.3,463.1z"/>
<path fill="none" stroke="#00AEEF" stroke-width="6" stroke-miterlimit="10" d="M689.9,453.2c0,1.2-0.2,2.4-0.4,3.6
	c-0.2,0.6-0.4,1.1-0.6,1.8l-16.1,38.6c-0.7,1.6-1.6,3-2.7,4.1l0,0c-0.7,0.7-1.8,0.4-2.2-0.4c-0.5-1.2-1.2-2.4-2.2-3.3l-13-14.8
	c-0.4-0.5-0.5-1.2-0.3-1.8l2.6-6.4l8.1-19.6l2.9-6.8c2.1-5.1,6.8-8,11.8-7.9c1,0,1.9,0.2,2.8,0.4c0.6,0.2,1.2,0.4,1.8,0.7
	C687.1,443.3,689.9,448.2,689.9,453.2z"/>
<path fill="none" stroke="#00AEEF" stroke-width="6" stroke-miterlimit="10" d="M654.2,474.5l-3.2,6.9l-6.5-6.8
	c-2.5-2.6-5.9-3.9-9.3-3.9c-3.2,0-6.2,1.1-8.7,3.3c-5.1,4.6-5.3,12.5-0.6,17.5l9.2,9.6l0.4,0.4l0.1,0.1H445.1c0.1,0,0.3-0.1,0.4-0.1
	c0.4-0.1,1-0.3,1.4-0.4c0.4-0.2,0.7-0.3,1.1-0.5c1.8-0.9,3.2-2.2,4.4-3.6l0,0c2.6-2.2,3.2-5.3,3.8-8.3c0.3-1.4-1-15.1-0.8-16.3
	c0,0,0.2-0.9,0.4-1.9l0,0c1.1-1.3,2-2.8,2.6-4.4c2.2,0.9,4.6,1.7,6.8,2.5c96.4,31.3,170.1,1,177.9-2.5
	C645.2,470.1,649.1,473.4,654.2,474.5z"/>
<path fill="none" stroke="#00AEEF" stroke-width="7" stroke-miterlimit="10" d="M667.4,501.1h-31.9l-0.5-0.6l-9-10.2
	c-4.7-5.3-4.5-13.7,0.6-18.7c2.4-2.4,5.5-3.6,8.5-3.6c3.3,0,6.7,1.4,9.2,4.2l6.5,7.4l13.7,15.7c1.4,1.6,2.2,3.3,2.8,5.2v0.1
	C667.3,500.7,667.4,500.9,667.4,501.1z"/>
<path fill="none" stroke="#00AEEF" stroke-width="3" stroke-miterlimit="10" d="M353.6,423.7l-0.4,35.8c-0.1,5.3-0.8,10.7-2.2,15.7
	c-1.9,6.3-4.3,10.2-7.9,15.1c-1.6-6.4-3.4-11.8-5.3-15.8c4.5-3.6,7.2-7.5,7.2-11.1c0-8.7-9.7-12.9-25.6-15.1c-2.7-0.4-5.6-0.7-8.5-1
	l-9.7,7.7l0,0l-9.5,7.5L274.4,476l-2,1.6c8.9,0,13,9.5,21.4,9.8c0.3,0,0.4,0,0.7,0c1.6,0.1,3.2,0.1,4.7,0c8.4-0.4,16.9-2.2,24.1-5
	h0.1c0.2,2,0.4,4.1,0.6,6.4c0.1,0.6,0.2,1.2,0.2,1.8c0.4,3.7,1,7.9,1.4,12.3H221.5c0.2-1.6,0.4-3.1,0.5-4.6c0.1-0.9,0.2-1.7,0.3-2.5
	c0.3-2.5,0.5-4.7,0.8-6.9c0.1-0.4,0.1-0.9,0.2-1.3c0.2-1.3,0.3-2.6,0.4-3.8c0,0,0,0,0.1,0c8.1,2.8,17.3,4.7,27.1,5.1
	c0.3,0,0.5,0,0.9,0c0.1,0,0.3,0,0.4,0h0.1l0,0c6.4-1.1,12.2-11.3,20-11.4l-1.9-1.5l-17.6-14.2l-13.9-11.5l0,0l-3.9-3.2
	c-1-0.5-1.8-1.1-2.7-1.7c-1.7,0.1-3.3,0.2-4.9,0.4l0,0c-18.5,1.5-30.6,5.2-30.6,14.6c0,5.2,4.2,10.8,11,15.4
	c-2.5,5.5-9.4,13.6-11,22.1c-1.8-1.9-1.1-3.6-3-6.7c-6.3-10.8-7.4-25-7.4-37.8l-0.3-33.2c5.1,3.5,10.4,6.3,15.8,8.3
	c9.1,3.5,17.4,7.3,25.2,10.8l0,0c3.9,1.8,7.8,3.6,11.5,5.1l0,0c12.2,5.2,23.2,9.2,34.1,9.2c11,0,20-2,28.3-5l0,0l0,0
	c6.1-2.2,12-5,18.3-8c5.5-2.6,11.3-5.3,17.9-8.1C343,430.4,348.4,427.3,353.6,423.7z"/>
<g>
	<g>
		<path fill="#00AEEF" d="M233.5,497.6c2.8,0,2.8-4.4,0-4.4S230.7,497.6,233.5,497.6L233.5,497.6z"/>
	</g>
</g>
<g>
	<g>
		<path fill="#00AEEF" d="M229.2,495.4c4.6,1.8,9.4,2.5,14.3,2c2.4-0.3,3.1-3.5,0.6-4.3c-1.1-0.4-2.2-0.5-3.5-0.4
			c-2.8,0.1-2.8,4.5,0,4.4c0.8-0.1,1.6,0,2.2,0.3c0.2-1.4,0.4-2.9,0.6-4.3c-4.6,0.5-8.9-0.1-13-1.8
			C227.7,490.2,226.6,494.4,229.2,495.4L229.2,495.4z"/>
	</g>
</g>
<g>
	<g>
		<path fill="#00AEEF" d="M234.5,496.1c2.8,0,2.8-4.4,0-4.4C231.6,491.7,231.6,496.1,234.5,496.1L234.5,496.1z"/>
	</g>
</g>
<g>
	<g>
		<path fill="#00AEEF" d="M225.4,489.6c-0.4,2.2-0.7,4.6-1.1,6.7c-0.2,1.1,0.3,2.4,1.5,2.7c1.1,0.3,2.5-0.4,2.7-1.5
			c0.4-2.2,0.7-4.6,1.1-6.7c0.2-1.1-0.3-2.4-1.5-2.7C227.1,487.7,225.6,488.4,225.4,489.6L225.4,489.6z"/>
	</g>
</g>
<g>
	<g>
		<path fill="#00AEEF" d="M224.5,488.5c-1.9,3.7-2.8,7.9-2.6,12.2c0.2,2.8,4.6,2.8,4.4,0c-0.2-3.5,0.4-6.7,2-9.8
			C229.5,488.3,225.8,486,224.5,488.5L224.5,488.5z"/>
	</g>
</g>
<g>
	<g>
		<path fill="#00AEEF" d="M249,502.7c2.8,0,2.8-4.4,0-4.4C246.1,498.3,246.1,502.7,249,502.7L249,502.7z"/>
	</g>
</g>
<g>
	<g>
		<path fill="#00AEEF" d="M241,502.7c2.8,0,2.8-4.4,0-4.4S238.2,502.7,241,502.7L241,502.7z"/>
	</g>
</g>
<g>
	<g>
		<path fill="#00AEEF" d="M245.9,494.4c0,1.6,0.1,3.2,0.1,4.8c0,1.8,2.4,2.9,3.7,1.6c1.8-1.8,2.4-4,1.8-6.5
			c-0.2-0.9-1.2-1.7-2.1-1.6c-5.2,0.4-10.6,0.8-15.8,1.1c-1.4,0.1-2.5,1.3-2.1,2.8c1.2,5.3,11.5,4.4,15.4,4.2
			c-0.4-1.4-0.7-2.7-1.1-4.1c-3,1.3-5.8,2.4-8.9,0.6c-1.3-0.7-2.5-1.8-3.6-2.6c-1.6-1.2-3.4-2.7-5.3-1.7c-4.3,2.1-0.5,6.6,2.5,7.4
			c0-1.4,0-2.8,0-4.2c-1.3,0.5-2.6,1-3.9,1.5c-1.8,0.7-2.4,3.8,0,4.2c6.5,1,13.1,1.6,19.8,1.6c2.8,0,2.8-4.4,0-4.4
			c-6.3,0-12.4-0.5-18.6-1.4c0,1.4,0,2.8,0,4.2c1.3-0.5,2.6-1,3.9-1.5c1.9-0.7,2.2-3.6,0-4.2c-0.3,0-0.5-0.1-0.9-0.1
			c-0.6,0.4-1.2,0.7-1.9,1.1c1.5-0.2,3.3,2,4.6,2.9c1.3,1,2.8,1.8,4.3,2.2c3.6,1.1,7.3-0.4,10.6-1.8c2-0.9,1-4.2-1.1-4.1
			c-1.3,0.1-10.9,0.5-11.2-1c-0.7,1-1.4,1.8-2.1,2.8c5.2-0.4,10.6-0.8,15.8-1.1c-0.7-0.5-1.4-1.1-2.1-1.6c-0.2,0.8-0.4,1.6-0.6,2.2
			c1.2,0.5,2.5,1.1,3.7,1.6c0-1.6-0.1-3.2-0.1-4.8C250.2,491.5,245.8,491.5,245.9,494.4L245.9,494.4z"/>
	</g>
</g>
<g>
	<g>
		<path fill="#00AEEF" d="M297.1,494.4c2.6,1.1,5.3,2.2,5.3,5.8c0,2.1,3.1,3.1,4.1,1.1c1.6-2.9,1.8-5.9,0.6-9
			c-0.7,1-1.4,1.8-2.1,2.8c6.6,0.2,13.2-0.4,17.7-5.9c-1.2-0.5-2.5-1.1-3.7-1.6c0.2,4,0.3,8.1,0.4,12.2c0.7-0.7,1.5-1.5,2.2-2.2
			c-2.2-0.1-4.4-0.3-6.5-0.4c-0.7,0-7.5-0.5-3.4-0.3c3,0.2,5.6,0.6,8.1-1.3c-1-0.3-2-0.5-3-0.8c-0.9-1.7-6.5-0.7-7.9,0
			c-2.2,1-3.5,2.7-3.9,5.1c-0.3,1.4,0.6,2.7,2.1,2.8c5.2,0.2,10.6,0.3,15.8,0.2c2.8-0.1,2.8-4.5,0-4.4c-5.2,0.1-10.6,0.1-15.8-0.2
			c0.7,1,1.4,1.8,2.1,2.8c0.4-1.6,3.2-2.4,4.5-2.5c1-0.1,1.9,0.2,2.8,0.2c1.2-0.1,2.5-0.3,3.5-1.1c1.6-1.4,1.6-3.3,0.7-5
			c-0.5-1-2.1-1.5-3-0.8c-3.2,2.4-13-1.2-12.4,6.2c0.2,2.1,1.6,2.8,3.4,3.2c4.2,0.8,8.9,0.5,13.1,0.8c1.1,0.1,2.2-1.1,2.2-2.2
			c-0.2-4-0.3-8.1-0.4-12.2c-0.1-1.8-2.5-3.2-3.7-1.6c-3.7,4.6-9.2,4.7-14.6,4.6c-1.3,0-2.6,1.5-2.1,2.8c0.8,1.9,0.9,3.7-0.2,5.6
			c1.4,0.4,2.7,0.7,4.1,1.1c0-5-3.2-7.6-7.5-9.5C296.8,489.5,294.5,493.3,297.1,494.4L297.1,494.4z"/>
	</g>
</g>
<g>
	<g>
		<path fill="#00AEEF" d="M421.3,312.7c2.8,0,2.8-4.4,0-4.4C418.5,308.3,418.5,312.7,421.3,312.7L421.3,312.7z"/>
	</g>
</g>
<g>
	<g>
		<path fill="#00AEEF" d="M421.3,315.1c2.8,0,2.8-4.4,0-4.4C418.5,310.7,418.5,315.1,421.3,315.1L421.3,315.1z"/>
	</g>
</g>
<path fill="#00AEEF" d="M693.1,298.6c-0.1,0-0.2-0.4-0.3-1c-0.5-3.9-2.5-6.7-6.5-7.2c-5.7-0.7-13.9-0.6-14.2-0.8
	c-57.8-3-221.8-3.7-221.8-3.7s-1.5-0.4-3.6-0.5c-0.4,0-0.9-0.1-1.3-0.1c-5.3-0.3-13.8,0.8-18.9,8.1l0,0c-2.5,3.7-4.3,9.1-4.3,16.6
	c0,2.1,0.1,4.3,0.4,6.7c4,38.8,6,36.4,47,46.9c16,4.1,27.8,6.9,36,8.9c0.1,0,0.2,0,0.3,0.1l0,0c12.6,2.9,17.2,3.6,17.2,3.6
	s11.6,3.2,15.9-9.4c4.4-12.5,12.7-30.1,12.7-30.1s2-8.1,7.2,1.6c5.1,9.7,18.7,34.8,18.7,34.8s2,5.9,9.2,5.1l20.1-4.8l0.4-0.1
	l76.8-18.2c0,0,8.8-3.2,9.5-16.5C694.3,328.4,694,309.2,693.1,298.6z M438.4,339.5l-0.8,0.1c-0.1,0-0.3,0-0.4,0
	c-3.2,0-5.9-2.5-6-5.6c-0.2-3.2,2.4-6.1,5.7-6.3h0.8c0.1,0,0.3,0,0.4,0c3.2,0,5.9,2.5,6,5.6C444.3,336.6,441.7,339.4,438.4,339.5z
	 M437.8,323c-3.8,0.2-7.3-2.7-7.5-6.5l-0.4-7.5v-0.4c0-0.2,0-0.3,0-0.4c0-3.6,2.9-6.7,6.6-6.8c2.1-0.1,4,0.7,5.3,2
	c1.2,1.1,2,2.7,2.1,4.6l0.4,7.9C444.5,319.4,441.5,322.7,437.8,323z"/>
<path fill="#00AEEF" d="M381,275.7c-7.4-1.4-16.8-2.2-27.1-2.4c-1.1,0-2.4,0-3.5,0c-5.7,0-11.6,0.2-17.8,0.6
	c-12.4,0.9-24.3,2.4-34.3,4.1c-7.7,1.2-14.3,2.5-19.1,3.4c-0.6,0.2-0.5,0.1-1.8,0.4c-4.6,1-7.4,1.7-7.4,1.7s-3.7-0.9-9.8-2.1
	c-1.1-0.4-2.3-0.5-3.2-0.7c-14.7-2.9-39.3-7.3-60.2-8.1c-4.5-0.2-8.8-0.3-12.9-0.2c-2,0.1-4,0.2-5.9,0.4
	c-32.4,2.9-38.3,10.5-38.3,10.5s-5.6,10.8-0.6,15.7c5,5,8.8,2.9,12.1,16c3.2,13.1,5.6,33.4,7.6,36.1c1.5,1.9,6.5,9.4,25.7,11.5
	c6.7,0.8,15.6,0.9,26.5-0.1c41.8-4,36-44.8,41.8-54.3s4.4-11,20.2-10.8c15.8,0.4,12.6,26.5,18.5,38.3c5.9,11.7,9.1,29.5,56.9,27.4
	c1.4-0.1,2.8-0.2,4.1-0.3c42.7-2.9,25.9-22.3,32.9-40c7.2-17.9,7.6-14.5,10-16.5C388.6,299.4,383.7,289,381,275.7z M153.3,282.5
	c-6.6-0.7-12.7,6.4-13.6,15.7c0,0.4-0.1,0.7-0.1,1.1c-0.7-1.9-1-4.3-0.8-6.5c0.5-7.2,5.5-12.5,10.9-12.1c1.6,0.2,3.1,0.8,4.4,1.8
	C154,282.5,153.6,282.5,153.3,282.5z M245,305c-5.2,23.8-6.9,48.4-30,51c-10.3,1.1-21.3,1.2-30.3-0.2c-11.2-1.8-20-5.9-21.7-12.9
	c-3.2-12.8-9.1-36.3-6.9-49.4c0,0,6.9-8.1,28.1-9.6c4-0.4,8.5-0.4,13.7-0.1C229.4,285.3,250.3,281.1,245,305z M380.3,307
	c-1.8,10.5-0.9,27.1-5.6,35c-3.5,5.9-5.8,12.7-22.3,14.4c-5.8,0.6-13.3,0.6-23.3-0.4c-31.8-3-30.4-30.5-37.5-54.7
	c0,0-2.9-15.7,17.9-16.4c12.6-0.4,28.1-2,41.1-2.4c8.2-0.3,15.6,0,20.3,1.4C383,287.5,382,296.5,380.3,307z"/>
<path fill="none" stroke="#00AEEF" stroke-width="7" stroke-miterlimit="10" d="M527.7,427.5H588c8.2,0,15.1-6.7,15.1-15.1v-4.5
	c0-8.2-6.7-15.1-15.1-15.1h-60.3c-8.2,0-15.1,6.7-15.1,15.1v4.5C512.6,420.7,519.4,427.5,527.7,427.5z"/>
<path fill="none" stroke="#00AEEF" stroke-width="7" stroke-miterlimit="10" d="M529.5,392.3c0,22.8-0.5,36.2-0.5,36.2"/>
<line fill="none" stroke="#00AEEF" stroke-width="7" stroke-miterlimit="10" x1="544.8" y1="392.8" x2="544.8" y2="427.3"/>
<line fill="none" stroke="#00AEEF" stroke-width="7" stroke-miterlimit="10" x1="558.9" y1="392.3" x2="558.9" y2="426.6"/>
<line fill="none" stroke="#00AEEF" stroke-width="7" stroke-miterlimit="10" x1="573.1" y1="391.9" x2="573.1" y2="427.3"/>
<line fill="none" stroke="#00AEEF" stroke-width="7" stroke-miterlimit="10" x1="587.1" y1="392.5" x2="587.1" y2="427.9"/>
<rect x="282.8" y="627.8" fill="none" width="202.3" height="30"/>
<rect x="337.4" y="-17.2" fill="none" width="180.2" height="28.5"/>
</svg>
