<?xml version="1.0" encoding="utf-8"?>
<!-- Generator: Adobe Illustrator 18.1.0, SVG Export Plug-In . SVG Version: 6.00 Build 0)  -->
<!DOCTYPE svg PUBLIC "-//W3C//DTD SVG 1.1//EN" "http://www.w3.org/Graphics/SVG/1.1/DTD/svg11.dtd">
<svg version="1.1" id="Layer_1" xmlns="http://www.w3.org/2000/svg" xmlns:xlink="http://www.w3.org/1999/xlink" x="0px" y="0px"
	 viewBox="0 0 236 235.9" enable-background="new 0 0 236 235.9" xml:space="preserve">
<path fill="#00AEEF" d="M97.2,0C43.5,0,0,43.5,0,97.2c0,53.7,43.5,97.2,97.2,97.2c53.7,0,97.2-43.5,97.2-97.2
	C194.3,43.5,150.8,0,97.2,0z M97.2,166.7c-38.4,0-69.5-31.1-69.5-69.6c0-38.4,31.1-69.6,69.5-69.6c38.4,0,69.6,31.1,69.6,69.6
	C166.7,135.6,135.6,166.7,97.2,166.7z"/>
<path fill="#00AEEF" d="M213.5,161.4c-22.6-22.1-20.4,3.2-34.8,17.9c-14.3,14.7-39.7,13.1-17.1,35.2c22.6,22.1,52.5,28.1,66.9,13.5
	C242.8,213.3,236.1,183.5,213.5,161.4z M213.8,227.1c2.9-7.5,4.7-16,5.1-24.9c0.4-9-0.7-17.5-2.9-25.3c7.8,3.5,13.2,13.8,12.7,25.7
	C228.1,214.5,221.9,224.3,213.8,227.1z"/>
<path fill="#00AEEF" d="M149.5,72.8c-16.7-5.6-34.9-7.7-53.5-5.7c-18.7,2-35.9,8-51.1,17C49,60.8,68.1,42,92.9,39.3
	C117.7,36.6,140.4,50.9,149.5,72.8z"/>
</svg>
