<?xml version="1.0" encoding="utf-8"?>
<!-- Generator: Adobe Illustrator 18.1.0, SVG Export Plug-In . SVG Version: 6.00 Build 0)  -->
<!DOCTYPE svg PUBLIC "-//W3C//DTD SVG 1.1//EN" "http://www.w3.org/Graphics/SVG/1.1/DTD/svg11.dtd">
<svg version="1.1" id="Layer_1" xmlns="http://www.w3.org/2000/svg" xmlns:xlink="http://www.w3.org/1999/xlink" x="0px" y="0px"
	 viewBox="0 0 267.5 267" enable-background="new 0 0 267.5 267" xml:space="preserve">
<path fill="#236A9F" d="M102.5,155.6C102.5,155.6,102.5,155.6,102.5,155.6C102.4,155.6,102.5,155.6,102.5,155.6
	C102.5,155.6,102.5,155.6,102.5,155.6z M107.9,152.1c2.9-2.1,5.7-4.4,8.3-7C113.5,147.6,110.7,149.9,107.9,152.1z M114.8,60.6
	L114.8,60.6C114.8,60.7,114.8,60.6,114.8,60.6C114.8,60.6,114.8,60.6,114.8,60.6z M156.9,80.4C156.9,80.4,156.9,80.4,156.9,80.4
	c11.6,0,23.3,0,35,0c0,0,0,0,0,0H156.9z M214,80.4L214,80.4C214,80.5,214,80.5,214,80.4L214,80.4z M250.9,85.9v2.4c0-0.3,0-0.7,0-1
	C251,86.8,250.9,86.4,250.9,85.9z M60.5,187.6c-0.3-2.1-0.5-4.1-0.5-6c-0.1,2.9,0.2,5.7,0.9,8.4C60.8,189.2,60.6,188.4,60.5,187.6z"
	/>
<path fill="#FFFFFF" d="M11.9,188.8v0.1c0.3,0.6,0.7,1.2,1,1.9v-0.2C12.5,190,12.2,189.4,11.9,188.8z"/>
<g>
	<path fill="#FFFFFF" d="M60.9,190c-0.7-2.7-1-5.5-0.9-8.4c0,2,0.2,4,0.5,6C60.6,188.4,60.8,189.2,60.9,190z"/>
	<path fill="#236A9F" d="M70.5,207.4c-15.6-0.4-30.3,0.2-44.4,4.4c-5.1-7.2-9.5-14.4-13.2-21v-0.2c-0.4-0.6-0.7-1.2-1-1.8v0.1
		c-0.1-0.2-0.2-0.3-0.3-0.5c-7-15.5-11-32.6-11.5-50.6c0.4,0.8,0.9,1.6,1.4,2.3c4,6.3,9.1,11.6,14.8,15.7c4.4,3.2,9.2,5.7,14.3,7.5
		c3.6,1.3,7.4,2.3,11.2,2.9c0.1,0,0.2,0,0.2,0c1.9,0.4,3.8,0.6,5.6,0.8c0.7,0.1,1.3,0.1,2,0.2c4.5,0.4,9,0.4,13.6,0.2
		c-0.6,1.1-1.1,2.3-1.5,3.6c0,0.1-0.1,0.2-0.1,0.3c-1,3-1.5,6.4-1.5,10.1v0.2c-0.1,2.9,0.2,5.7,0.9,8.4c0,0,0,0.1,0,0.1
		C62.6,197.6,66.2,203.9,70.5,207.4z"/>
	<path fill="#236A9F" d="M11.9,188.9v0.1c-0.1-0.2-0.2-0.4-0.3-0.6C11.7,188.5,11.8,188.7,11.9,188.9z"/>
	<path fill="#F8F6F5" d="M191.9,80.4c-11.7,0-23.3,0-35,0c0.1,0,0.2,0,0.3,0h34.5C191.8,80.4,191.8,80.4,191.9,80.4z"/>
	<path fill="#236A9F" d="M114.8,60.6C114.8,60.6,114.8,60.7,114.8,60.6L114.8,60.6C114.8,60.6,114.8,60.6,114.8,60.6z"/>
	<path fill="#236A9F" d="M214,80.4C214,80.5,214,80.5,214,80.4L214,80.4L214,80.4z"/>
	<path fill="#236A9F" d="M191.9,80.4c-11.7,0-23.3,0-35,0c0,0,0,0,0,0L191.9,80.4L191.9,80.4z"/>
	<path fill="#FFFFFF" d="M191.9,80.4C191.9,80.4,191.9,80.4,191.9,80.4c-11.7,0-23.4,0-35,0c0,0,0,0,0,0H191.9z"/>
	<path fill="#FFFFFF" d="M250.9,80.4v20.3h-37.6v37.6H193v-37.6h-37.6V80.4h1.4c0,0,0,0,0,0c11.7,0,23.3,0,35,0c0,0,0,0,0,0h1.1
		V42.9h20.3v37.6h0.6v0.1c0,0,0,0,0-0.1H250.9z"/>
	<path fill="#FFFFFF" d="M214,80.4C214,80.5,214,80.5,214,80.4L214,80.4L214,80.4z"/>
</g>
<path fill="#FFFFFF" d="M102.5,155.6C102.5,155.6,102.4,155.6,102.5,155.6C102.5,155.6,102.5,155.6,102.5,155.6
	C102.5,155.6,102.5,155.6,102.5,155.6z"/>
<path fill="#FFFFFF" d="M116.1,145.1c-2.6,2.6-5.4,5-8.3,7C110.7,149.9,113.5,147.6,116.1,145.1z"/>
<path fill="#236A9F" d="M133.8,0C91.6,0,54,19.5,29.5,50c0,0.1-0.1,0.1-0.2,0.2c0.3-0.1,0.5-0.3,0.8-0.4c11.2-5.5,23.3-8.2,36.4-8.3
	c18.8-0.1,37.6-0.1,56.4-0.2h28.5c0,0,0,0-0.1,0.1l1.4,0l-3.9,3.1l-1.6,1.3l-10.7,8.6l-1.9,1.5H133l-23.8,0.1l-1.9,0
	c2.9,1.8,5.1,3.2,7.2,4.6c0.2,0.1,0.4,0.3,0.6,0.4c0.2,0.2,0.5,0.4,0.7,0.6c0.3,0.2,0.5,0.5,0.8,0.7c10.7,9.9,17.1,22.7,18,37.5
	c0.1,1.1,0.1,2.2,0.1,3.3c0,9.2-2.5,17.9-6.5,25.7c0,0,0,0,0,0c-3.2,6.1-7.4,11.6-12.1,16.3c-2.6,2.6-5.4,5-8.3,7
	c-1.8,1.3-3.6,2.4-5.4,3.5c0,0,0,0,0,0c0,0,0,0,0,0c0,0.1,0,0.1-0.1,0.1c-6.1,4-10.1,10.4-10.1,17.6c0,6.7,3.4,12.7,8.9,16.8
	c0.2,0.2,0.3,0.3,0.5,0.5c2.5,2.4,5.5,4.8,8.9,7c1.1,0.7,2.3,1.4,3.4,2.1c0.9,0.7,1.8,1.4,2.7,2c1.2,0.9,2.3,1.8,3.5,2.7
	c6.4,5.1,12.2,10.9,17.2,17.4c7.8,11.8,9.6,24.9,9,38.5v6.7c68-6.3,121.2-63.5,121.2-133.2C267.5,59.9,207.6,0,133.8,0z M114.8,60.7
	L114.8,60.7C114.8,60.6,114.8,60.6,114.8,60.7C114.8,60.6,114.8,60.7,114.8,60.7z M250.9,100.8h-37.6v37.6H193v-37.6h-37.6V80.4H193
	V42.9h20.3v37.6h37.6v5.5c0,0.5,0,0.9,0,1.3c0,0.3,0,0.7,0,1V100.8z"/>
<path fill="#FFFFFF" d="M11.9,188.9v0.1c-0.1-0.2-0.2-0.4-0.3-0.6C11.7,188.5,11.8,188.7,11.9,188.9z"/>
<path fill="#236A9F" d="M121.6,261.8v5.2c-33.3-3-63.1-18.2-84.9-41.2c-0.2-0.2-0.4-0.4-0.6-0.7c-0.2-0.2-0.4-0.4-0.5-0.6
	c-0.5-0.5-1-1.1-1.5-1.6c0,0,0.2-0.1,0.3-0.1c0.1,0,0.1-0.1,0.2-0.1c8.6-4.2,18.5-6.7,29-6.7c25.5,0,47.3,14.1,56.1,34.1
	c1.2,2.9,1.8,6,1.9,9.2C121.6,260.2,121.5,261,121.6,261.8z"/>
<path fill="#236A9F" d="M30.1,49.8c-0.3,0.1-0.5,0.2-0.8,0.4c0-0.1,0.1-0.1,0.2-0.2C29.7,49.9,29.9,49.8,30.1,49.8z"/>
<path fill="#236A9F" d="M82.5,155.1c-0.4,0.2-0.9,0.4-1.3,0.6c-0.3,0.1-0.6,0.3-1,0.4c-5.8,2.2-12,2.7-18.1,1.6
	c-14.7-2.5-28.9-13.8-37.4-30.6c-0.2-0.4-0.4-0.9-0.6-1.3c-0.1-0.2-0.2-0.5-0.3-0.7c-0.2-0.5-0.5-1-0.7-1.5c-0.4-1-0.9-2-1.3-3.1
	c-0.4-1.2-0.9-2.3-1.2-3.5c-0.1-0.4-0.3-0.8-0.4-1.3c-8-26.3,1.1-52.8,21.4-60.6c5.8-2.2,11.8-2.7,17.8-1.7
	C76,56.3,92.2,70.3,100,90.7C110.3,117.5,102.4,145.7,82.5,155.1z"/>
<path fill="#FFFFFF" d="M63.1,165.7c-7,1.4-14.2,1.5-21.1,0.5c-0.1,0-0.2,0-0.2,0c-3.8-0.6-7.6-1.5-11.2-2.9
	c-5.1-1.8-9.9-4.3-14.3-7.5c-5.7-4.1-10.8-9.4-14.8-15.7c-0.5-0.8-1-1.6-1.4-2.3c0,0,0-0.1-0.1-0.1V80.5c0.9-1.7,1.9-3.4,3-5
	c-0.9,16.8,3.9,35.6,14.8,52.8C29.6,147,46.2,160,63.1,165.7z"/>
<ellipse fill="none" cx="133.8" cy="133.5" rx="133.8" ry="133.5"/>
</svg>
