<?xml version="1.0" encoding="utf-8"?>
<!-- Generator: Adobe Illustrator 18.1.0, SVG Export Plug-In . SVG Version: 6.00 Build 0)  -->
<!DOCTYPE svg PUBLIC "-//W3C//DTD SVG 1.1//EN" "http://www.w3.org/Graphics/SVG/1.1/DTD/svg11.dtd">
<svg version="1.1" id="Layer_1" xmlns="http://www.w3.org/2000/svg" xmlns:xlink="http://www.w3.org/1999/xlink" x="0px" y="0px"
	 viewBox="258.2 149.5 267.5 267" enable-background="new 258.2 149.5 267.5 267" xml:space="preserve">
<path fill="none" d="M341.4,252.7c0,13.6,0,27.3,0,40.9v77.6c0,0.7,0,1.3-0.1,2c-0.1,0.3-0.3,0.3-0.5,0.3c0,0,0,0,0,0
	c-0.4,0.2-0.9,0.1-1.4,0.1h-34.3c-0.4,0-1.1,0.4-1.4-0.4c-0.7-0.3-0.5-1-0.5-1.6c0-39.7,0-79.5,0-119.2c0-1.4,0.5-1.5,1.7-1.5
	c11.6,0,23.2,0,34.8,0C341.1,250.9,341.4,251.3,341.4,252.7z"/>
<path fill="none" d="M344.4,212.2c0,12.2-9.8,22.2-22,22.2c-12.3,0-22.1-9.8-22.1-22c0-12.3,9.8-22.1,22.1-22.1
	C334.4,190.2,344.3,200,344.4,212.2z"/>
<path fill="#007AB5" d="M522.5,253.4c-10.7-47.1-46.3-84.7-92.3-98.4c0,0,0,0,0,0c-12.1-3.6-24.9-5.5-38.2-5.5
	c-13.3,0-26.1,1.9-38.2,5.5c-41.6,12.4-74.7,44.3-88.5,85.2c-4.5,13.4-7,27.8-7,42.8s2.5,29.3,7,42.8c13.8,40.9,47,72.9,88.6,85.2
	c12.1,3.6,24.9,5.5,38.1,5.5s26-1.9,38.1-5.5c46-13.6,81.7-51.3,92.4-98.4c2.2-9.5,3.3-19.4,3.3-29.6S524.6,262.9,522.5,253.4z
	 M341.4,293.6v77.6c0,0.7,0,1.3-0.1,2c-0.1,0.3-0.3,0.3-0.5,0.3c0,0,0,0,0,0c-0.4,0.2-0.9,0.1-1.4,0.1h-34.3c-0.4,0-1.1,0.4-1.4-0.4
	c-0.7-0.3-0.5-1-0.5-1.6c0-39.7,0-79.5,0-119.2c0-1.4,0.5-1.5,1.7-1.5c11.6,0,23.2,0,34.8,0c1.4,0,1.8,0.4,1.8,1.8
	C341.4,266.3,341.4,280,341.4,293.6z M322.4,234.3c-12.3,0-22.1-9.8-22.1-22c0-12.3,9.8-22.1,22.1-22.1c12.1,0,22,9.8,22.1,22
	C344.4,224.4,334.5,234.3,322.4,234.3z M483.4,373.3c0,0,0,0.1-0.1,0.1c-0.4,0.4-0.9,0.2-1.3,0.2h-34.7c-0.4-0.1-0.9,0-1.3-0.3
	c-0.6-0.6-0.4-1.3-0.4-2.1v-61.7c0-5.1-0.3-10.2-1.8-15.2c-2.5-8.2-7.8-12.4-16.4-12.9c-2.5-0.2-5,0-7.4,0.5
	c-8.1,1.6-12.8,6.7-15.1,14.4c-1.7,5.8-1.9,11.9-1.9,17.9v57c0,0.7,0.3,1.4-0.4,2c-0.3,0.4-0.8,0.2-1.2,0.2h-34.7
	c-0.3,0-0.7,0.1-1.1-0.1h0c0,0-0.1-0.1-0.1-0.1c-0.7-0.4-0.5-1.1-0.5-1.6c0-39.7,0-79.4-0.1-119.1c0-1.2,0.2-1.6,1.6-1.6
	c11.2,0.1,22.3,0.1,33.5,0c1.2,0,1.5,0.3,1.5,1.5c0,5,0,10,0,15c0.5,0.2,0.6-0.1,0.8-0.4c7.4-12.2,18.6-18,32.5-18.9
	c8.9-0.6,17.6,0.3,25.9,4c10.4,4.6,16.3,13,19.5,23.7c2.4,8.1,3.3,16.4,3.3,24.9c0.1,23.6,0.1,47.3,0.1,71
	C483.6,372.2,483.8,372.8,483.4,373.3z"/>
<path fill="none" d="M483.4,373.3c0,0,0,0.1-0.1,0.1c-0.4,0.4-0.9,0.2-1.3,0.2h-34.7c-0.4-0.1-0.9,0-1.3-0.3
	c-0.6-0.6-0.4-1.3-0.4-2.1v-61.7c0-5.1-0.3-10.2-1.8-15.2c-2.5-8.2-7.8-12.4-16.4-12.9c-2.5-0.2-5,0-7.4,0.5
	c-8.1,1.6-12.8,6.7-15.1,14.4c-1.7,5.8-1.9,11.9-1.9,17.9v57c0,0.7,0.3,1.4-0.4,2c-0.3,0.4-0.8,0.2-1.2,0.2h-34.7
	c-0.3,0-0.7,0.1-1.1-0.1h0c0,0-0.1-0.1-0.1-0.1c-0.7-0.4-0.5-1.1-0.5-1.6c0-39.7,0-79.4-0.1-119.1c0-1.2,0.2-1.6,1.6-1.6
	c11.2,0.1,22.3,0.1,33.5,0c1.2,0,1.5,0.3,1.5,1.5c0,5,0,10,0,15c0.5,0.2,0.6-0.1,0.8-0.4c7.4-12.2,18.6-18,32.5-18.9
	c8.9-0.6,17.6,0.3,25.9,4c10.4,4.6,16.3,13,19.5,23.7c2.4,8.1,3.3,16.4,3.3,24.9c0.1,23.6,0.1,47.3,0.1,71
	C483.6,372.2,483.8,372.8,483.4,373.3z"/>
</svg>
