<?xml version="1.0" encoding="utf-8"?>
<!-- Generator: Adobe Illustrator 18.1.0, SVG Export Plug-In . SVG Version: 6.00 Build 0)  -->
<!DOCTYPE svg PUBLIC "-//W3C//DTD SVG 1.1//EN" "http://www.w3.org/Graphics/SVG/1.1/DTD/svg11.dtd">
<svg version="1.1" id="Layer_1" xmlns="http://www.w3.org/2000/svg" xmlns:xlink="http://www.w3.org/1999/xlink" x="0px" y="0px"
	 viewBox="204.8 19.6 688.2 634.5" enable-background="new 204.8 19.6 688.2 634.5" xml:space="preserve">
<g>
	<polygon fill="#FFFFFF" points="764.6,19.6 390.8,460.2 390.8,654.1 204.8,654.1 204.8,19.6 390.8,19.6 390.8,242.2 559.2,19.6 	
		"/>
	<path fill="#00AEEF" stroke="#FFFFFF" stroke-width="9" stroke-miterlimit="10" d="M735.8,227.1L696.4,342h-52.5v140.1L620.6,560
		l-6.6,22.2l-8.3,27.8l-2.5,8.4l-0.4,1.2l-1.4,3.8l-8.7,26.3h-21.4c-46.4,0-83.9-38.1-83.9-85V342H385.3V227.1L735.8,227.1
		L735.8,227.1z"/>
	<g>
		<g>
			<path fill="#FFFFFF" d="M515.5,359.6c-12.9,6.7-21.9,18.5-26,31.7c-4.3,13.4-3.5,28.8,3.1,42.4l25.7,53.4l93.7-48.5l-25.7-53.4
				C573.1,357.9,541.3,346.3,515.5,359.6z M517.3,363.3c6.4-3.3,12.9-4.1,14.1-1.6c1.3,2.6-3.1,7.4-9.6,10.7s-12.9,4.1-14.1,1.6
				C506.5,371.4,510.7,366.6,517.3,363.3z M524.3,378.2c7.5-3.9,16-1.6,19.2,4.8c3.2,6.4-0.3,14.9-7.9,18.8s-16,1.6-19.2-4.8
				C513.5,390.6,517,382.1,524.3,378.2z M522,461.9c-3.9,2-10-2.6-13.6-10.3s-3.5-15.5,0.3-17.5c3.9-2,10,2.6,13.6,10.3
				C526,451.9,525.8,459.8,522,461.9z M503.2,401.9c0.8,6.4-1.3,11.8-4.3,12c-2.9,0.2-5.9-4.6-6.7-11.1c-0.8-6.5,1.3-11.8,4.3-12
				C499.5,390.8,502.4,395.6,503.2,401.9z M559.6,451.6c-8.5,4.4-19,0.5-23.2-8.5c-4.4-9-1-20,7.5-24.4c8.5-4.4,19-0.5,23.2,8.5
				C571.4,436.2,568,447.2,559.6,451.6z M551.1,363c1.6-2.6,7.2-1.6,12.1,2c4.9,3.7,7.7,8.8,6.1,11.5c-1.6,2.6-7.2,1.6-12.1-2
				C552,370.5,549.5,365.5,551.1,363z M591.5,425.9c-3.9,2-10-2.6-13.6-10.3c-3.6-7.7-3.5-15.5,0.3-17.5s10,2.6,13.6,10.3
				C595.3,415.9,595.1,423.9,591.5,425.9z"/>
			<path fill="#FFFFFF" d="M578.7,542.5l38.9-20.1c-4.6,5.9-10.3,11.1-17.3,14.6C593.3,540.6,586.1,542.4,578.7,542.5z"/>
			<path fill="#FFFFFF" d="M625.5,508.1c-1.1,2.8-2.3,5.6-3.7,8.2l-50.2,26c-2.9-0.3-5.7-1-8.5-1.8L625.5,508.1z"/>
			<path fill="#FFFFFF" d="M629.1,489.6c0,3.1-0.3,6.1-1,9.2l-73.7,38.1c-2.6-1.3-5.2-2.9-7.5-4.8L629.1,489.6z"/>
			<path fill="#FFFFFF" d="M626.3,470.6c0.8,2.4,1.3,4.8,1.8,7.4l-89.9,46.5c-1.6-1.8-3.1-3.9-4.6-5.9L626.3,470.6z"/>
			<polygon fill="#FFFFFF" points="616.5,448.8 622.4,461.1 528.9,509.6 522.9,497.1 			"/>
		</g>
		<path fill="#FFFFFF" d="M644.2,463.3c-0.2,0.1-0.3,0.2-0.5,0.3c0.2,0.6,0.4,1.4,0.5,2c2.5,9.9,3.2,19.9,2,29.4
			c-0.1,0.5-1.6,5.9-4.2,14.1v0.1c-5.8,18.9-16.4,53-24.9,78c-3.2,9.7-6.1,17.9-8.3,23.5c-1.6,4.2-2.8,6.9-3.4,7.3
			c-0.1,0.1-0.2,0.1-0.3,0l-0.2-0.4l-9.8-20.4l-5.3-11.1l-4.4-9.2l-8.2-17.2c-16.8,0.2-33.6-5.9-46.7-17.3c-4.8-4.1-9-8.7-12.8-14.1
			c-0.8,0.3-1.3,0.5-2,0.8c-4.8,1.3-9.6-0.5-12.8-4.3c-1.5-1.6-2.4-3.5-2.9-5.9l-1.5-6l-2.8-11.2c-1.2-4.5,0-9.1,2.8-12.4
			c1.1-1.3,2.4-2.4,3.9-3.1c0.2-0.2,0.3-0.2,0.8-0.3c0.5-0.3,1.3-0.5,1.8-0.8c1.1-0.2,2.3-0.3,3.1-0.3c5.7,0.2,11.1,4.2,12.6,10.3
			l4.2,17.2c1,3.5,0.3,6.9-1.1,9.8c18,26.5,51.9,36.3,80,21.8c28.2-14.6,40.9-48.7,31.6-79.6v-0.2c-1.5-0.3-2.9-0.9-4.3-1.6
			c-1.4-0.9-2.6-1.9-3.7-3.3L617,445.3c-0.5-0.8-1.1-1.5-1.5-2.4c-2.8-5.7-1.5-12.7,3.3-16.6c0.8-0.5,1.5-1.1,2.4-1.5
			c5.4-2.8,12-1.3,15.9,3.9l5.6,7.4l1.5,1.9l3.5,4.7c4.4,5.9,3.7,14.6-1.8,19.2C645.2,462.5,644.7,463,644.2,463.3z"/>
	</g>
	<path fill="#FFFFFF" d="M893,222.5L728.2,653.4H591.8c0,0,19.4-58.2,23-68.5c9-26.9,20.5-63.5,26.7-83.8v-0.1l4.6-13.3l50.2-143.5
		l0.2-0.4l41.8-121.1H893V222.5z"/>
</g>
</svg>
