<?xml version="1.0" encoding="utf-8"?>
<!-- Generator: Adobe Illustrator 18.1.0, SVG Export Plug-In . SVG Version: 6.00 Build 0)  -->
<!DOCTYPE svg PUBLIC "-//W3C//DTD SVG 1.1//EN" "http://www.w3.org/Graphics/SVG/1.1/DTD/svg11.dtd">
<svg version="1.1" id="Layer_1" xmlns="http://www.w3.org/2000/svg" xmlns:xlink="http://www.w3.org/1999/xlink" x="0px" y="0px"
	 viewBox="0 0 319.5 331.8" enable-background="new 0 0 319.5 331.8" xml:space="preserve">
<g>
	<polygon fill="#FFFFFF" points="258.3,0 85.8,230.2 85.8,331.5 0,331.5 0,0 85.8,0 85.8,116.3 163.5,0 	"/>
	<path fill="#FFFFFF" d="M319.5,114.2l-83.3,217.5h-82l-2-5h23.5l-7.5-2.8l3.5-10.2l0.9-2.5l5.9-16.9v0l7.1-20.3
		c0.2,0.3,0.5,0.6,0.7,0.9c1.3,1.4,3.2,2.3,5.2,2.3l0.8,1.6v-23.1c0.5-1.5,1-3.1,1.3-4.7l1.1-3l0.1,0.4l25.2-72.8l15.5-44.7
		l3.6-10.4l3.3,1v-2.3h-2.9l1.7-4.9H319.5z"/>
	<polygon fill="#FFFFFF" points="245.1,119.3 245.1,121.6 241.6,120.6 237.9,131 242.1,119.3 	"/>
	<path fill="#00AEEF" stroke="#FFFFFF" stroke-width="7" stroke-miterlimit="10" d="M245.1,117.7v2.4l-3.5-1l-3.7,10.5L222,175
		h-28.5v104.8l-0.8-1.6c-2.1-0.1-4-0.9-5.4-2.3c-0.3-0.3-0.5-0.6-0.8-0.9l-7.3,20.6v0l-6.1,17.2l-0.9,2.5l-3.6,10.3l7.8,2.8H157
		c-23.4,0-42.4-19-42.4-42.4V175H63v-57.3H245.1z"/>
	<g>
		<g>
			<path fill="#FFFFFF" d="M123.7,173.6c-7,3.6-11.9,10-14.1,17.2c-2.3,7.3-1.9,15.6,1.7,23l13.9,29l50.8-26.3l-13.9-29
				C154.9,172.7,137.7,166.4,123.7,173.6z M124.7,175.6c3.5-1.8,7-2.2,7.6-0.9c0.7,1.4-1.7,4-5.2,5.8c-3.5,1.8-7,2.2-7.6,0.9
				C118.8,180,121.1,177.4,124.7,175.6z M128.5,183.7c4.1-2.1,8.7-0.9,10.4,2.6c1.7,3.5-0.2,8.1-4.3,10.2c-4.1,2.1-8.7,0.9-10.4-2.6
				C122.6,190.4,124.5,185.8,128.5,183.7z M127.2,229.1c-2.1,1.1-5.4-1.4-7.4-5.6c-2-4.2-1.9-8.4,0.2-9.5c2.1-1.1,5.4,1.4,7.4,5.6
				C129.4,223.7,129.3,228,127.2,229.1z M117,196.6c0.4,3.5-0.7,6.4-2.3,6.5c-1.6,0.1-3.2-2.5-3.6-6c-0.4-3.5,0.7-6.4,2.3-6.5
				C115,190.5,116.6,193.1,117,196.6z M147.6,223.5c-4.6,2.4-10.3,0.3-12.6-4.6c-2.4-4.9-0.5-10.8,4.1-13.2
				c4.6-2.4,10.3-0.3,12.6,4.6C154,215.2,152.2,221.1,147.6,223.5z M143,175.4c0.9-1.4,3.9-0.9,6.6,1.1c2.7,2,4.2,4.8,3.3,6.2
				c-0.9,1.4-3.9,0.9-6.6-1.1C143.5,179.5,142.1,176.8,143,175.4z M164.9,209.6c-2.1,1.1-5.4-1.4-7.4-5.6c-2-4.2-1.9-8.4,0.2-9.5
				c2.1-1.1,5.4,1.4,7.4,5.6C167,204.2,166.9,208.5,164.9,209.6z"/>
			<path fill="#FFFFFF" d="M158,272.9l21.1-10.9c-2.5,3.2-5.6,6-9.4,7.9S162,272.8,158,272.9z"/>
			<path fill="#FFFFFF" d="M183.4,254.2c-0.6,1.5-1.2,3-2,4.4l-27.2,14.1c-1.6-0.2-3.1-0.5-4.6-1L183.4,254.2z"/>
			<path fill="#FFFFFF" d="M185.3,244.1c0,1.7-0.2,3.3-0.5,5l-40,20.7c-1.4-0.7-2.8-1.6-4.1-2.6L185.3,244.1z"/>
			<path fill="#FFFFFF" d="M183.8,233.8c0.4,1.3,0.7,2.6,1,4L136,263c-0.9-1-1.7-2.1-2.5-3.2L183.8,233.8z"/>
			<polygon fill="#FFFFFF" points="178.5,222 181.7,228.7 131,255 127.7,248.2 			"/>
		</g>
		<path fill="#FFFFFF" d="M193.2,230c1.6,5.7,2.1,11.5,1.4,17.1c-0.2,1.4-0.4,2.7-0.7,4c-0.3,1.6-0.8,3.2-1.3,4.7
			c-0.5,1.7-1.2,3.3-2,4.8c-0.2,0.4-0.4,0.8-0.6,1.2c-0.9,1.8-2,3.4-3.2,5l0.9,2l4.1,8.5c-2-0.1-3.8-0.9-5.2-2.3
			c-0.3-0.3-0.5-0.6-0.7-0.9l-7,20.3v0l-5.8,16.9c-1.9-1.5-3.6-3.4-4.8-5.8l-0.1-0.1c-0.1-0.2-0.2-0.4-0.3-0.6l-0.8-1.8l-0.2-0.5
			l-0.7-1.5l-9-18.8c-9.1,0.1-18.2-3.2-25.3-9.4c-2.6-2.2-4.9-4.7-6.9-7.6c-0.4,0.2-0.7,0.3-1.1,0.4c-2.6,0.7-5.2-0.3-6.9-2.3
			c-0.8-0.9-1.3-1.9-1.6-3.2l-2.3-9.3c-0.9-3.4,0.7-6.9,3.6-8.4c0.1-0.1,0.2-0.1,0.4-0.2c0.3-0.2,0.7-0.3,1-0.4
			c0.6-0.1,1.2-0.2,1.7-0.2c3.1,0.1,6,2.3,6.8,5.6l2.3,9.3c0.5,1.9,0.2,3.7-0.6,5.3c9.8,14.4,28.2,19.7,43.4,11.8
			c15.3-7.9,22.2-26.4,17.1-43.2c0,0,0-0.1,0-0.1h0c-1.6-0.3-3.2-1.2-4.3-2.7l-5.7-7.5c-0.3-0.4-0.6-0.8-0.8-1.3
			c-1.5-3.1-0.8-6.9,1.8-9c0.4-0.3,0.8-0.6,1.3-0.8c2.9-1.5,6.5-0.7,8.6,2.1l3,4l2.7,3.6c2.4,3.2,2,7.9-1,10.4
			C193.9,229.6,193.6,229.8,193.2,230z"/>
	</g>
	<rect x="186.6" y="261.4" fill="#FFFFFF" width="15.2" height="27.1"/>
	
		<rect x="168.2" y="290" transform="matrix(-0.8987 0.4386 -0.4386 -0.8987 466.9736 499.2852)" fill="#FFFFFF" width="15.2" height="27.1"/>
</g>
</svg>
