<?xml version="1.0" encoding="utf-8"?>
<!-- Generator: Adobe Illustrator 18.1.0, SVG Export Plug-In . SVG Version: 6.00 Build 0)  -->
<!DOCTYPE svg PUBLIC "-//W3C//DTD SVG 1.1//EN" "http://www.w3.org/Graphics/SVG/1.1/DTD/svg11.dtd">
<svg version="1.1" id="Layer_1" xmlns="http://www.w3.org/2000/svg" xmlns:xlink="http://www.w3.org/1999/xlink" x="0px" y="0px"
	 viewBox="0 0 64.9 46.1" enable-background="new 0 0 64.9 46.1" xml:space="preserve">
<path fill="#00AEEF" d="M47.9,46.1c-5,0-10.1,0-15.1,0c-1.5,0-1.7-0.2-1.7-1.6c0-4.2,0-8.4,0-12.6c0-4.4,2.7-7,7.1-7
	c6.7,0,13.4,0,20,0c2.3,0,4.1,0.9,5.4,2.7c0.9,1.1,1.2,2.5,1.2,3.9c0,4.3,0,8.6,0,13c0,1.5-0.2,1.7-1.7,1.7
	C58.1,46.1,53,46.1,47.9,46.1z M56.6,26.8c-5.9,0-11.5,0-17.3,0c2.9,5,5.7,9.9,8.6,14.9C50.9,36.7,53.7,31.8,56.6,26.8z"/>
<path fill="#00AEEF" d="M14.1,46.1c-4.1,0-8.1,0-12.2,0c-1.8,0-2.1-0.3-1.7-2.1c0.6-3.1,1.8-6,3.8-8.5c5.6-7,14.9-7,20.4,0.2
	c2,2.6,3.2,5.6,3.8,8.9c0.2,1.1-0.2,1.5-1.3,1.5C22.6,46.1,18.3,46.1,14.1,46.1z M14.7,40.1c2.3,0,4.9-1,7.2-2.9
	c0.5-0.4,0.6-0.7,0.1-1.2c-4.5-5-11.5-5-15.9,0c-0.4,0.5-0.4,0.7,0.1,1.1C8.5,39.1,11.1,40.1,14.7,40.1z"/>
<path fill="#00AEEF" d="M48,23.9c-6.1,0-11-4.9-11.1-10C36.6,6.4,41.3,1.3,47.9,1.3c6.2,0,11.3,5,11.4,11
	C59.3,18.8,54.3,23.9,48,23.9z M57.2,11.5c0-0.1,0-0.3-0.1-0.4c-0.1-2-0.4-2.5-2.3-3c-1.4-0.4-2.7-1-3.8-1.9c-1-0.8-1-0.8-0.1-1.7
	c0.2-0.2,0.7-0.4,0.4-0.7c-0.2-0.2-0.6-0.4-1-0.1c-2.7,2.3-6.1,3-9.5,3.6c-0.5,0.1-0.9,0.2-1.1,0.7c-0.6,1.4-1.1,2.8-1.1,4.3
	c-0.1,5.9,5.4,10.5,11.1,9.3c3.3-0.7,5.7-2.6,6.9-6C57.2,14.3,57.2,12.9,57.2,11.5z"/>
<path fill="#00AEEF" d="M25.4,17.9c-0.2,6.4-5,11.2-11.4,11.2c-6.4,0-11.3-5.2-11.2-11.3C2.9,11.5,8,6.4,14.3,6.5
	C20.8,6.7,25.3,11.8,25.4,17.9z M14.1,27.1c6.4,0,11-6.3,8.8-12.6c-0.2-0.6-0.5-0.9-1.2-1.1c-1.5-0.4-2.9-1-4.1-2
	c-0.6-0.5-1-1-0.2-1.6c0.2-0.1,0.6-0.3,0.3-0.6c-0.3-0.3-0.6-0.4-1,0c-1.7,1.5-3.8,2.2-6,2.8c-1.3,0.3-2.6,0.6-3.9,0.8
	c-0.6,0.1-0.9,0.3-1.1,0.8C2.8,19.9,7.1,27,14.1,27.1z"/>
<path fill="#00AEEF" d="M21.6,3.7c0,2-1.7,3.1-3.3,2.5c-2.7-0.9-5.5-0.9-8.2,0c-1.4,0.5-2.1,0.2-2.9-1c-0.6-1-0.5-2.1,0.4-3
	C8.1,1.5,9,1,9.9,0.7c2.9-0.9,5.8-1,8.7,0.1c0.8,0.3,1.5,0.7,2.1,1.3C21.2,2.6,21.5,3.2,21.6,3.7z"/>
<path fill="#00AEEF" d="M51.8,30.3c0,0.5,0,0.9,0,1.4c0,1-0.4,1.2-1.2,0.6c-1.8-1.5-3.5-1.5-5.4,0c-0.8,0.6-1.2,0.3-1.2-0.7
	c0-1,0-1.9,0-2.9c0-0.8,0.4-1.2,1-0.7c1.9,1.6,3.7,1.6,5.7,0c0.7-0.6,1-0.2,1,0.6C51.8,29.3,51.8,29.8,51.8,30.3
	C51.8,30.3,51.8,30.3,51.8,30.3z"/>
<path fill="#00AEEF" d="M49.5,10.2c-0.4-0.7-0.5-1.4,0.3-2c0.5-0.4,1.1-0.3,1.5,0.2c0.6,0.6,0.5,1.2,0.1,1.8
	C50.8,10.8,50.1,10.7,49.5,10.2z"/>
<path fill="#00AEEF" d="M45.8,10.7c-0.8,0-1.3-0.3-1.5-1.1c-0.1-0.6,0.1-1.1,0.6-1.4C45.4,8,46,8,46.4,8.4c0.4,0.4,0.5,0.9,0.2,1.5
	c-0.1,0.2-0.3,0.4-0.5,0.6C46.1,10.6,45.9,10.6,45.8,10.7z"/>
<path fill="#00AEEF" d="M11.5,22.4c0-1.1,0.1-1.8,0.4-2.5c0.5-0.9,1.1-1.6,2.2-1.6c1.1,0,1.9,0.7,2.2,1.7c0.4,1.2,0.7,2.3,0.3,3.6
	c-0.4,1.5-1.4,2.4-2.5,2.4c-1.1,0-2-0.8-2.5-2.3C11.5,23.2,11.5,22.7,11.5,22.4z M12.8,22.1c0,0.7,0.1,1.3,0.5,1.9
	c0.5,0.8,1.1,0.8,1.7,0.1c0.7-1,0.7-3,0-4c-0.5-0.8-1.2-0.8-1.7,0C12.9,20.7,12.8,21.4,12.8,22.1z"/>
<path fill="#00AEEF" d="M45.5,17.1c0-1.1,0.1-1.8,0.4-2.5c0.5-0.9,1.1-1.6,2.2-1.6c1.1,0,1.9,0.7,2.2,1.7c0.4,1.2,0.7,2.3,0.3,3.6
	c-0.4,1.5-1.4,2.4-2.5,2.4c-1.1,0-2-0.8-2.5-2.3C45.5,17.8,45.5,17.3,45.5,17.1z M46.8,16.8c0,0.7,0.1,1.3,0.5,1.9
	c0.5,0.8,1.1,0.8,1.7,0.1c0.7-1,0.7-3,0-4c-0.5-0.8-1.2-0.8-1.7,0C46.9,15.4,46.7,16.1,46.8,16.8z"/>
<path fill="#00AEEF" d="M11.2,15.9c-0.6-0.1-1.3-0.1-1.9-0.5c-0.3-0.2-0.5-0.5-0.3-0.9c0.2-0.4,0.5-0.5,0.9-0.3c1,0.5,2,0.4,2.9-0.2
	c0.3-0.2,0.7-0.2,0.9,0.1c0.2,0.4,0.1,0.7-0.3,1C12.9,15.7,12.1,15.9,11.2,15.9z"/>
<path fill="#00AEEF" d="M17.5,15.9c-0.8,0.1-1.6-0.2-2.3-0.7c-0.3-0.2-0.6-0.5-0.3-1c0.3-0.4,0.7-0.4,1-0.1c0.9,0.6,1.9,0.7,2.8,0.2
	c0.4-0.2,0.7-0.1,0.9,0.3c0.2,0.4,0,0.7-0.3,0.9C18.8,15.8,18.2,15.9,17.5,15.9z"/>
</svg>
