<?xml version="1.0" encoding="utf-8"?>
<!-- Generator: Adobe Illustrator 18.1.0, SVG Export Plug-In . SVG Version: 6.00 Build 0)  -->
<!DOCTYPE svg PUBLIC "-//W3C//DTD SVG 1.1//EN" "http://www.w3.org/Graphics/SVG/1.1/DTD/svg11.dtd">
<svg version="1.1" id="Layer_1" xmlns="http://www.w3.org/2000/svg" xmlns:xlink="http://www.w3.org/1999/xlink" x="0px" y="0px"
	 viewBox="0 0 792 612" enable-background="new 0 0 792 612" xml:space="preserve">
<path fill="#FFFFFF" d="M584.5,587.3c-61,0-123.3,0-184.3,0c-18.3,0-20.7-2.4-20.7-19.5c0-51.3,0-102.5,0-153.8
	c0-53.7,32.9-85.4,86.6-85.4c81.8,0,163.5,0,244.1,0c28.1,0,50,11,65.9,32.9c11,13.4,14.6,30.5,14.6,47.6c0,52.5,0,104.9,0,158.6
	c0,18.3-2.4,20.7-20.7,20.7C709,587.3,646.8,587.3,584.5,587.3z M690.7,351.8c-72,0-140.3,0-211.1,0c35.4,61,69.6,120.8,104.9,181.8
	C621.2,472.6,655.3,412.8,690.7,351.8z"/>
<path fill="#FFFFFF" d="M172.1,587.3c-50,0-98.8,0-148.9,0c-22,0-25.6-3.7-20.7-25.6c7.3-37.8,22-73.2,46.4-103.7
	c68.3-85.4,181.8-85.4,248.9,2.4c24.4,31.7,39.1,68.3,46.4,108.6c2.4,13.4-2.4,18.3-15.9,18.3C275.8,587.3,223.3,587.3,172.1,587.3z
	 M179.4,514.1c28.1,0,59.8-12.2,87.9-35.4c6.1-4.9,7.3-8.5,1.2-14.6c-54.9-61-140.3-61-194,0c-4.9,6.1-4.9,8.5,1.2,13.4
	C103.7,501.9,135.5,514.1,179.4,514.1z"/>
<path fill="#FFFFFF" d="M585.8,316.4c-74.4,0-134.2-59.8-135.5-122C446.6,102.8,504,40.6,584.5,40.6c75.7,0,137.9,61,139.1,134.2
	C723.7,254.1,662.6,316.4,585.8,316.4z M698,165.1c0-1.2,0-3.7-1.2-4.9c-1.2-24.4-4.9-30.5-28.1-36.6c-17.1-4.9-32.9-12.2-46.4-23.2
	c-12.2-9.8-12.2-9.8-1.2-20.7c2.4-2.4,8.5-4.9,4.9-8.5c-2.4-2.4-7.3-4.9-12.2-1.2c-32.9,28.1-74.4,36.6-115.9,43.9
	c-6.1,1.2-11,2.4-13.4,8.5c-7.3,17.1-13.4,34.2-13.4,52.5c-1.2,72,65.9,128.1,135.5,113.5c40.3-8.5,69.6-31.7,84.2-73.2
	C698,199.2,698,182.1,698,165.1z"/>
<path fill="#FFFFFF" d="M310,243.2c-2.4,78.1-61,136.7-139.1,136.7S32.9,316.4,34.2,241.9c1.2-76.9,63.5-139.1,140.3-137.9
	C253.8,106.5,308.7,168.7,310,243.2z M172.1,355.4c78.1,0,134.2-76.9,107.4-153.8c-2.4-7.3-6.1-11-14.6-13.4
	c-18.3-4.9-35.4-12.2-50-24.4c-7.3-6.1-12.2-12.2-2.4-19.5c2.4-1.2,7.3-3.7,3.7-7.3c-3.7-3.7-7.3-4.9-12.2,0
	c-20.7,18.3-46.4,26.8-73.2,34.2c-15.9,3.7-31.7,7.3-47.6,9.8c-7.3,1.2-11,3.7-13.4,9.8C34.2,267.6,86.6,354.2,172.1,355.4z"/>
<path fill="#FFFFFF" d="M263.6,69.9c0,24.4-20.7,37.8-40.3,30.5c-32.9-11-67.1-11-100.1,0c-17.1,6.1-25.6,2.4-35.4-12.2
	c-7.3-12.2-6.1-25.6,4.9-36.6c6.1-8.5,17.1-14.6,28.1-18.3c35.4-11,70.8-12.2,106.2,1.2c9.8,3.7,18.3,8.5,25.6,15.9
	C258.7,56.4,262.4,63.8,263.6,69.9z"/>
<path fill="#FFFFFF" d="M632.1,394.5c0,6.1,0,11,0,17.1c0,12.2-4.9,14.6-14.6,7.3c-22-18.3-42.7-18.3-65.9,0
	c-9.8,7.3-14.6,3.7-14.6-8.5s0-23.2,0-35.4c0-9.8,4.9-14.6,12.2-8.5c23.2,19.5,45.2,19.5,69.6,0c8.5-7.3,12.2-2.4,12.2,7.3
	C632.1,382.3,632.1,388.4,632.1,394.5L632.1,394.5z"/>
<path fill="#FFFFFF" d="M604.1,149.2c-4.9-8.5-6.1-17.1,3.7-24.4c6.1-4.9,13.4-3.7,18.3,2.4c7.3,7.3,6.1,14.6,1.2,22
	C619.9,156.5,611.4,155.3,604.1,149.2z"/>
<path fill="#FFFFFF" d="M558.9,155.3c-9.8,0-15.9-3.7-18.3-13.4c-1.2-7.3,1.2-13.4,7.3-17.1c6.1-2.4,13.4-2.4,18.3,2.4
	c4.9,4.9,6.1,11,2.4,18.3c-1.2,2.4-3.7,4.9-6.1,7.3C562.6,154.1,560.1,154.1,558.9,155.3z"/>
<path fill="#FFFFFF" d="M140.3,298.1c0-13.4,1.2-22,4.9-30.5c6.1-11,13.4-19.5,26.8-19.5c13.4,0,23.2,8.5,26.8,20.7
	c4.9,14.6,8.5,28.1,3.7,43.9c-4.9,18.3-17.1,29.3-30.5,29.3c-13.4,0-24.4-9.8-30.5-28.1C140.3,307.8,140.3,301.7,140.3,298.1z
	 M156.2,294.4c0,8.5,1.2,15.9,6.1,23.2c6.1,9.8,13.4,9.8,20.7,1.2c8.5-12.2,8.5-36.6,0-48.8c-6.1-9.8-14.6-9.8-20.7,0
	C157.4,277.3,156.2,285.9,156.2,294.4z"/>
<path fill="#FFFFFF" d="M555.3,233.4c0-13.4,1.2-22,4.9-30.5c6.1-11,13.4-19.5,26.8-19.5c13.4,0,23.2,8.5,26.8,20.7
	c4.9,14.6,8.5,28.1,3.7,43.9c-4.9,18.3-17.1,29.3-30.5,29.3s-24.4-9.8-30.5-28.1C555.3,241.9,555.3,235.8,555.3,233.4z M571.1,229.7
	c0,8.5,1.2,15.9,6.1,23.2c6.1,9.8,13.4,9.8,20.7,1.2c8.5-12.2,8.5-36.6,0-48.8c-6.1-9.8-14.6-9.8-20.7,0
	C572.3,212.6,569.9,221.2,571.1,229.7z"/>
<path fill="#FFFFFF" d="M136.7,218.7c-7.3-1.2-15.9-1.2-23.2-6.1c-3.7-2.4-6.1-6.1-3.7-11c2.4-4.9,6.1-6.1,11-3.7
	c12.2,6.1,24.4,4.9,35.4-2.4c3.7-2.4,8.5-2.4,11,1.2c2.4,4.9,1.2,8.5-3.7,12.2C157.4,216.3,147.7,218.7,136.7,218.7z"/>
<path fill="#FFFFFF" d="M213.6,218.7c-9.8,1.2-19.5-2.4-28.1-8.5c-3.7-2.4-7.3-6.1-3.7-12.2c3.7-4.9,8.5-4.9,12.2-1.2
	c11,7.3,23.2,8.5,34.2,2.4c4.9-2.4,8.5-1.2,11,3.7c2.4,4.9,0,8.5-3.7,11C229.4,217.5,222.1,218.7,213.6,218.7z"/>
</svg>
