<?xml version="1.0" encoding="utf-8"?>
<!-- Generator: Adobe Illustrator 18.1.0, SVG Export Plug-In . SVG Version: 6.00 Build 0)  -->
<!DOCTYPE svg PUBLIC "-//W3C//DTD SVG 1.1//EN" "http://www.w3.org/Graphics/SVG/1.1/DTD/svg11.dtd">
<svg version="1.1" id="Layer_1" xmlns="http://www.w3.org/2000/svg" xmlns:xlink="http://www.w3.org/1999/xlink" x="0px" y="0px"
	 viewBox="0 0 231.8 230.5" enable-background="new 0 0 231.8 230.5" xml:space="preserve">
<g>
	<path fill="#00AEEF" d="M215.6,16.6C204.7,5.6,190.2,0.1,175.8,0c-14.4-0.1-28.9,5.3-39.9,16.3L93,58.7l79.3,80.1l42.9-42.5
		C237.2,74.5,237.4,38.6,215.6,16.6z M212.6,19.5c5.5,5.6,8.4,11.8,6.4,13.8c-2,2-8.2-0.9-13.7-6.5c-5.5-5.6-8.4-11.8-6.4-13.8
		C200.9,11,207.1,13.9,212.6,19.5z M200.6,31.4c6.3,6.4,7.3,15.8,2,20.9c-5.2,5.2-14.6,4.1-20.9-2.2c-6.3-6.4-7.3-15.8-2.1-20.9
		C184.9,24,194.3,25,200.6,31.4z M118.9,54.7c-3.3-3.3-1-10.9,5.2-17c6.1-6.1,13.8-8.3,17.1-5c3.3,3.3,1,10.9-5.2,17
		C129.8,55.8,122.2,58,118.9,54.7z M170.3,17c-5.9,2.6-11.8,2.4-13.1-0.6c-1.3-2.9,2.5-7.4,8.4-10.1S177.4,4,178.7,7
		C180,9.9,176.2,14.4,170.3,17z M141.9,89.6c-7.2-7.3-7.2-19,0.1-26.2s19-7.1,26.2,0.1c7.2,7.3,7.2,19-0.1,26.2
		S149.1,96.9,141.9,89.6z M224.7,53.7c3.1,0.9,4.1,6.7,2.2,12.9c-1.8,6.2-5.8,10.5-8.9,9.6c-3.1-0.9-4.1-6.7-2.2-12.9
		C217.7,57.1,221.7,52.8,224.7,53.7z M177.8,114.1c-3.3-3.3-1-10.9,5.2-17c6.1-6.1,13.8-8.3,17.1-5c3.3,3.3,1,10.9-5.2,17
		C188.7,115.1,181.1,117.4,177.8,114.1z"/>
	<path fill="#00AEEF" d="M60.5,137.3l33,33.3c-7.4-2.8-14.3-7.1-20.1-13C67.4,151.7,63.1,144.7,60.5,137.3z"/>
	<path fill="#00AEEF" d="M110,174.1c-3.1-0.2-6.2-0.6-9.2-1.3L58.3,130c-0.7-3-1.1-6.1-1.2-9.2L110,174.1z"/>
	<path fill="#00AEEF" d="M129.2,171.9c-3,0.9-6.1,1.5-9.2,1.9l-62.6-63.1c0.4-3.1,1-6.2,1.9-9.2L129.2,171.9z"/>
	<path fill="#00AEEF" d="M146.7,163.3c-2.1,1.5-4.2,2.9-6.5,4.1L64.1,90.5c1.2-2.2,2.6-4.4,4.2-6.4L146.7,163.3z"/>
	
		<rect x="112.7" y="55.2" transform="matrix(0.7104 -0.7038 0.7038 0.7104 -43.8365 116.591)" fill="#00AEEF" width="14.1" height="112.7"/>
</g>
<path fill="#00AEEF" d="M161.5,180.4c-0.7-0.5-1.4-1-2-1.6c-20.7,14.3-46.9,17.4-69.9,9.1l-33.4,33.1c-12.9,12.8-33.8,12.7-46.7-0.2
	c-12.8-12.9-12.7-33.8,0.2-46.7l33.3-33c-8.2-23.1-4.9-49.4,9.7-70c-0.5-0.6-1-1.2-1.4-1.9c-4.1-6.4-2.2-15,4.2-19.1l15-9.6
	c5.6-3.5,12.8-2.6,17.2,1.9c0.7,0.7,1.3,1.4,1.8,2.3c4.1,6.4,2.2,15-4.2,19.1l-15,9.6c-3,1.9-6.5,2.5-9.8,1.9
	c-19.4,26.5-17.2,64,6.7,88c23.9,24.1,61.4,26.6,88.1,7.4c-0.5-3.2,0.2-6.6,2.1-9.5l9.8-14.9c0.5-0.8,1.2-1.6,1.8-2.2
	c4.5-4.5,11.8-5.4,17.3-1.8c6.4,4.2,8.2,12.8,4,19.1l-9.8,14.9C176.4,182.7,167.8,184.5,161.5,180.4z"/>
</svg>
