<?xml version="1.0" encoding="utf-8"?>
<!-- Generator: Adobe Illustrator 18.1.0, SVG Export Plug-In . SVG Version: 6.00 Build 0)  -->
<!DOCTYPE svg PUBLIC "-//W3C//DTD SVG 1.1//EN" "http://www.w3.org/Graphics/SVG/1.1/DTD/svg11.dtd">
<svg version="1.1" id="Layer_1" xmlns="http://www.w3.org/2000/svg" xmlns:xlink="http://www.w3.org/1999/xlink" x="0px" y="0px"
	 viewBox="93.2 1.6 611.1 611" enable-background="new 93.2 1.6 611.1 611" xml:space="preserve">
<g>
	<path fill="#00AEEF" d="M661.2,47.6c-28.6-29-66.7-43.5-104.5-43.8s-75.9,14-104.8,43L339.3,158.7L547.5,370l112.6-112.1
		C717.9,200.4,718.4,105.6,661.2,47.6z M653.3,55.2c14.4,14.8,22.1,31.1,16.8,36.4c-5.3,5.3-21.5-2.4-36-17.2s-22.1-31.1-16.8-36.4
		S638.9,40.5,653.3,55.2z M621.8,86.6c16.5,16.9,19.2,41.7,5.3,55.1c-13.7,13.7-38.3,10.8-54.9-5.8c-16.5-16.9-19.2-41.7-5.5-55.1
		C580.6,67.1,605.3,69.8,621.8,86.6z M407.3,148.1c-8.7-8.7-2.6-28.8,13.7-44.9c16-16.1,36.2-21.9,44.9-13.2s2.6,28.8-13.7,44.9
		C435.9,151,416,156.8,407.3,148.1z M542.2,48.6c-15.5,6.9-31,6.3-34.4-1.6c-3.4-7.7,6.6-19.5,22.1-26.7s31-6.1,34.4,1.8
		C567.7,29.9,557.7,41.8,542.2,48.6z M467.7,240.2c-18.9-19.3-18.9-50.1,0.3-69.1s49.9-18.7,68.8,0.3c18.9,19.3,18.9,50.1-0.3,69.1
		S486.6,259.5,467.7,240.2z M685.1,145.5c8.1,2.4,10.8,17.7,5.8,34c-4.7,16.4-15.2,27.7-23.4,25.3s-10.8-17.7-5.8-34
		S677.2,143.1,685.1,145.5z M561.9,304.9c-8.7-8.7-2.6-28.8,13.7-44.9c16-16.1,36.2-21.9,44.9-13.2s2.6,28.8-13.7,44.9
		C590.6,307.5,570.6,313.6,561.9,304.9z"/>
	<path fill="#00AEEF" d="M254,366.1l86.6,87.9c-19.4-7.4-37.5-18.7-52.8-34.3C272.1,404.1,260.8,385.6,254,366.1z"/>
	<path fill="#00AEEF" d="M383.9,463.2c-8.1-0.5-16.3-1.6-24.2-3.4L248.2,346.8c-1.8-7.9-2.9-16.1-3.2-24.3L383.9,463.2z"/>
	<path fill="#00AEEF" d="M434.3,457.4c-7.9,2.4-16,4-24.2,5L245.8,295.9c1.1-8.2,2.6-16.4,5-24.3L434.3,457.4z"/>
	<path fill="#00AEEF" d="M480.3,434.7c-5.5,4-11,7.7-17.1,10.8L263.4,242.6c3.2-5.8,6.8-11.6,11-16.9L480.3,434.7z"/>
	<polygon fill="#00AEEF" points="292.2,205.6 318.5,179.4 526.8,390.7 500.5,416.9 	"/>
</g>
<path fill="#00AEEF" d="M519.1,479.8c-1.8-1.3-3.7-2.6-5.3-4.2c-54.4,37.7-123.1,45.9-183.5,24l-87.7,87.3
	c-33.9,33.8-88.7,33.5-122.6-0.5c-33.6-34-33.3-89.2,0.5-123.2l87.4-87.1c-21.5-61-12.9-130.3,25.5-184.7c-1.3-1.6-2.6-3.2-3.7-5
	c-10.8-16.9-5.8-39.6,11-50.4l39.4-25.3c14.7-9.2,33.6-6.9,45.2,5c1.8,1.8,3.4,3.7,4.7,6.1c10.8,16.9,5.8,39.6-11,50.4l-39.4,25.3
	c-7.9,5-17.1,6.6-25.7,5c-50.9,69.9-45.2,168.9,17.6,232.2c62.8,63.6,161.2,70.2,231.3,19.5c-1.3-8.4,0.5-17.4,5.5-25.1l25.7-39.3
	c1.3-2.1,3.2-4.2,4.7-5.8c11.8-11.9,31-14.2,45.4-4.7c16.8,11.1,21.5,33.8,10.5,50.4L569,469C558.3,485.9,535.7,490.6,519.1,479.8z"
	/>
</svg>
