<?xml version="1.0" encoding="utf-8"?>
<!-- Generator: Adobe Illustrator 18.1.0, SVG Export Plug-In . SVG Version: 6.00 Build 0)  -->
<!DOCTYPE svg PUBLIC "-//W3C//DTD SVG 1.1//EN" "http://www.w3.org/Graphics/SVG/1.1/DTD/svg11.dtd">
<svg version="1.1" id="Layer_1" xmlns="http://www.w3.org/2000/svg" xmlns:xlink="http://www.w3.org/1999/xlink" x="0px" y="0px"
	 viewBox="0 0 205.2 226.3" enable-background="new 0 0 205.2 226.3" xml:space="preserve">
<path fill="#FFFFFF" stroke="#00AEEF" stroke-width="8" stroke-miterlimit="10" d="M158.7,105c0,31-25.1,56.1-56.1,56.1
	S46.5,136.1,46.5,105c0-31,25.1-56.1,56.1-56.1S158.7,74.1,158.7,105z"/>
<path fill="#00AEEF" stroke="#FFFFFF" stroke-width="2" stroke-miterlimit="10" d="M150.4,130c0,2.9-1.7,5.5-4.4,6.7l-0.1,0.1
	c-4.2,1.8-9,0.6-12-2.7c0.1-3.6,0.1-7-0.3-9.6H71.8c-0.4,2.3-0.5,4.8-0.5,7.4c0,0.8,0,1.6,0.1,2.4c-2.9,3.3-7.6,4.5-11.7,2.7
	l-0.4-0.2c-2.7-1.2-4.4-3.8-4.4-6.7c0-8.2,1.3-16,3.5-23c3.6-11,9.6-19.9,17.1-25c2.5-1.7,5.8-1.1,7.6,1.3
	c5.3,6.8,12.1,10.9,19.6,10.9c7.4,0,14.1-4,19.4-10.7c2-2.6,5.8-3.1,8.4-1.2c7.1,5.1,13,13.8,16.4,24.6
	C149.1,114,150.4,121.8,150.4,130z"/>
<path fill="#00AEEF" stroke="#FFFFFF" stroke-width="2" stroke-miterlimit="10" d="M125.5,67.6c0,5.9-2.2,11.2-5.8,15.3
	c-4.2,4.7-10.2,7.6-17,7.6c-6.8,0-12.9-2.9-17-7.6c-3.7-4.1-5.9-9.5-5.9-15.4c0-12.7,10.3-23,22.9-23
	C115.2,44.6,125.5,54.9,125.5,67.6z"/>
<path fill="#00AEEF" stroke="#FFFFFF" stroke-width="2" stroke-miterlimit="10" d="M133.9,129.9c0,2.6-0.1,5.2-0.2,7.6l-31,73.7
	c0,0-29.3-66.2-31-73.7c-0.1-2.6-0.2-5.1-0.3-7.5c-0.1-1-0.1-2-0.1-2.9c0-3.2,0.1-6.2,0.5-9h61.7C134,121.2,134,125.5,133.9,129.9z"
	/>
<rect x="66.1" y="109.5" fill="#00AEEF" width="73" height="12.5"/>
<path fill="#00AEEF" d="M102.6,0C46,0,0,45.9,0,102.6c0,47.7,32.6,87.9,76.8,99.3c14.9,12.8,25.9,24.4,25.9,24.4
	s11.3-11.7,26.1-24.4c44-11.6,76.4-51.6,76.4-99.2C205.2,45.9,159.3,0,102.6,0z M151.8,152c-5.2,5.2-11.2,9.5-17.8,12.8
	c-9.2,4.6-19.6,7.2-30.6,7.2H103c-11.3-0.1-22-2.8-31.3-7.7c-6.4-3.3-12.2-7.6-17.2-12.7c-12.3-12.4-19.8-29.4-19.8-48.2
	c0-36.8,28.9-66.8,65.2-68.6c0.9-0.1,1.8-0.1,2.8-0.1c1.2,0,2.3,0,3.5,0.1c36.6,1.4,65.9,31.6,65.9,68.6
	C172,122.3,164.3,139.6,151.8,152z"/>
</svg>
