<?xml version="1.0" encoding="utf-8"?>
<!-- Generator: Adobe Illustrator 18.1.0, SVG Export Plug-In . SVG Version: 6.00 Build 0)  -->
<!DOCTYPE svg PUBLIC "-//W3C//DTD SVG 1.1//EN" "http://www.w3.org/Graphics/SVG/1.1/DTD/svg11.dtd">
<svg version="1.1" id="Layer_1" xmlns="http://www.w3.org/2000/svg" xmlns:xlink="http://www.w3.org/1999/xlink" x="0px" y="0px"
	 viewBox="568.4 19.5 572.7 611.9" enable-background="new 568.4 19.5 572.7 611.9" xml:space="preserve">
<path opacity="0.78" fill="#00AEEF" enable-background="new    " d="M1141.1,205.3c0,4.9-3.1,9.6-7.6,11.4h-0.3
	c-7.3,3.1-15.2,1-20.4-4.6c0.3-6,0.3-11.9-0.5-16.6h-4.9c0,1.6,0,3.3,0,4.9c0,3.3-0.3,6.5-0.3,9.6l-47.5,91.9c0,0-44.5-82-47.2-91.5
	c-0.3-3.3-0.3-6.3-0.3-9.3c0-1.3,0-2.4,0-3.8c0-0.5,0-0.8,0-1.3h-4.9c-0.8,4.1-1,8.1-1,12.4c0,1.3,0,2.7,0,4.1
	c-4.9,5.7-12.8,7.8-19.7,4.6l-0.8-0.3c-4.6-1.9-7.6-6.5-7.6-11.4c0-14.1,2.2-27.2,6-39.1c6-18.7,16.4-33.9,29-42.6
	c4.3-3.1,9.8-1.9,13,2.2c9.1,11.7,20.7,18.7,33.4,18.7c12.4,0,24.2-6.8,32.9-18.2c3.3-4.3,9.8-5.1,14.3-1.9
	c12.2,8.7,22,23.7,28,41.8C1138.9,178,1141.1,191.4,1141.1,205.3z"/>
<path opacity="0.78" fill="#00AEEF" enable-background="new    " d="M1098.5,99.1c0,10.1-3.8,19.2-10.1,26.1c-7,7.8-17.4,13-29,13
	c-11.4,0-22-4.9-29-13c-6.3-7-10.1-16-10.1-26.1c0-21.7,17.4-39.1,39.1-39.1C1081.1,59.9,1098.5,77.3,1098.5,99.1z"/>
<path opacity="0.78" fill="#00AEEF" enable-background="new    " d="M961.4,375c0,5-3.2,9.4-7.7,11.4h-0.3
	c-7.2,3.2-15.3,0.9-20.7-4.5c0.3-6.2,0.3-12-0.7-16.6h-4.9v4.8c0,3.2-0.3,6.5-0.3,9.4l-47.4,91.8c0,0-0.7-1.3-1.9-3.5l0,0
	c0.1-0.9,0.2-1.8,0.2-2.7c0-23.4-3.6-45.9-10.4-65.7c-10.1-30.8-26.5-55.8-47.2-70.6c-3.8-2.9-8.4-3.9-12.8-3.2
	c6.2-14.4,15.1-25.8,25.5-32.9c4.3-2.9,10.1-2,13,2.1c9.1,11.7,20.7,18.7,33.6,18.7c12.6,0,24.3-6.9,33.1-18.3
	c3.4-4.3,9.8-5.2,14.4-2c12.1,8.9,22.1,23.8,28,42C959.2,347.5,961.4,360.8,961.4,375z"/>
<path opacity="0.78" fill="#00AEEF" enable-background="new    " d="M918.7,268.2c0,10.1-3.8,19.1-10.1,26.1c-7.2,8-17.5,13-29.1,13
	c-11.4,0-22.1-5-29.1-13c-6.2-6.9-10.1-16.3-10.1-26.3c0-21.8,17.5-39.4,39.2-39.4C901.2,228.7,918.7,246.3,918.7,268.2z"/>
<path opacity="0.62" fill="#00AEEF" enable-background="new    " d="M678.6,117.9c0,3.3-1.9,6.3-5.1,7.6h-0.3
	c-4.9,2.2-10.4,0.8-13.8-3.3c0.3-4.1,0-8.1-0.3-11.1h-3.6c0,1,0,2.2,0,3.3c0,2.2,0,4.3-0.3,6.3l-31.7,62.4c0,0-30.1-55.4-31.7-61.9
	c-0.3-2.2-0.3-4.3-0.3-6.3c0-0.8,0-1.6,0-2.4c0-0.3,0-0.5,0-0.8h-3.6c-0.5,2.4-0.5,5.5-0.5,8.3c0,0.8,0,1.9,0,2.7
	c-3.3,3.8-8.7,5.1-13.6,3.3l-0.5-0.3c-3.1-1.3-4.9-4.6-4.9-7.8c0-9.6,1.3-18.4,4.1-26.4c4.1-12.8,11.1-23,19.5-28.8
	c3.1-1.9,6.8-1.3,8.7,1.6c6,7.8,13.8,12.4,22.5,12.4c8.3,0,16.4-4.6,22.3-12.2c2.2-3.1,6.5-3.6,9.8-1.3c8.1,6,15,16,19,28.3
	C677,99.4,678.6,108.4,678.6,117.9z"/>
<path opacity="0.62" fill="#00AEEF" enable-background="new    " d="M649.8,45.9c0,6.8-2.4,13-6.8,17.7c-4.9,5.5-11.7,8.7-19.5,8.7
	c-7.8,0-15-3.3-19.5-8.7c-4.3-4.6-6.8-10.9-6.8-17.7c0-14.7,11.9-26.4,26.4-26.4C638.1,19.6,649.8,31.5,649.8,45.9z"/>
<path fill="#00AEEF" d="M872.6,469.1c0,0.9-0.1,1.8-0.2,2.7l0,0c-1,7.2-5.8,13.7-12.6,16.5l-0.3,0.3c-12.2,5.1-25.7,1.7-34.5-7.8
	c0.3-10.4,0.3-20.4-1-27.8h-8.3c0,2.7,0,5.5-0.3,8.1c0,5.5-0.3,10.9-0.5,16l-79.6,154.3c0,0-75.2-138.5-79.6-154.3
	c-0.3-5.5-0.5-10.6-0.8-15.7c-0.3-2.2-0.3-4.1-0.3-6.3V453h-8.1c-1,6.8-1.6,13.8-1.6,21.2c0,2.2,0,4.6,0.3,6.8
	c-8.3,9.6-21.7,13-33.7,7.8l-1-0.5c-7.6-3.3-12.8-10.9-12.8-19.2c0-23.7,3.6-45.9,10.1-65.9c10.4-31.7,27.8-57.3,49.2-71.7
	c7-4.9,16.9-3.1,22,3.8c15.2,19.5,34.8,31.5,56.3,31.5c21.2,0,40.4-11.7,55.7-30.7c2.8-3.6,7-5.9,11.3-6.5c4.4-0.6,9,0.4,12.8,3.2
	c20.7,14.7,37.1,39.7,47.2,70.6C868.9,423.2,872.6,445.7,872.6,469.1z"/>
<path fill="#00AEEF" d="M801,290c0,16.9-6.3,32.4-16.9,44c-11.9,13.6-29.3,22-48.9,22c-19.5,0-36.9-8.3-48.9-21.7
	c-10.6-11.7-16.9-27.2-16.9-44c0-36.3,29.6-65.9,65.7-65.9C771.5,224,801,253.6,801,290z"/>
</svg>
