<?xml version="1.0" encoding="utf-8"?>
<!-- Generator: Adobe Illustrator 18.1.0, SVG Export Plug-In . SVG Version: 6.00 Build 0)  -->
<!DOCTYPE svg PUBLIC "-//W3C//DTD SVG 1.1//EN" "http://www.w3.org/Graphics/SVG/1.1/DTD/svg11.dtd">
<svg version="1.1" id="Layer_1" xmlns="http://www.w3.org/2000/svg" xmlns:xlink="http://www.w3.org/1999/xlink" x="0px" y="0px"
	 viewBox="349.1 19.5 556.9 595" enable-background="new 349.1 19.5 556.9 595" xml:space="preserve">
<path opacity="0.78" fill="#00AEEF" enable-background="new    " d="M906,200.1c0,4.8-3,9.3-7.4,11.1h-0.3c-7.1,3-14.8,1-19.8-4.5
	c0.3-5.8,0.3-11.6-0.5-16.1h-4.8c0,1.6,0,3.2,0,4.8c0,3.2-0.3,6.3-0.3,9.3L826.7,294c0,0-43.3-79.7-45.9-89c-0.3-3.2-0.3-6.1-0.3-9
	c0-1.3,0-2.3,0-3.7c0-0.5,0-0.8,0-1.3h-4.8c-0.8,4-1,7.9-1,12.1c0,1.3,0,2.6,0,4c-4.8,5.5-12.4,7.6-19.2,4.5l-0.8-0.3
	c-4.5-1.8-7.4-6.3-7.4-11.1c0-13.7,2.1-26.4,5.8-38c5.8-18.2,15.9-33,28.2-41.4c4.2-3,9.5-1.8,12.6,2.1
	c8.8,11.4,20.1,18.2,32.5,18.2c12.1,0,23.5-6.6,32-17.7c3.2-4.2,9.5-5,13.9-1.8c11.9,8.5,21.4,23,27.2,40.6
	C903.9,173.6,906,186.6,906,200.1z"/>
<path opacity="0.78" fill="#00AEEF" enable-background="new    " d="M864.6,96.9c0,9.8-3.7,18.7-9.8,25.4
	c-6.8,7.6-16.9,12.6-28.2,12.6c-11.1,0-21.4-4.8-28.2-12.6c-6.1-6.8-9.8-15.6-9.8-25.4c0-21.1,16.9-38,38-38
	C847.7,58.8,864.6,75.7,864.6,96.9z"/>
<path opacity="0.78" fill="#00AEEF" enable-background="new    " d="M726.4,369c0,4.9-3.1,9.1-7.5,11.1h-0.3
	c-7,3.1-14.9,0.9-20.1-4.4c0.3-6,0.3-11.7-0.7-16.1H693c0,1.6,0,3.1,0,4.7c0,3.1-0.3,6.3-0.3,9.1l-46.1,89.3
	c0,0-43.6-80.2-46.1-89.3c-0.3-3.1-0.3-6-0.4-9.1c0-1.1,0-2.3,0-3.5c0-0.4,0-0.9,0-1.4h-4.7c-0.7,4-0.9,8-0.9,12.1c0,1.4,0,2.7,0,4
	c-4.9,5.4-12.6,7.8-19.3,4.7l-0.7-0.3c-4.4-1.9-7.5-6.3-7.5-11.1c0-13.8,2-26.6,5.8-38.3c6-18.5,16.1-33.1,28.4-41.5
	c4.2-2.8,9.8-1.9,12.6,2c8.9,11.4,20.1,18.2,32.7,18.2c12.3,0,23.6-6.7,32.2-17.8c3.3-4.2,9.5-5.1,14-1.9
	c11.8,8.7,21.5,23.1,27.2,40.8C724.3,342.3,726.4,355.2,726.4,369z"/>
<path opacity="0.78" fill="#00AEEF" enable-background="new    " d="M684.9,265.2c0,9.8-3.7,18.6-9.8,25.4c-7,7.8-17,12.6-28.3,12.6
	c-11.1,0-21.5-4.9-28.3-12.6c-6-6.7-9.8-15.8-9.8-25.6c0-21.2,17-38.3,38.1-38.3C667.9,226.8,684.9,243.9,684.9,265.2z"/>
<path opacity="0.78" fill="#00AEEF" enable-background="new    " d="M456.3,115.2c0,3.2-1.8,6.1-5,7.4H451
	c-4.8,2.1-10.1,0.8-13.4-3.2c0.3-4,0-7.9-0.3-10.8h-3.5c0,1,0,2.1,0,3.2c0,2.1,0,4.2-0.3,6.1l-30.8,60.7c0,0-29.3-53.9-30.8-60.2
	c-0.3-2.1-0.3-4.2-0.3-6.1c0-0.8,0-1.6,0-2.3c0-0.3,0-0.5,0-0.8h-3.5c-0.5,2.3-0.5,5.3-0.5,8.1c0,0.8,0,1.8,0,2.6
	c-3.2,3.7-8.5,5-13.2,3.2l-0.5-0.3c-3-1.3-4.8-4.5-4.8-7.6c0-9.3,1.3-17.9,4-25.7c4-12.4,10.8-22.4,19-28c3-1.8,6.6-1.3,8.5,1.6
	c5.8,7.6,13.4,12.1,21.9,12.1c8.1,0,15.9-4.5,21.7-11.9c2.1-3,6.3-3.5,9.5-1.3c7.9,5.8,14.6,15.6,18.5,27.5
	C454.8,97.2,456.3,105.9,456.3,115.2z"/>
<path opacity="0.78" fill="#00AEEF" enable-background="new    " d="M428.3,45.2c0,6.6-2.3,12.6-6.6,17.2c-4.8,5.3-11.4,8.5-19,8.5
	s-14.6-3.2-19-8.5c-4.2-4.5-6.6-10.6-6.6-17.2c0-14.3,11.6-25.7,25.7-25.7C417,19.6,428.3,31.2,428.3,45.2z"/>
<path fill="#00AEEF" d="M644.9,456.6c0,8.1-5,15.6-12.4,18.7l-0.3,0.3c-11.9,5-25,1.6-33.5-7.6c0.3-10.1,0.3-19.8-1-27h-8.1
	c0,2.6,0,5.3-0.3,7.9c0,5.3-0.3,10.6-0.5,15.6l-77.4,150c0,0-73.1-134.7-77.4-150c-0.3-5.3-0.5-10.3-0.8-15.3
	c-0.3-2.1-0.3-4-0.3-6.1c0-0.8,0-1.6,0-2.1h-7.9c-1,6.6-1.6,13.4-1.6,20.6c0,2.1,0,4.5,0.3,6.6c-8.1,9.3-21.1,12.6-32.8,7.6l-1-0.5
	c-7.4-3.2-12.4-10.6-12.4-18.7c0-23,3.5-44.6,9.8-64.1c10.1-30.8,27-55.7,47.8-69.7c6.8-4.8,16.4-3,21.4,3.7
	c14.8,19,33.8,30.6,54.7,30.6c20.6,0,39.3-11.4,54.2-29.8c5.5-7.1,16.1-8.8,23.5-3.2c20.1,14.3,36.1,38.6,45.9,68.6
	C641.4,412,644.9,433.9,644.9,456.6z"/>
<path fill="#00AEEF" d="M575.3,282.5c0,16.4-6.1,31.5-16.4,42.8c-11.6,13.2-28.5,21.4-47.5,21.4s-35.9-8.1-47.5-21.1
	c-10.3-11.4-16.4-26.4-16.4-42.8c0-35.3,28.8-64.1,63.9-64.1C546.7,218.3,575.3,247.1,575.3,282.5z"/>
</svg>
