<?xml version="1.0" encoding="utf-8"?>
<!-- Generator: Adobe Illustrator 18.1.0, SVG Export Plug-In . SVG Version: 6.00 Build 0)  -->
<!DOCTYPE svg PUBLIC "-//W3C//DTD SVG 1.1//EN" "http://www.w3.org/Graphics/SVG/1.1/DTD/svg11.dtd">
<svg version="1.1" id="Layer_1" xmlns="http://www.w3.org/2000/svg" xmlns:xlink="http://www.w3.org/1999/xlink" x="0px" y="0px"
	 viewBox="0 0 241 241.8" enable-background="new 0 0 241 241.8" xml:space="preserve">
<path opacity="0.78" fill="#00AEEF" d="M241,83.8c0,1.8-1.1,3.5-2.8,4.2l-0.1,0c-2.7,1.1-5.6,0.4-7.5-1.7c0.1-2.2,0.1-4.4-0.2-6.1
	h-1.8c0,0.6,0,1.2,0,1.8c0,1.2-0.1,2.4-0.1,3.5L211,119.3c0,0-16.4-30.2-17.4-33.7c-0.1-1.2-0.1-2.3-0.1-3.4c0-0.5,0-0.9,0-1.4
	c0-0.2,0-0.3,0-0.5h-1.8c-0.3,1.5-0.4,3-0.4,4.6c0,0.5,0,1,0,1.5c-1.8,2.1-4.7,2.9-7.3,1.7l-0.3-0.1c-1.7-0.7-2.8-2.4-2.8-4.2
	c0-5.2,0.8-10,2.2-14.4c2.2-6.9,6-12.5,10.7-15.7c1.6-1.1,3.6-0.7,4.8,0.8c3.3,4.3,7.6,6.9,12.3,6.9c4.6,0,8.9-2.5,12.1-6.7
	c1.2-1.6,3.6-1.9,5.3-0.7c4.5,3.2,8.1,8.7,10.3,15.4C240.2,73.8,241,78.7,241,83.8z"/>
<path opacity="0.78" fill="#00AEEF" d="M225.3,42.7c0,3.7-1.4,7.1-3.7,9.6c-2.6,2.9-6.4,4.8-10.7,4.8c-4.2,0-8.1-1.8-10.7-4.8
	c-2.3-2.6-3.7-5.9-3.7-9.6c0-8,6.4-14.4,14.4-14.4C218.9,28.3,225.3,34.7,225.3,42.7z"/>
<path opacity="0.78" fill="#00AEEF" d="M172.9,141.5c0,2.1-1.2,4-3.2,4.8l-0.1,0c-3,1.3-6.4,0.4-8.6-2c0.1-2.6,0.1-5-0.2-6.9h-2.1
	c0,0.7,0,1.3,0,2c0,1.3-0.1,2.7-0.1,3.9l-19.8,38.3c0,0-0.3-0.5-0.8-1.4c0.1-0.4,0.1-0.9,0.1-1.3c0-8.7-1.3-16.9-3.8-24.3
	c-3.7-11.4-9.8-20.6-17.4-26c-2.8-2-6.9-1.5-8.9,1.2c-0.9,1.1-1.8,2.2-2.8,3.1c0.4-2.8,1.1-5.5,1.9-8c2.6-7.9,6.9-14.2,12.2-17.8
	c1.8-1.2,4.2-0.8,5.4,1c3.8,4.8,8.6,7.8,14,7.8c5.3,0,10.1-2.9,13.8-7.6c1.4-1.8,4.1-2.2,6-0.8c5.1,3.7,9.2,9.9,11.7,17.6
	C172,130.1,172.9,135.6,172.9,141.5z"/>
<path opacity="0.78" fill="#00AEEF" d="M155.1,96c0,4.2-1.6,8-4.2,10.9c-3,3.3-7.3,5.4-12.1,5.4c-4.8,0-9.2-2.1-12.1-5.4
	c-2.6-2.9-4.2-6.8-4.2-11c0-9.1,7.3-16.4,16.3-16.4C147.8,79.6,155.1,86.9,155.1,96z"/>
<path opacity="0.78" fill="#00AEEF" d="M40.6,37.2c0,1.2-0.7,2.3-1.9,2.8l-0.1,0c-1.8,0.8-3.8,0.3-5.1-1.2c0.1-1.5,0-3-0.1-4.1h-1.3
	c0,0.4,0,0.8,0,1.2c0,0.8,0,1.6-0.1,2.3L20.3,61.2c0,0-11.1-20.4-11.7-22.8c-0.1-0.8-0.1-1.6-0.1-2.3c0-0.3,0-0.6,0-0.9
	c0-0.1,0-0.2,0-0.3H7.2C7,35.8,7,36.9,7,38c0,0.3,0,0.7,0,1c-1.2,1.4-3.2,1.9-5,1.2l-0.2-0.1C0.7,39.6,0,38.4,0,37.2
	c0-3.5,0.5-6.8,1.5-9.7C3,22.8,5.6,19,8.7,16.9c1.1-0.7,2.5-0.5,3.2,0.6c2.2,2.9,5.1,4.6,8.3,4.6c3.1,0,6-1.7,8.2-4.5
	c0.8-1.1,2.4-1.3,3.6-0.5c3,2.2,5.5,5.9,7,10.4C40,30.4,40.6,33.7,40.6,37.2z"/>
<path opacity="0.78" fill="#00AEEF" d="M30,9.7c0,2.5-0.9,4.8-2.5,6.5c-1.8,2-4.3,3.2-7.2,3.2c-2.9,0-5.5-1.2-7.2-3.2
	c-1.6-1.7-2.5-4-2.5-6.5c0-5.4,4.4-9.7,9.7-9.7C25.7,0,30,4.4,30,9.7z"/>
<path fill="#00AEEF" d="M135.1,182c0,0.4,0,0.9-0.1,1.3c-0.4,2.5-2.1,4.7-4.6,5.8l-0.1,0.1c-4.5,1.9-9.5,0.6-12.7-2.9
	c0.1-3.8,0.1-7.5-0.4-10.2h-3.1c0,1,0,2-0.1,3c0,2-0.1,4-0.2,5.9l-29.3,56.8c0,0-27.7-51-29.3-56.8c-0.1-2-0.2-3.9-0.2-5.8
	c-0.1-0.8-0.1-1.5-0.1-2.3c0-0.3,0-0.6,0-0.9h-3c-0.4,2.5-0.6,5.1-0.6,7.8c0,0.8,0,1.7,0.1,2.5c-3.1,3.5-8,4.8-12.4,2.9l-0.4-0.2
	c-2.8-1.2-4.7-4-4.7-7.1c0-8.7,1.3-16.9,3.7-24.3c3.8-11.7,10.2-21.1,18.1-26.4c2.6-1.8,6.1-1.1,8.1,1.4
	c5.6,7.2,12.8,11.6,20.7,11.6c6.6,0,12.7-3,17.7-8.2c1-1,1.9-2,2.8-3.1c2.1-2.7,6.1-3.2,8.9-1.2c7.5,5.4,13.7,14.6,17.4,26
	C133.8,165.1,135.1,173.4,135.1,182z"/>
<path fill="#00AEEF" d="M108.7,116c0,6.2-2.3,11.9-6.2,16.2c-4.4,5-10.8,8.1-18,8.1c-7.2,0-13.6-3.1-18-8c-3.9-4.3-6.2-10-6.2-16.2
	c0-13.4,10.9-24.3,24.2-24.3C97.9,91.7,108.7,102.6,108.7,116z"/>
</svg>
