<?xml version="1.0" encoding="utf-8"?>
<!-- Generator: Adobe Illustrator 18.1.0, SVG Export Plug-In . SVG Version: 6.00 Build 0)  -->
<!DOCTYPE svg PUBLIC "-//W3C//DTD SVG 1.1//EN" "http://www.w3.org/Graphics/SVG/1.1/DTD/svg11.dtd">
<svg version="1.1" id="Layer_1" xmlns="http://www.w3.org/2000/svg" xmlns:xlink="http://www.w3.org/1999/xlink" x="0px" y="0px"
	 viewBox="0 0 243.6 243.5" enable-background="new 0 0 243.6 243.5" xml:space="preserve">
<path fill="#00AEEF" d="M178.5,125.8h-8.1c-1.5-4.6-3.3-9-5.6-13.2l5.7-5.7c3.1-3.1,3.1-8.1,0-11.3l-23-23c-3.1-3.1-8.1-3.1-11.3,0
	l-5.8,5.8c-4.2-2.2-8.7-4-13.3-5.5v-8c0-4.4-3.6-8-8-8H76.7c-4.4,0-8,3.6-8,8v8.2c-4.6,1.5-9,3.3-13.2,5.5l-5.7-5.7
	c-3.1-3.1-8.2-3.1-11.3,0l-23,23c-3.1,3.1-3.1,8.1,0,11.3l5.8,5.8c-2.2,4.2-4,8.7-5.5,13.3H8c-4.4,0-8,3.6-8,8v32.5c0,4.4,3.6,8,8,8
	h8.2c1.5,4.6,3.3,9,5.5,13.2l-5.7,5.7c-3.1,3.1-3.1,8.1,0,11.2l23,23c3.1,3.1,8.2,3.1,11.3,0l5.8-5.8c4.2,2.2,8.6,4,13.3,5.5v8
	c0,4.4,3.6,8,8,8h32.5c4.4,0,8-3.6,8-8v-8.2c4.6-1.5,9-3.3,13.2-5.5l5.7,5.7c3.1,3.1,8.1,3.1,11.3,0l23-23c3.1-3.1,3.1-8.2,0-11.2
	l-5.8-5.8c2.2-4.2,4-8.6,5.5-13.3h8c4.4,0,8-3.6,8-8v-32.5C186.4,129.4,182.9,125.8,178.5,125.8z M93.2,215.1
	c-35.8,0-64.8-29-64.8-64.8c0-35.8,29-64.8,64.8-64.8s64.8,29,64.8,64.8C158.1,186.1,129,215.1,93.2,215.1z"/>
<path fill="#00AEEF" d="M93.1,113.5c-20.3,0-36.8,16.5-36.8,36.7S72.8,187,93.1,187c20.3,0,36.7-16.5,36.7-36.7
	S113.3,113.5,93.1,113.5z M93.1,175.5c-13.9,0-25.3-11.3-25.3-25.2S79.1,125,93.1,125c13.9,0,25.2,11.3,25.2,25.3
	S107,175.5,93.1,175.5z"/>
<path fill="#00AEEF" d="M239.6,34.6h-4.1c-0.7-2.3-1.7-4.5-2.8-6.7l2.8-2.8c1.6-1.6,1.6-4.1,0-5.7L224,7.9c-1.6-1.6-4.1-1.6-5.7,0
	l-2.9,2.9c-2.1-1.1-4.3-2-6.7-2.7V4c0-2.2-1.8-4-4-4h-16.3c-2.2,0-4,1.8-4,4v4.1c-2.3,0.7-4.5,1.7-6.6,2.8L175,8
	c-1.6-1.6-4.1-1.6-5.7,0l-11.6,11.5c-1.6,1.6-1.6,4.1,0,5.7l2.9,2.9c-1.1,2.1-2,4.3-2.7,6.7h-4c-2.2,0-4,1.8-4,4v16.3
	c0,2.2,1.8,4,4,4h4.1c0.7,2.3,1.7,4.5,2.8,6.6l-2.9,2.9c-1.6,1.6-1.6,4.1,0,5.7l11.6,11.6c1.6,1.6,4.1,1.6,5.7,0l2.9-2.9
	c2.1,1.1,4.3,2,6.7,2.7v4c0,2.2,1.8,4,4,4h16.3c2.2,0,4-1.8,4-4v-4.1c2.3-0.7,4.5-1.7,6.6-2.8l2.9,2.9c1.6,1.6,4.1,1.6,5.7,0
	l11.5-11.6c1.6-1.6,1.6-4.1,0-5.7l-2.9-2.9c1.1-2.1,2-4.3,2.7-6.7h4c2.2,0,4-1.8,4-4V38.6C243.6,36.4,241.8,34.6,239.6,34.6z
	 M196.8,79.4c-18,0-32.6-14.6-32.6-32.6c0-18,14.6-32.6,32.6-32.6s32.6,14.6,32.6,32.6C229.4,64.9,214.8,79.4,196.8,79.4z"/>
<path fill="#00AEEF" d="M127.7,20.4h-2.1c-0.4-1.2-0.9-2.3-1.4-3.4l1.5-1.5c0.8-0.8,0.8-2.1,0-2.9l-5.9-5.9c-0.8-0.8-2.1-0.8-2.9,0
	l-1.5,1.5c-1.1-0.6-2.2-1-3.4-1.4V4.8c0-1.1-0.9-2-2-2h-8.4c-1.1,0-2,0.9-2,2v2.1c-1.2,0.4-2.3,0.9-3.4,1.4l-1.5-1.5
	c-0.8-0.8-2.1-0.8-2.9,0l-5.9,5.9c-0.8,0.8-0.8,2.1,0,2.9l1.5,1.5c-0.6,1.1-1,2.2-1.4,3.4h-2.1c-1.1,0-2,0.9-2,2V31c0,1.1,0.9,2,2,2
	H86c0.4,1.2,0.9,2.3,1.4,3.4l-1.5,1.5c-0.8,0.8-0.8,2.1,0,2.9l5.9,5.9c0.8,0.8,2.1,0.8,2.9,0l1.5-1.5c1.1,0.6,2.2,1,3.4,1.4v2.1
	c0,1.1,0.9,2,2,2h8.4c1.1,0,2-0.9,2-2v-2.1c1.2-0.4,2.3-0.9,3.4-1.4l1.5,1.5c0.8,0.8,2.1,0.8,2.9,0l5.9-5.9c0.8-0.8,0.8-2.1,0-2.9
	l-1.5-1.5c0.6-1.1,1-2.2,1.4-3.4h2.1c1.1,0,2-0.9,2-2v-8.4C129.8,21.4,128.9,20.4,127.7,20.4z M105.8,43.4
	c-9.2,0-16.7-7.5-16.7-16.7c0-9.2,7.5-16.7,16.7-16.7s16.7,7.5,16.7,16.7C122.5,36,115,43.4,105.8,43.4z"/>
<path fill="#00AEEF" d="M196.8,26.7c-11.1,0-20.1,9-20.1,20.1s9,20.1,20.1,20.1c11.1,0,20.1-9,20.1-20.1S207.9,26.7,196.8,26.7z
	 M196.8,60.7c-7.6,0-13.8-6.2-13.8-13.8S189.1,33,196.8,33c7.6,0,13.8,6.2,13.8,13.8S204.4,60.7,196.8,60.7z"/>
<path fill="#00AEEF" d="M218.4,40.7h-2.1c-0.4-1.2-0.8-2.3-1.4-3.4l1.4-1.4c0.8-0.8,0.8-2.1,0-2.9l-5.8-5.8c-0.8-0.8-2.1-0.8-2.9,0
	l-1.5,1.5c-1.1-0.6-2.2-1-3.4-1.4v-2c0-1.1-0.9-2-2-2h-8.2c-1.1,0-2,0.9-2,2v2.1c-1.2,0.4-2.3,0.8-3.3,1.4l-1.4-1.4
	c-0.8-0.8-2.1-0.8-2.9,0l-5.8,5.8c-0.8,0.8-0.8,2.1,0,2.9l1.5,1.5c-0.6,1.1-1,2.2-1.4,3.4h-2c-1.1,0-2,0.9-2,2V51c0,1.1,0.9,2,2,2
	h2.1c0.4,1.2,0.8,2.3,1.4,3.3l-1.4,1.4c-0.8,0.8-0.8,2.1,0,2.9l5.8,5.8c0.8,0.8,2.1,0.8,2.9,0l1.5-1.5c1.1,0.6,2.2,1,3.4,1.4v2
	c0,1.1,0.9,2,2,2h8.2c1.1,0,2-0.9,2-2v-2.1c1.2-0.4,2.3-0.8,3.4-1.4l1.4,1.4c0.8,0.8,2.1,0.8,2.9,0l5.8-5.8c0.8-0.8,0.8-2.1,0-2.9
	l-1.5-1.5c0.6-1.1,1-2.2,1.4-3.4h2c1.1,0,2-0.9,2-2v-8.2C220.4,41.6,219.5,40.7,218.4,40.7z M196.8,63.3c-9.1,0-16.4-7.4-16.4-16.4
	c0-9.1,7.4-16.4,16.4-16.4s16.4,7.4,16.4,16.4C213.2,55.9,205.8,63.3,196.8,63.3z"/>
<circle fill="#00AEEF" stroke="#00AEEF" stroke-miterlimit="10" cx="105.8" cy="26.7" r="9.1"/>
</svg>
