<?xml version="1.0" encoding="utf-8"?>
<!-- Generator: Adobe Illustrator 18.1.0, SVG Export Plug-In . SVG Version: 6.00 Build 0)  -->
<!DOCTYPE svg PUBLIC "-//W3C//DTD SVG 1.1//EN" "http://www.w3.org/Graphics/SVG/1.1/DTD/svg11.dtd">
<svg version="1.1" id="Layer_1" xmlns="http://www.w3.org/2000/svg" xmlns:xlink="http://www.w3.org/1999/xlink" x="0px" y="0px"
	 viewBox="350 135.2 613.4 612" enable-background="new 350 135.2 613.4 612" xml:space="preserve">
<ellipse fill="#00ABEC" cx="656.7" cy="441.2" rx="306.7" ry="306"/>
<g>
	<path fill="#FFFFFF" d="M759.1,269.3c3.7,0,7.3,0,11.2,0c0.2,0.2,0.7,0.2,0.9,0.2c3.2,0.2,6.4,0.5,9.6,1.1
		c21.1,3.4,39.4,12.8,54.6,28c1.8,1.8,3.4,2.3,6,1.6c20.6-4.6,40.3-12.1,58.7-22.9c0.2-0.2,0.7-0.5,1.1-0.5
		c-7.8,23.4-22.2,41.5-43.1,54.8c19.5-2.3,38-7.3,55.9-15.1c-0.2,0.5-0.5,0.9-0.7,1.1c-13.1,19-28.9,35.5-47.4,49.1
		c-0.9,0.7-1.1,1.1-1.1,2.3c0.7,14.9,0,29.8-1.8,44.5c-1.8,14.4-4.6,28.4-8.5,42.2c-11.2,39.7-29.3,75.6-55.5,107.7
		c-32.1,39.4-72,68.1-120.1,85c-22.9,8.3-46.8,13.1-71.1,15.1c-13.8,1.1-27.5,1.1-41,0.7c-15.1-0.5-30-2.5-44.9-5.7
		c-30.9-6.4-59.6-17.9-86.9-33.9c-2.5-1.6-5-3-7.6-4.6c54.6,5.3,103.6-8.3,147.2-41.5c-0.5-0.5-0.9-0.5-1.1-0.5
		c-4.1,0-8-0.5-12.1-1.1c-18.8-3-35.5-10.8-50-23.2c-13.8-11.9-23.6-26.6-29.6-43.8c-0.5-1.4-0.5-1.4,0.9-1.1
		c3.4,0.7,6.9,1.1,10.3,1.4c8.9,0.7,17.9,0,26.8-1.6c2.1-0.5,4.1-0.7,6.2-1.6c-0.2,0-0.2-0.2-0.5-0.2c-23.2-5-42.4-16.7-57.3-35.1
		c-14.7-18.3-22-39.2-22.2-62.8c0-0.7-0.2-1.4,0.9-0.7c11.7,6.2,24.1,10.1,37.4,11.5c2.1,0.2,4.4,0.5,6.6,0.5
		c-21.5-15.1-35.8-35.1-41.5-60.5c-6-25.4-2.1-49.7,10.8-72.7c1.6,1.8,3,3.4,4.4,5c1.4,1.6,3,3.4,4.4,5
		c33.2,36.9,73.3,63.5,120.3,79.5c16.5,5.7,33.2,9.6,50.7,12.1c8.3,1.1,16.5,2.1,25,2.5c1.6,0,1.6,0.2,1.1-1.4
		c-3-13.3-3.2-26.8-0.5-40.1c6.2-30.3,22.7-52.9,49.3-68.3c11.5-6.6,24.1-10.5,37.4-12.1C755.2,269.7,757.3,269.7,759.1,269.3z
		 M857.7,331.9L857.7,331.9L857.7,331.9L857.7,331.9z"/>
	<polygon fill="#FEFEFE" points="857.7,331.9 857.7,331.6 857.7,331.6 	"/>
</g>
</svg>
