<?xml version="1.0" encoding="utf-8"?>
<!-- Generator: Adobe Illustrator 18.1.0, SVG Export Plug-In . SVG Version: 6.00 Build 0)  -->
<!DOCTYPE svg PUBLIC "-//W3C//DTD SVG 1.1//EN" "http://www.w3.org/Graphics/SVG/1.1/DTD/svg11.dtd">
<svg version="1.1" id="Layer_1" xmlns="http://www.w3.org/2000/svg" xmlns:xlink="http://www.w3.org/1999/xlink" x="0px" y="0px"
	 viewBox="89.4 0 613.4 612" enable-background="new 89.4 0 613.4 612" xml:space="preserve">
<ellipse fill="#DC2D2D" cx="396.1" cy="306" rx="306.7" ry="306"/>
<path fill="#FFFFFF" stroke="#FFFFFF" stroke-miterlimit="10" d="M601,322v24.5c0,4.6,3.7,8.3,8.3,8.3h2.1c4.6,0,8.3-3.7,8.3-8.3
	v-11.5h19.5v8c0,15.8-12.8,28.7-28.7,28.7s-28.7-12.8-28.7-28.7v-48.6c0-15.8,12.8-28.7,28.7-28.7c7.8,0,15.1,3.2,20.2,8.5
	c5.3,5.3,8.5,12.4,8.5,20.2v27.3h-38V322z"/>
<path fill="#DC2D2D" d="M601,308.1h18.3v-16.3c0-4.8-3.9-8.7-8.7-8.7h-0.9c-4.8,0-8.7,3.9-8.7,8.7V308.1z"/>
<polygon points="207.2,234.3 181.3,318.1 181.3,372.7 160.5,372.7 160.5,317.5 135.3,236.8 134.6,234.3 144,234.3 144,234.3 
	144,234.3 144,234.3 144,234.3 144,234.3 144,234.3 144.2,234.3 144.2,234.3 144.2,234.3 144.2,234.3 144.2,234.3 144.2,234.3 
	144.2,234.3 144.2,234.3 144.2,234.3 144.2,234.3 144.2,234.3 144.4,234.3 144.4,234.3 144.4,234.3 144.4,234.3 144.4,234.3 
	144.4,234.3 144.4,234.3 144.4,234.3 154.5,234.3 171,283.3 187.3,234.3 "/>
<path d="M241.6,265c-7.8,0-14.9,3.2-20.2,8.3c-5,5-8.3,12.4-8.3,20.2v50.9c0,15.6,12.8,28.4,28.4,28.4s28.4-12.8,28.4-28.4v-50.9
	C270,277.8,257.2,265,241.6,265z M250.1,345.7c0,4.6-3.9,8.5-8.5,8.5s-8.5-3.9-8.5-8.5v-53.4c0-2.3,0.9-4.4,2.5-6
	c1.6-1.6,3.7-2.5,6-2.5c4.6,0,8.5,3.9,8.5,8.5V345.7z"/>
<path fill="#FFFFFF" stroke="#FFFFFF" stroke-miterlimit="10" d="M485.3,265.4v71.1c0,0.9,0,2.1,0,3c0,0.9,0,1.4-0.2,2.3
	c-0.2,1.6-0.7,3-1.4,4.1l0,0c-0.2,0.7-0.7,0.9-1.1,1.6l0,0l0,0c-0.5,0.7-0.9,1.4-1.6,1.8l-0.9,0.9c-2.8,2.5-5,4.1-7.3,3.2
	c-1.8-0.7-2.8-2.5-3-5.5c0-0.9,0-1.4,0-3.2V265H450v81.6c0,0.5,0,7.3,1.1,12.1c1.8,7.1,5.3,11,8.5,12.1c4.4,1.6,9.9,2.1,16-2.8
	c0,0,3-2.5,3.7-3.2l6-5.7v10.5h19.5V265.2h-19.5V265.4z"/>
<path d="M320.2,266.1v71.1c0,0.9,0,2.1,0,3c0,0.9,0,1.4-0.2,2.3c-0.2,1.6-0.7,3-1.4,4.1l0,0c-0.2,0.7-0.7,0.9-1.1,1.6l0,0l0,0
	c-0.5,0.7-0.9,1.4-1.6,1.8l-0.9,0.9c-2.8,2.5-5,4.1-7.3,3.2c-1.8-0.7-2.8-2.5-3-5.5c0-0.9,0-1.4,0-3.2v-79.5h-19.7v81.6
	c0,0.5,0,7.3,1.1,12.1c1.8,7.1,5.3,11,8.5,12.1c4.4,1.6,9.9,2.1,16-2.8c0,0,3-2.5,3.7-3.2l6-5.7v10.5h19.5V266.1L320.2,266.1
	L320.2,266.1z"/>
<path fill="#FFFFFF" stroke="#FFFFFF" stroke-miterlimit="10" d="M552.9,266.1c-5,0-9.6,2.1-13.1,5.5c-2.5,2.5-4.1,5.5-5,8.9v-48.1
	h-17.9v138.4h17.9v-13.3c1.8,8.3,9.2,14.2,17.9,14.2c11,0,20.2-9.2,20.2-20.2v-65.3C573.1,275.3,563.9,266.1,552.9,266.1z
	 M553.1,347c0,5-4.1,9.4-9.4,9.4c-4.1,0-7.6-2.8-8.9-6.4c-0.2-0.7-0.5-1.4-0.5-2.3c0-0.2,0-0.5,0-0.7v-54.8c0-0.2,0-0.5,0-0.7
	c0-0.7,0.2-1.6,0.5-2.3c0.5-1.4,1.1-2.5,2.3-3.7c0.5-0.5,1.1-1.1,1.8-1.4c0.7-0.5,1.4-0.7,2.1-0.9c0.9-0.2,1.8-0.5,2.8-0.5
	c5,0,9.4,4.1,9.4,9.4V347z"/>
<polygon fill="#FFFFFF" stroke="#FFFFFF" stroke-miterlimit="10" points="381.4,233.8 381.4,253.1 403.4,253.1 403.4,372 424.1,372 
	424.1,253.1 447,253.1 447,233.8 "/>
<path fill="none" stroke="#FFFFFF" stroke-miterlimit="10" d="M507.1,193.2c0,0,77.7,0.5,111.4,3.4s41.9,25.4,44.9,47.9
	s3.9,106.6-2.1,125.2s-11.2,35.8-45.8,38c-34.6,2.5-184.1,4.4-212,0s-37.6-11.7-43.6-39.7c-6-27.7-3.4-95.8-2.5-120.6
	c0.9-25,12.6-49.7,54.3-51.3C453.4,194.6,507.1,193.2,507.1,193.2z"/>
</svg>
